<?xml version="1.0" standalone="no"?>
<!DOCTYPE svg PUBLIC "-//W3C//DTD SVG 1.1//EN" "http://www.w3.org/Graphics/SVG/1.1/DTD/svg11.dtd" >
<svg xmlns="http://www.w3.org/2000/svg" xmlns:xlink="http://www.w3.org/1999/xlink" version="1.1">
<metadata></metadata>
<defs>
<font id="opendyslexicbold_italic" horiz-adv-x="1742" >
<font-face units-per-em="2048" ascent="1638" descent="-410" />
<missing-glyph horiz-adv-x="1779" />
<glyph unicode="&#xfb01;" horiz-adv-x="1980" d="M281 -2l266 885h-164l80 293l170 18q82 283 184.5 386t302.5 103h234l-70 -264h-207q-47 0 -87.5 -48.5t-61 -106.5t-27.5 -111l336 23l-80 -293h-291l-204 -885h-381zM1065 10q98 290 134 400t94 304.5t124 442.5l266 -37q-105 -340 -164.5 -592.5t-88.5 -554.5z M1489 1419l203 449h305l-60 -449h-448z" />
<glyph unicode="&#xfb02;" horiz-adv-x="2222" d="M281 -2l266 885h-164l80 293l170 18q82 283 184.5 386t302.5 103h234l-70 -264h-207q-47 0 -87.5 -48.5t-61 -106.5t-27.5 -111l336 23l-80 -293h-291l-204 -885h-381zM1169 6q18 100 206 710.5t347 1030.5l279 -37q-74 -186 -181 -519.5t-171.5 -553t-110.5 -385.5 l240 18l-27 -282z" />
<glyph unicode="&#xfb03;" horiz-adv-x="2717" d="M326 -2l266 885h-164l80 293l170 18q82 283 184.5 386t302.5 103h234l-70 -264h-207q-44 0 -82 -42t-59 -94t-31 -107h402l170 18q82 283 184.5 386t302.5 103h234l-70 -264h-207q-47 0 -87.5 -48.5t-61 -106.5t-27.5 -111l336 23l-80 -293h-291l-205 -885h-381l267 885 h-525l-204 -885h-381zM1794 10q98 290 134 400t94 304.5t124 442.5l267 -37q-106 -343 -165.5 -594.5t-88.5 -552.5zM2218 1419l203 449h305l-60 -449h-448z" />
<glyph unicode="&#xfb04;" horiz-adv-x="3065" d="M281 -2l266 885h-164l80 293l170 18q82 283 184.5 386t302.5 103h234l-70 -264h-207q-44 0 -82 -42t-59 -94t-31 -107h402l170 18q82 283 184.5 386t302.5 103h234l-70 -264h-207q-47 0 -87.5 -48.5t-61 -106.5t-27.5 -111l336 23l-80 -293h-291l-205 -885h-381l267 885 h-525l-204 -885h-381zM2013 6q18 100 206 710.5t347 1030.5l279 -37q-74 -186 -181 -519.5t-171.5 -553t-110.5 -385.5l239 18l-26 -282z" />
<glyph horiz-adv-x="0" />
<glyph horiz-adv-x="682" />
<glyph unicode=" "  horiz-adv-x="1779" />
<glyph unicode="&#x09;" horiz-adv-x="1779" />
<glyph unicode="&#xa0;" horiz-adv-x="1779" />
<glyph unicode="!" horiz-adv-x="690" d="M-55 -328l252 559h381l-74 -559h-559zM401 926l471 1317l179 -240l-387 -1329z" />
<glyph unicode="&#x22;" horiz-adv-x="1439" d="M203 1804h504l-27 -299l127 -399h-436zM874 1804h504l-26 -299l127 -399h-437z" />
<glyph unicode="#" horiz-adv-x="2125" d="M49 268l201 287h385l162 387h-506l164 287h460l201 481h283l-170 -481h305l195 485h284l-172 -485h631l-176 -287h-555l-137 -387h624l-162 -287h-565l-145 -413h-371l166 413h-264l-148 -418h-397l174 418h-467zM989 555h277l153 387h-293z" />
<glyph unicode="$" horiz-adv-x="2359" d="M254 131l387 334q22 -20 147.5 -70.5t235.5 -77.5q113 -28 219 -18l78 324q-33 11 -51 14l-135 27q-267 49 -367 178t-39 329q73 238 281.5 363t523.5 125h33l73 307h254l-77 -328q169 -19 239 -43l-217 -266l-90 25l-109 -453q204 -75 291.5 -201t40.5 -282 q-91 -300 -540 -398l-91 -380h-254l82 346q-85 -6 -174 -6q-486 0 -741 151zM1087 1108.5q3 -27.5 21.5 -50t66 -41.5t123.5 -34l105 -18l98 417q-66 -2 -157 -37t-163 -85.5t-85 -92.5q-12 -31 -9 -58.5zM1530 432q12 17 18 35q4 14 -4 29z" />
<glyph unicode="%" horiz-adv-x="2224" d="M473 -147l1536 1742h256l-1454 -1742h-338zM580 1051q44 167 155.5 261.5t265.5 94.5q155 0 223.5 -105t22.5 -274q-47 -175 -159 -273t-267 -98q-156 0 -222 108.5t-19 285.5zM758 1047q-24 -89 1.5 -118.5t106.5 -29.5q166 0 211 170q26 94 1 143.5t-97 49.5 q-71 0 -134 -60t-89 -155zM1380 330q44 167 156 261.5t266 94.5q155 0 223.5 -105t22.5 -274q-47 -175 -159 -272.5t-267 -97.5q-157 0 -223 108t-19 285zM1559 326q-24 -89 1.5 -118.5t106.5 -29.5q166 0 211 170q26 94 1 143.5t-97 49.5q-71 0 -134 -60t-89 -155z" />
<glyph unicode="&#x26;" horiz-adv-x="1914" d="M357 374q3 51 20 113q68 257 377 435l-58 65q-150 166 -49 402q32 75 90.5 132.5t129 89.5t142 48t140.5 16q66 0 127 -12.5t118.5 -39t101.5 -74.5t67 -113q49 -137 -33 -289q-80 -146 -293 -254l-129 -68q108 -122 313 -327q141 117 160 278l289 -43 q-67 -250 -250 -428l92 -86l-196 -192l-103 120q-49 -31 -143 -77q-87 -34 -213 -61t-260 -27q-248 0 -365 159q-43 60 -60.5 121t-14.5 112zM723 512q-11 -42 1 -74.5t39 -51.5t66.5 -31.5t76.5 -16.5t77 -4q101 0 229 47l-290 342q-95 -59 -139.5 -106t-59.5 -105z M821 1247q11 -77 129 -231q56 24 88 39t84 40t85 45.5t69 45.5t58 50.5t32 51.5q33 90 -35.5 161t-175.5 73q-65 1 -130 -26.5t-110.5 -68.5t-72 -90t-21.5 -90zM1463 -26q1 0 40 34q11 10 17 15l-4 4z" />
<glyph unicode="'" horiz-adv-x="727" d="M371 1591h503l-26 -299l127 -399h-436z" />
<glyph unicode="(" horiz-adv-x="989" d="M247 17.5q-5 140.5 9.5 287.5t34 245.5t49.5 209.5q85 315 319 688t547 666l279 -62q-704 -765 -842 -1329q-41 -169 -58 -307t-16 -258.5t29 -260.5t66.5 -270.5t107.5 -331.5l-395 46q-61 178 -93 357t-37 319.5z" />
<glyph unicode=")" horiz-adv-x="894" d="M-590 2052l279 62q313 -293 547 -666t319 -688q30 -111 49.5 -209.5t34 -245.5t9.5 -287.5t-37 -319.5t-93 -357l-395 -46q69 201 107.5 331.5t66.5 270.5t29 260.5t-16 258.5t-58 307q-138 564 -842 1329z" />
<glyph unicode="*" horiz-adv-x="1300" d="M352 879l350 165l-309 136l225 239l236 -172l45 279l283 59l-90 -340l421 234l-30 -262l-330 -156l320 -139l-234 -236l-240 172l-45 -283l-282 -59l88 330l-307 -207z" />
<glyph unicode="+" horiz-adv-x="1269" d="M227 440l70 262l412 -2l108 404h283l-109 -406l357 -2l-70 -262l-356 2l-105 -387h-282l104 389z" />
<glyph unicode="," horiz-adv-x="657" d="M-94 -371l254 402l65 297h504l-387 -699h-436z" />
<glyph unicode="-" horiz-adv-x="1128" d="M180 492l66 243h1030l-66 -243h-1030z" />
<glyph unicode="." horiz-adv-x="534" d="M43 2l203 449h305l-59 -449h-449z" />
<glyph unicode="/" horiz-adv-x="1396" d="M-250 -1087l1888 3334l363 163l-1722 -3174z" />
<glyph unicode="0" horiz-adv-x="1634" d="M286 142q-96 226 11 622q108 400 304.5 605.5t475.5 205.5q278 0 370 -222t-17 -626q-107 -402 -301 -606.5t-470 -204.5q-277 0 -373 226zM605.5 504.5q25.5 -107.5 154.5 -107.5q122 0 223.5 123.5t192.5 388.5q67 252 39.5 363.5t-158.5 111.5q-129 0 -234.5 -129.5 t-173.5 -382.5q-69 -260 -43.5 -367.5zM735 858q39 143 88 207.5t133 64.5q86 0 108.5 -85t-17.5 -224q-58 -219 -201 -219q-77 0 -108 75t-3 181z" />
<glyph unicode="1" horiz-adv-x="1462" d="M92 -2l90 336l285 8l278 872l-294 -137l108 328q274 143 387 143h195l-324 -1204l336 -10l-90 -336h-971z" />
<glyph unicode="2" horiz-adv-x="1597" d="M92 -2l141 315q33 68 113 131t270 168q186 103 286 187t173 176q58 76 72 125q53 194 -178 194q-87 0 -203.5 -38.5t-333.5 -135.5l86 346q282 109 492 109q42 0 91.5 -6.5t127 -36.5t132 -79.5t84.5 -148t7 -229.5q-58 -320 -584 -741l392 12l-62 -348h-1106z" />
<glyph unicode="3" horiz-adv-x="1585" d="M111 68l215 397q165 -75 319 -86q100 -6 216.5 35t129.5 88q23 89 -34 136.5t-185 47.5h-237l-21 -2v2h-14l47 98l24 80h13l43 92h227q146 0 237 57.5t115 151.5q28 101 -32 133.5t-222 32.5q-21 0 -42 -1t-37.5 -2t-41 -4.5l-38.5 -5.5t-44 -8.5t-43.5 -9.5t-52 -12 t-54 -13t-64.5 -16.5t-70 -17.5l117 268q258 66 424 66q251 0 374.5 -129t69.5 -332q-28 -104 -92 -175.5t-178 -121.5q107 -46 136 -140t-13 -241q-20 -74 -48 -135.5t-59 -107t-72.5 -81t-78.5 -58.5t-88.5 -40t-91 -25.5t-96.5 -13t-95 -5.5t-96 -1q-104 0 -186.5 13.5 t-133 30t-147.5 55.5z" />
<glyph unicode="4" horiz-adv-x="1660" d="M197 389l51 191l67 71h4l887 891l240 14h2l-2 -2l-193 -876l191 6l-86 -324l-172 5l-80 -367h-393l118 375zM610 659l316 11l159 499z" />
<glyph unicode="5" horiz-adv-x="1564" d="M94 4l187 447q122 -77 182 -96t166 -19q118 0 215.5 57.5t118.5 134.5q7 26 10.5 46.5t3.5 37t-3.5 29t-10 21.5t-15.5 15.5t-21 10.5t-27 6t-32 3t-36.5 1h-41.5h-24q-131 0 -465 -41l258 879l914 12l-60 -260h-661l-86 -319h145q181 0 304 -64t168.5 -179.5t4.5 -264.5 q-70 -263 -267.5 -404t-492.5 -141q-194 0 -434 88z" />
<glyph unicode="6" horiz-adv-x="1634" d="M227 405.5q5 119.5 47 276.5q13 49 27 94.5t40 116t55 132t73 135t93 132.5t115.5 117t139.5 97t166 63t195 24l370 -2l-47 -286h-362q-53 0 -92 -2.5t-84 -11t-78.5 -24t-69.5 -42t-64 -63.5t-54.5 -90.5t-47.5 -121.5q125 62 164 74q57 18 143 18q98 0 178.5 -29.5 t133 -82t83.5 -125t31 -159.5t-24 -185q-66 -246 -239 -365t-431 -119q-117 0 -202.5 22.5t-147 73.5t-89 132t-22.5 200.5zM559 453q-11 -84 30.5 -122t153.5 -38q110 0 195.5 59t114.5 142q19 50 16.5 99.5t-19 89.5t-55.5 64.5t-94 24.5q-106 0 -215.5 -100.5 t-126.5 -218.5z" />
<glyph unicode="7" horiz-adv-x="1574" d="M438 1290l78 256l983 -26l82 2l-2 -4h4l-35 -72l-614 -1448h-475l702 1264z" />
<glyph unicode="8" horiz-adv-x="1669" d="M211 438q46 149 153.5 234.5t325.5 126.5q-84 16 -138.5 49.5t-76.5 81t-21 102t23 119.5q67 195 221 299t385 104q250 0 352.5 -119.5t55.5 -320.5q-31 -137 -102.5 -212.5t-192.5 -100.5q120 -53 166 -155.5t14 -244.5q-53 -230 -234.5 -347t-461.5 -117 q-279 0 -410 134.5t-59 366.5zM541 422q-14 -56 42.5 -96.5t161.5 -40.5q103 0 201 58.5t113 115.5q31 112 -13 163.5t-167 51.5q-122 0 -214.5 -69.5t-123.5 -182.5zM772 1155q-40 -98 3 -151.5t147 -53.5q100 0 193 72t110 170q12 77 -28.5 115.5t-139.5 38.5 q-97 0 -174.5 -55.5t-110.5 -135.5z" />
<glyph unicode="9" horiz-adv-x="1632" d="M137 20l119 312q179 -44 416 -58q147 -9 239 42t154 184q-79 -37 -141 -45.5t-154 -1.5q-272 20 -374 169.5t-27 407.5q75 259 249.5 402t434.5 143q602 0 374 -848q-37 -137 -79 -246.5t-86.5 -187.5t-94.5 -136t-103 -92.5t-111 -57t-119 -30t-126.5 -11t-134.5 0.5 q-230 5 -436 53zM595.5 812.5q49.5 -61.5 217.5 -58.5q165 3 273 83.5t135 231.5q27 154 -34.5 212t-197.5 56q-127 -2 -231 -81t-160 -236q-52 -146 -2.5 -207.5z" />
<glyph unicode=":" horiz-adv-x="555" d="M29 -2l223 494h336l-66 -494h-493zM266 879l223 493h336l-65 -493h-494z" />
<glyph unicode=";" horiz-adv-x="712" d="M-66 -371l254 402l66 297h504l-387 -699h-437zM328 772l223 494h336l-66 -494h-493z" />
<glyph unicode="&#x3c;" horiz-adv-x="1587" d="M-135 459l90 47l-74 217l1196 596l97 -297l-744 -408l979 -249l100 -363l-1456 406l-55 -31l-16 49z" />
<glyph unicode="=" horiz-adv-x="1239" d="M119 164l182 256l879 53l28 -268zM242 625l182 256l879 53l28 -268z" />
<glyph unicode="&#x3e;" horiz-adv-x="1648" d="M109 2l100 363l979 249l-744 408l97 297l1196 -596l-74 -217l90 -47l-117 -33l-16 -49l-55 31z" />
<glyph unicode="?" horiz-adv-x="1357" d="M340 -254l203 449h305l-60 -449h-448zM596 524q8 18 25.5 57.5t25 56t21 49t21.5 54.5t19 53.5t21 63.5q2 5 51 191l49 86q73 24 112.5 38t95 35t85.5 37t69.5 39.5t62.5 47t48.5 55t43.5 68.5t34 83q92 271 13 367q-62 68 -184 54.5t-253 -72.5t-221 -134 q-51 103 -139 211q270 197 505 239t421 -73q59 -37 101.5 -88.5t71 -124t27.5 -173t-36 -218.5q-114 -390 -545 -580q-50 -183 -58.5 -220.5t-9.5 -80.5q-156 -61 -287.5 -96.5t-189.5 -24.5z" />
<glyph unicode="@" horiz-adv-x="2103" d="M414.5 597.5q13.5 117.5 61 240.5t124.5 236t184 216t232 180q337 204 682 158q109 -16 197 -76.5t139.5 -146t74.5 -184.5t13 -195q-5 -55 -20.5 -113t-43.5 -126t-73.5 -129.5t-105 -116t-145 -93t-186.5 -53.5q-49 -7 -103.5 30.5t-74.5 86.5h-108l16 39 q-85 -59 -205 -59q-146 0 -194.5 88t-1.5 243q48 157 142.5 256.5t215.5 98.5q37 -1 80.5 -16t70.5 -34l15 43h135l-94 -602l135 21q83 30 151.5 78.5t110 102t65.5 99.5t35 86q17 61 18.5 124t-14 129t-65.5 122t-129 88q-72 29 -159.5 31.5t-176.5 -18.5t-180 -64 t-171.5 -101.5t-148.5 -134t-114.5 -158.5t-66.5 -179t-7 -191q23 -163 128.5 -251t299 -98.5t477.5 69.5q1 -15 4.5 -95.5t8.5 -153.5t10 -104q-25 -4 -128 -23t-163.5 -27t-167.5 -8.5t-207 15.5q-161 26 -279.5 90.5t-184.5 153t-94 198.5t-14.5 227.5zM976 750 q-2 -17 2 -24t22.5 -12t39 -6t60.5 -1q133 0 184 37t51 130q-2 27 -0.5 51.5t-2 45t-13 35.5t-34 23.5t-64.5 8.5q-48 0 -95 -39t-110 -157q-19 -35 -28.5 -55t-11.5 -37z" />
<glyph unicode="A" horiz-adv-x="2281" d="M152 -4l1159 1745h288l220 -1745h-449l8 266h-641l-153 -266h-432zM944 641h434l-32 702z" />
<glyph unicode="B" horiz-adv-x="1910" d="M152 -4l469 1749h555q274 1 402 -129q87 -89 87 -220q0 -61 -18 -130q-32 -119 -90.5 -198.5t-159.5 -127.5q66 -30 109 -68q44 -38 70 -92q27 -55 27 -126q0 -68 -20 -158q-23 -96 -59 -171.5t-77.5 -127.5t-98.5 -89.5t-112 -59t-130 -33.5t-140 -15.5t-153 -3.5h-661z M614 442h275q180 0 258 39.5t104 141.5q5 19 6.5 29.5t-7 33.5t-31.5 43q-53 45 -209 45h-308zM782 1073h250q136 0 220.5 54t109.5 151q11 41 11 73q0 51 -28 80q-46 48 -174 48h-280z" />
<glyph unicode="C" horiz-adv-x="1968" d="M330 463q-2 29 -3 60q0 76 15 162q21 121 72 243q72 171 167.5 309t199 231t220 157.5t229 95t228.5 36.5q34 2 71 1q192 0 437 -44l-145 -383q-135 32 -225 40q-38 3 -80 3q-58 0 -123 -6q-212 -24 -351.5 -148t-205.5 -313q-43 -124 -43 -209q1 -11 1 -22 q6 -91 91.5 -134.5t267.5 -43.5q244 0 457 96l-111 -598h-754q-85 0 -158.5 34.5t-127.5 95.5t-87.5 148.5t-41.5 188.5z" />
<glyph unicode="D" horiz-adv-x="2103" d="M154 -2l467 1743h497q498 0 686 -219q115 -134 115 -352q0 -139 -47 -312q-36 -135 -78.5 -244.5t-86.5 -193.5t-102 -148t-111.5 -109t-129.5 -75.5t-141.5 -48t-163 -27t-177.5 -12t-200 -2.5h-528zM657 502h183q328 0 500.5 95.5t228.5 301.5q26 98 26 176 q0 125 -68 199q-110 118 -417 119h-215z" />
<glyph unicode="E" horiz-adv-x="1832" d="M154 0l518 1712l1138 37l-155 -285l-735 -39l-99 -368l553 24l-80 -305l-557 -35l-78 -286h732l-19 -455h-1218z" />
<glyph unicode="F" horiz-adv-x="1685" d="M154 0l555 1722l987 33l-74 -272l-666 -41l-110 -273l588 -2l-95 -348h-583l-183 -819h-419z" />
<glyph unicode="G" horiz-adv-x="2322" d="M336 452q-2 32 -2 65q0 148 49 341q40 150 88 267t115.5 222.5t155.5 180.5t202.5 130t263 82t330.5 27q86 0 274.5 -21t210.5 -22l-22 -354q-192 60 -506 60q-143 0 -251.5 -30.5t-198 -100.5t-154.5 -187t-111 -287q-20 -88 -24 -152q-2 -17 -2 -33q0 -44 10 -81 q12 -50 42 -81.5t83.5 -52t124.5 -28.5t172 -8q186 0 301 62l61 137l-284 41l39 301l718 -90l-20 -318l-152 21l-88 -422q-81 -63 -297 -111.5t-434 -48.5q-208 0 -355 51.5t-236 161t-103 278.5z" />
<glyph unicode="H" horiz-adv-x="2103" d="M154 0l516 1741h348l-215 -940h602l283 940h348l-394 -1741h-479l107 356h-570l-82 -356h-464z" />
<glyph unicode="I" horiz-adv-x="1058" d="M158 18q171 445 303.5 954t175.5 787l362 -37q-263 -829 -405 -1740z" />
<glyph unicode="J" horiz-adv-x="1808" d="M57 -362l201 450l197 -61q25 -7 49.5 -11t61.5 -6h16q28 0 53 4q33 5 71.5 20.5t70.5 41.5t62.5 70t51.5 102l545 1493h379l-617 -1657q-59 -155 -139 -260.5t-177.5 -159.5t-203.5 -70q-56 -9 -117 -9q-55 0 -115 7z" />
<glyph unicode="K" horiz-adv-x="2103" d="M154 0l653 1741h344l-268 -692l577 692h426l-872 -1000l628 -739h-700l-254 459l-123 -461h-411z" />
<glyph unicode="L" horiz-adv-x="1789" d="M154 0l563 1741h334l-398 -1356l789 35l-113 -420h-1175z" />
<glyph unicode="M" horiz-adv-x="2334" d="M154 -2l530 1743h426l129 -942l623 942h405l-393 -1743h-488l388 1075l-568 -993h-313l-90 985l-203 -1067h-446z" />
<glyph unicode="N" horiz-adv-x="2072" d="M152 -4l581 1657h369l235 -1127l416 1213h324l-559 -1743h-459l-162 1038l-238 -1038h-507z" />
<glyph unicode="O" horiz-adv-x="2277" d="M321 514q10 144 62 340q113 418 396 660.5t661 242.5q187 0 329 -69t218.5 -193.5t92.5 -298.5q3 -36 4 -73q0 -143 -50 -308q-52 -175 -103.5 -300t-117.5 -224.5t-141 -161.5t-178 -103q-102 -40 -223 -56q-114 -15 -263 -15h-19q-187 1 -317 33.5t-212.5 99 t-115.5 174.5q-25 82 -25 186q0 32 2 66zM731 817q-22 -80 -21 -141q0 -90 48 -136q80 -77 336 -77q255 0 395.5 93.5t196.5 297.5q39 148 39 263q1 113 -37 195q-76 165 -291 165t-401.5 -184t-264.5 -476z" />
<glyph unicode="P" horiz-adv-x="1822" d="M152 -4l567 1743h457q184 0 311 -72.5t177 -196.5q30 -75 30 -160q0 -56 -13 -118q-23 -107 -82.5 -201.5t-149.5 -167.5t-215.5 -119t-270.5 -53l-224 -10l-129 -645h-458zM844 1087l223 11q73 3 123.5 13.5t96.5 34.5t75.5 69t44.5 112q3 15 3 29q0 51 -46 81 q-59 38 -221 38h-195z" />
<glyph unicode="Q" horiz-adv-x="2394" d="M343 492q-2 29 -2 58q0 157 54 349q68 255 224.5 457t369.5 315t443 113q181 0 316.5 -67t208.5 -188.5t89 -290.5q4 -38 4 -77q0 -138 -45 -299q-61 -226 -160 -395t-264 -320l277 -428h-682l-144 256q-43 -3 -84 -3q-163 0 -285 46q-152 56 -230 176t-90 298zM712 612 q5 -41 19.5 -69.5t36.5 -41t47.5 -20t53.5 -6t54 0.5q10 1 15 1l96 2l123 187q180 -125 322 -125q17 0 49 43.5t70 129t65 185.5q38 145 38 256q0 106 -35 180q-73 150 -284 150q-104 0 -205.5 -49t-185 -133t-148 -198t-98.5 -243q-22 -82 -30 -146q-5 -39 -5 -70 q0 -19 2 -34z" />
<glyph unicode="R" horiz-adv-x="1933" d="M156 8l575 1733h436q285 -1 403 -141q73 -86 73 -224q0 -88 -29 -196q-36 -137 -104 -225.5t-185 -139.5q50 -59 81 -158t36 -196l33 -453h-545l141 451q17 54 17 98.5t-18.5 76.5t-62.5 36h-10q-42 0 -106 -25l-135 -45l-119 -592h-481zM793 1006h200q51 0 87.5 4 t81 19.5t76.5 43t62 78t48 121.5q18 60 24 100q3 17 2 32q0 20 -5 36q-9 26 -19 40.5t-45 21.5t-61 8t-85 1h-231z" />
<glyph unicode="S" horiz-adv-x="2125" d="M190 139l359 357q20 -21 136 -74.5t220 -83.5q85 -23 157 -23q17 -1 33 1q85 6 148.5 38t100.5 70t47 74q1 5 1 10q0 30 -44 66q-52 42 -115.5 70.5t-99.5 35.5l-125 27q-399 85 -399 388q0 71 22 154q69 254 261.5 387t485.5 133q125 0 277 -23.5t207 -45.5l-201 -283 q-66 25 -160.5 41.5t-146.5 16.5q-61 0 -147.5 -37.5t-155 -92.5t-80.5 -100q-8 -28 -8 -51q0 -42 23 -70q36 -46 173 -75l123 -27q286 -62 422 -218q96 -111 96 -246q0 -55 -16 -114q-60 -223 -289.5 -345t-615.5 -122q-454 0 -689 162z" />
<glyph unicode="T" horiz-adv-x="2111" d="M520 1370l98 369h1498l-99 -369l-569 23l-330 -1397h-434l418 1397z" />
<glyph unicode="U" horiz-adv-x="2068" d="M314 320q2 62 13.5 142.5t34.5 178.5l259 1100h446l-291 -959q-15 -49 -24.5 -82t-16.5 -66.5t-9 -54t1.5 -41t10.5 -31.5t23 -21.5t34 -15t48.5 -8t62 -4.5t77.5 -1q73 0 124 5.5t93.5 22t70.5 41t52.5 67t42 95.5t35.5 131l215 922h459l-357 -1137 q-49 -155 -98.5 -264.5t-100 -177t-106.5 -106.5t-117 -53q-62 -13 -134 -17q-33 -2 -69 -2q-41 0 -84 2q-78 2 -120 2h-76q-32 -1 -62 -1q-23 1 -45 1q-51 2 -97.5 4t-86.5 11t-73 24t-59 40t-44 59t-26 83q-7 42 -7 93q1 9 1 18z" />
<glyph unicode="V" horiz-adv-x="2269" d="M621 1741h354l147 -1100h23l780 1100h350l-1032 -1741h-545z" />
<glyph unicode="W" horiz-adv-x="2867" d="M522 0l96 1737h418l-43 -1114l508 649h266l125 -668l578 1133h401l-882 -1737h-453l-61 657l-435 -657h-518z" />
<glyph unicode="X" horiz-adv-x="2248" d="M154 0l831 850l-291 891h357l243 -576l566 576h335l-772 -879l365 -862h-524l-162 498l-438 -498h-510z" />
<glyph unicode="Y" horiz-adv-x="2154" d="M621 1741h368l197 -772l606 772h369l-887 -1196l-125 -547h-483l190 547z" />
<glyph unicode="Z" horiz-adv-x="2172" d="M154 0l106 399l1186 947l-641 12l-74 383h1448l-88 -328l-1049 -967l623 3l23 -449h-1534z" />
<glyph unicode="[" horiz-adv-x="964" d="M-84 -702l918 2908h6h608l-70 -256h-321l-723 -2288h348l-100 -364h-363l-2 -7z" />
<glyph unicode="\" horiz-adv-x="966" d="M453 1294l213 488l184 -1825l-334 -483z" />
<glyph unicode="]" horiz-adv-x="964" d="M-483 2206h608h6l918 -2908l-301 -7l-3 7h-362l-100 364h348l-723 2288h-322z" />
<glyph unicode="^" horiz-adv-x="1138" d="M313 1391l271 358l63 152h158l133 -152l457 -358h-262l-330 190l-228 -190h-262z" />
<glyph unicode="_" horiz-adv-x="1386" d="M-141 -446l112 296l1391 -4l-111 -297z" />
<glyph unicode="`" horiz-adv-x="911" d="M457 1583h317l389 -373l-446 35z" />
<glyph unicode="a" horiz-adv-x="1736" d="M299 543q40 132 101.5 244.5t140 197t177.5 131.5q95 45 197 45h9q66 -1 142 -26.5t124 -59.5l27 76h237l-180 -1155h-303l30 67q-155 -104 -358 -104q-255 1 -341 157q-44 79 -44 188q0 105 41 239zM469 400q-2 -15 8.5 -28.5t23.5 -19t44.5 -9.5t61.5 -4.5t83 -0.5 q232 0 322 66q89 64 88 220v7q-1 22 0 57t1 55.5t-2.5 48t-9.5 43.5t-21 34.5t-36 28t-55.5 16t-77.5 6.5q-39 0 -73 -12t-78.5 -46t-96.5 -106t-110 -181q-24 -46 -39 -75.5t-23 -57t-10 -42.5z" />
<glyph unicode="b" horiz-adv-x="1773" d="M334 199q-1 9 -1 22q1 63 33 237q40 208 123 608t136 693l315 -18l-186 -690q15 53 111 92.5t212 42.5h10q139 0 234 -84q99 -88 133 -236q17 -74 18 -155q0 -82 -18 -170q-53 -277 -219 -413t-455 -163q-47 -4 -89 -4q-133 1 -225 43q-120 56 -132 195zM684 428.5 q3 -25.5 14.5 -39t40 -21.5t63.5 -10q25 -2 62 -2h31q226 18 334 267q17 67 17 118q0 162 -171 162q-115 0 -209.5 -90t-148.5 -240q-19 -51 -27.5 -85t-5.5 -59.5z" />
<glyph unicode="c" horiz-adv-x="1601" d="M280 334q-2 22 -2 46q0 91 31 198q82 311 284 474q187 151 451 151q21 0 43 -1q67 -3 141.5 -24t78.5 -41l-39 -230q-74 25 -132 31q-34 4 -74 4q-27 0 -56 -2q-75 -4 -130.5 -21t-95 -45.5t-70.5 -79t-52.5 -107.5t-45.5 -144q-9 -46 -9 -85q1 -42 11 -76q20 -64 68 -90 q29 -15 68 -16q26 0 58 7q78 17 171 79l182 -282q-125 -59 -202.5 -75.5t-190.5 -16.5q-156 0 -263.5 41.5t-161 118.5t-63.5 186z" />
<glyph unicode="d" horiz-adv-x="1798" d="M282 395q2 88 27 183q45 171 151 312t247 222.5t286 81.5q63 0 120.5 -17t88 -34t57 -25.5t43.5 9t33 69.5l174 545h295l-403 -1260l-103 -483l-305 8l56 80q-157 -77 -209.5 -95t-141.5 -18q-107 0 -188.5 33t-130.5 90t-74 134q-23 71 -23 152v13zM553 486.5 q-3 -31.5 3.5 -54t20 -36.5t39.5 -22t57.5 -11t78.5 -3q135 0 214.5 56t112.5 182q20 76 19.5 134t-19.5 98q-39 80 -145 79q-108 0 -217.5 -100t-149.5 -248q-11 -43 -14 -74.5z" />
<glyph unicode="e" d="M300 236q-21 65 -21 143q0 86 26 188v2q94 302 293 467.5t469 165.5l4 -2q223 -20 313 -174q63 -108 63 -287q0 -76 -11 -164l-865 -57q-2 -19 -3 -35q0 -81 57 -119q68 -45 233 -67q51 -7 98 -7q67 0 123 14q96 23 275 104l-68 -355q-242 -100 -493 -100 q-193 0 -321 73.5t-172 209.5zM709 805l530 53q-23 130 -197 137h-9q-89 1 -181 -55q-98 -58 -143 -135z" />
<glyph unicode="f" horiz-adv-x="1388" d="M287 -2l266 885h-164l80 293l170 18q82 283 184.5 386t302.5 103h234l-70 -264h-207q-47 0 -87.5 -48.5t-61 -106.5t-27.5 -111l336 23l-80 -293h-291l-204 -885h-381z" />
<glyph unicode="g" horiz-adv-x="1748" d="M41 -561l174 360q153 -92 348 -92q60 0 118.5 22.5t104.5 58.5t82.5 80t57 89.5t22.5 83.5l-22 -41q-104 -55 -258 -55q-114 0 -199.5 48.5t-131.5 134.5t-55 204q-2 24 -2 48q0 99 31 212q77 281 255.5 445.5t408.5 164.5q44 0 82.5 -9.5t61.5 -19.5t52 -35.5t39 -36.5 t37 -42l74 117h283l-328 -1055q-232 -744 -723 -744q-213 0 -512 62zM510 478.5q-4 -31.5 1.5 -58.5t13.5 -37.5t35.5 -18.5t54.5 -9t83 -1q167 0 242 52.5t113 195.5q26 99 26 169q0 55 -16 93q-37 84 -162 84q-124 0 -226 -102.5t-151 -278.5q-10 -57 -14 -88.5z" />
<glyph unicode="h" horiz-adv-x="1789" d="M152 -4l596 1745h294l-221 -643q79 50 145.5 65t170.5 15q115 0 187.5 -26.5t114 -87t43.5 -159.5v-14q0 -95 -24 -229l-131 -666l-407 18q235 493 287 660q25 81 25 133q0 50 -23 75q-35 38 -152 38q-71 0 -122.5 -14t-100.5 -52t-84.5 -103.5t-68.5 -171t-59 -253 t-51 -349.5z" />
<glyph unicode="i" horiz-adv-x="866" d="M96 14q10 30 29 86q80 238 117.5 353t91 296t115.5 412l266 -37q-106 -343 -165.5 -594.5t-88.5 -552.5zM520 1423l203 449h305l-59 -449h-449z" />
<glyph unicode="j" horiz-adv-x="1275" d="M193 -506l133 348q36 -15 52 -21.5t36.5 -10.5t26 -4.5t21 7.5t20 14t25 26t34.5 34q66 64 145.5 297.5t294.5 954.5l283 -19l-390 -1171q-76 -225 -107.5 -297t-82.5 -113q-55 -47 -175 -54q-37 -2 -80 -2q-100 0 -236 11zM1040 1462l158 336h236l-45 -336h-349z" />
<glyph unicode="k" horiz-adv-x="1832" d="M152 -4l583 1743h297l-317 -905l280 241h340l-497 -461l532 -618h-586l-194 344l-78 -344h-360z" />
<glyph unicode="l" horiz-adv-x="1202" d="M160 18q18 100 206 710.5t347 1030.5l278 -37q-74 -186 -181 -519.5t-171.5 -553t-110.5 -385.5l240 19l-27 -283z" />
<glyph unicode="m" horiz-adv-x="2502" d="M154 -2l460 1178h295l-32 -50q121 76 290 76h13q110 -1 193.5 -50t127.5 -120q97 98 195 140q72 31 152 32q28 0 57 -4q106 -14 184 -90t106 -192q14 -56 14 -118q0 -67 -16 -141l-151 -661h-395l247 670q32 89 38 142q1 11 1 20q0 38 -18 62q-22 28 -74 36q-21 3 -41 3 q-80 0 -142 -51q-78 -64 -151 -241l-266 -641h-371l316 678q36 77 36 132q0 95 -108 126q-17 5 -37 5q-35 1 -77 -15q-66 -24 -136.5 -96t-107.5 -175l-234 -655h-368z" />
<glyph unicode="n" horiz-adv-x="1775" d="M154 0l409 1194h230l-11 -82q137 75 318 80h22q208 0 288 -130q50 -83 50 -217q0 -88 -22 -198l-123 -647h-406l260 717q25 68 25 113q0 32 -13 53q-30 49 -143 49q-131 0 -236.5 -84t-131.5 -219l-115 -629h-401z" />
<glyph unicode="o" horiz-adv-x="1753" d="M304 287q-11 55 -11 118q0 105 31 230q77 284 265 443t449 159q129 0 226 -46.5t150 -130.5q54 -84 66 -202q3 -28 2 -58q0 -94 -30 -202q-80 -297 -268.5 -461t-452.5 -164q-174 0 -285.5 83.5t-141.5 230.5zM609 523v-14q1 -35 9 -58q10 -28 37.5 -43.5t63 -21 t90.5 -5.5q136 0 226.5 67t129.5 220q21 79 21 140q0 60 -20 100q-42 82 -162 83q-122 0 -228 -101t-149 -259q-16 -64 -18 -108z" />
<glyph unicode="p" horiz-adv-x="1916" d="M-4 -588l360 785q79 169 136.5 373t123.5 593l281 -18l-8 -70q141 113 336 113h20q111 -3 196.5 -52.5t132 -135.5t56.5 -204q2 -24 2 -49q0 -97 -30 -206q-77 -288 -248 -446t-414 -158q-174 0 -297 106l-262 -608zM842 448v-9q0 -39 20 -64q23 -28 66.5 -36.5 t124.5 -8.5q147 0 221.5 62.5t116.5 217.5q27 106 27 176q0 56 -16 90q-38 78 -163 78q-123 0 -223 -99t-150 -282q-21 -80 -24 -125z" />
<glyph unicode="q" horiz-adv-x="1978" d="M288 244q-10 51 -10 110q0 102 31 224q74 281 249 442t407 170h19q93 0 159 -36q72 -41 125 -126l49 148h295l-293 -799l-139 -447l73 21l275 88l-117 -369l-639 -172l195 498q-130 -59 -301 -59q-151 0 -250.5 82t-127.5 225zM516 418q3 -28 14.5 -42.5t37.5 -24 t59.5 -12.5t87.5 -3q157 0 233.5 58.5t116.5 209.5q26 95 26 164q0 184 -182 184q-122 0 -222.5 -104.5t-147.5 -280.5q-14 -53 -20 -87t-3 -62z" />
<glyph unicode="r" horiz-adv-x="1484" d="M158 14q160 329 237 545t189 631l293 -29l-29 -53q81 41 161.5 53t256.5 19l-9 -310q-78 12 -142 16q-18 1 -35 1q-43 0 -79 -6q-50 -9 -88.5 -23.5t-68.5 -43t-51 -57.5t-39 -74t-30 -85t-26 -98q-24 -103 -34.5 -182t-30.5 -341z" />
<glyph unicode="s" horiz-adv-x="1751" d="M184 117l326 278q41 -48 97 -75t159 -37q26 -3 50 -3q141 0 200 101q15 27 19 47.5t-5 33.5t-23 21.5t-39 15t-48.5 11t-57 11t-59.5 14.5q-140 43 -216 147q-52 71 -52 158q0 41 12 86q12 46 31.5 82t57 71.5t90.5 59t136 37.5q73 12 163 12h26q88 -2 194.5 -20.5 t173.5 -47.5l-102 -186q-37 25 -88.5 39.5t-80.5 18t-95 9.5q-22 4 -47 4q-18 0 -38 -2q-48 -5 -90 -17t-75.5 -48.5t-42.5 -91.5q-5 -29 11.5 -48.5t52.5 -31.5t73 -19.5t91 -17.5t89 -20q75 -21 132.5 -54.5t89.5 -71t52.5 -76.5t26 -76t5 -63.5t-6.5 -43.5 q-24 -74 -74.5 -137.5t-129 -115.5t-193.5 -82.5t-254 -31.5h-15q-162 1 -304 43q-150 44 -222 117z" />
<glyph unicode="t" horiz-adv-x="1601" d="M395 903l174 248h197l102 309l332 105l-131 -414h315l-2 -248h-391l-186 -586h334v-317q-564 0 -584 2q-68 6 -85 51q-7 19 -7 42q0 33 14 75q2 7 30 108.5t77.5 274.5t103.5 350h-293z" />
<glyph unicode="u" d="M324 457l145 719h264l-110 -582q-13 -65 -15 -104q-1 -13 -1 -25q0 -25 4 -43q5 -28 26 -43.5t50 -24t81 -14.5q24 -3 46 -3q26 1 48 5q40 8 84 40.5t83 103t75 182.5l160 508h288l-270 -1176h-338l23 29q-60 -36 -133 -50t-179 -14q-227 0 -305 120q-47 72 -47 192 q0 79 21 180z" />
<glyph unicode="v" horiz-adv-x="2002" d="M469 1176h313l197 -754l563 754h316l-644 -897l-118 -281h-471l8 281z" />
<glyph unicode="w" horiz-adv-x="2260" d="M461 -55l8 1231h317l11 -637l333 383h189l104 -383l375 637h318l-652 -1231h-331l-84 325l-265 -325h-323z" />
<glyph unicode="x" horiz-adv-x="1996" d="M154 -2l686 612l-230 545h338l158 -309l346 309h330l-557 -543l311 -614h-438l-148 348l-356 -348h-440z" />
<glyph unicode="y" horiz-adv-x="1882" d="M104 -584l95 355h170q51 0 117 25.5t123.5 66t90.5 99.5q25 42 25 84q0 16 -4 32l-258 1073h323l226 -702l407 702h312l-813 -1401q-90 -153 -242 -243.5t-334 -90.5h-238z" />
<glyph unicode="z" horiz-adv-x="1794" d="M154 -2l143 299l854 635h-555l66 248h937l-14 -211l-827 -666h487l88 -305h-1179z" />
<glyph unicode="{" horiz-adv-x="1456" d="M229 444l27 91l29 182l22 -4l19 65l98 2q53 3 76 7.5t46.5 25.5t36.5 52.5t35 99.5l74 239q27 82 53.5 139.5t62.5 102.5t77 72t100 45t127 25t164 9h209l-119 -251l-96 -3q-47 -3 -76.5 -6.5t-55.5 -12.5t-41 -20t-30 -34t-25 -48.5t-24 -68.5l-78 -248 q-44 -137 -99.5 -212t-133.5 -111q49 -43 55 -115t-25 -186l-80 -250q-6 -27 -9.5 -40t-4 -29t-1 -22t9 -13.5t13.5 -9t25.5 -3.5t33 -2h46.5h137l-71 -320l-164 7q-108 2 -180.5 18t-119.5 48t-65.5 85t-13.5 126t33 175l75 236q30 119 31 131q1 22 -19 25q-7 1 -51 1h-133 z" />
<glyph unicode="|" horiz-adv-x="802" d="M150 -362l552 1851h254l-553 -1851h-253z" />
<glyph unicode="}" horiz-adv-x="1431" d="M-16 -408l125 320h137q95 0 117 9q26 10 45 54q7 16 22 56l74 250q42 120 90.5 189t124.5 112q-55 36 -64 109.5t29 213.5l74 248q12 43 17.5 68.5t4.5 48.5t-8.5 34t-28 20t-48 12.5t-72.5 6.5l-97 3l37 251h209q94 -2 157.5 -9t112 -25t72.5 -45t32.5 -72t0 -102.5 t-32.5 -139.5l-74 -239q-10 -34 -15.5 -56t-8 -42.5t-2.5 -32t5.5 -22t12 -15t21.5 -8.5t29.5 -5.5t39.5 -3.5l99 -2l-21 -65l23 4l-78 -172l-33 -101h-133h-16q-44 0 -57 -9q-15 -12 -39 -81q-2 -7 -7 -21q-10 -29 -16 -46l-70 -236q-57 -170 -134 -265.5t-192 -139 t-296 -47.5z" />
<glyph unicode="~" horiz-adv-x="958" d="M432 1208q70 208 131.5 274t192.5 66q42 0 73.5 -21t49 -51t31 -60.5t25.5 -51.5t26 -21q101 0 88 205h145l51 -73q-32 -111 -57.5 -174.5t-61 -104.5t-79 -54.5t-111.5 -11.5q-44 1 -77 23t-50.5 54t-30.5 63.5t-24.5 53.5t-24.5 22q-93 0 -80 -216h-168z" />
<glyph unicode="&#xa1;" horiz-adv-x="1050" d="M274 -317l222 1316l393 252l-309 -1329zM655 1694l41 559h559l-219 -559h-381z" />
<glyph unicode="&#xa2;" horiz-adv-x="1601" d="M309 578q69 261 224 419t378 195l72 352h174l-70 -342q67 -3 141.5 -24t78.5 -41l-39 -230q-112 39 -236 35l-127 -623q27 13 74 43l182 -282q-104 -50 -174.5 -68.5t-148.5 -21.5l-62 -297h-174l62 301q-248 26 -336 178.5t-19 405.5zM612 543q-21 -114 8.5 -183 t102.5 -81l131 632q-94 -35 -145.5 -119t-96.5 -249z" />
<glyph unicode="&#xa3;" horiz-adv-x="1415" d="M94 -55l74 329q214 68 301.5 117t105.5 117l-2 115h-311l66 221h243l-4 237q-9 196 17.5 284.5t124.5 147.5q144 87 284 118.5t255.5 8.5t205 -99t137.5 -198l-221 -34q-110 112 -260.5 107.5t-271.5 -109.5q-66 -59 -54 -181l29 -282h545l-66 -221h-450 q33 -246 -99 -371q56 -2 131.5 -10.5t129.5 -16t219 -32.5l118 -248h-1247z" />
<glyph unicode="&#xa4;" horiz-adv-x="1372" d="M190 393l226 187q-13 84 8 170q29 117 98 206l-102 125l299 238l100 -150q71 25 172 25q73 0 156 -37l215 162l168 -238l-191 -157q27 -113 0 -211q-25 -102 -69 -166l121 -154l-297 -237l-107 151q-88 -39 -213 -39q-96 0 -192 56l-222 -168zM731 764q-19 -66 10 -103.5 t95 -37.5q64 0 133 56t88 122q17 64 -12 101.5t-95 37.5q-65 0 -133.5 -55t-85.5 -121z" />
<glyph unicode="&#xa5;" horiz-adv-x="1564" d="M217 47l182 256l258 16l62 203l-379 -14l182 256l275 16l12 43l-338 725h350l269 -409l485 409h352l-737 -727l-4 -16l215 12l29 -268l-324 -12l-59 -195l231 14l29 -268l-338 -12l-82 -273h-383l78 258z" />
<glyph unicode="&#xa6;" horiz-adv-x="802" d="M143 -307l222 743l235 88l-235 -782zM479 815l185 619l221 49l-183 -613z" />
<glyph unicode="&#xa7;" horiz-adv-x="1536" d="M119 -23l243 244q14 -14 94 -50t150 -56q95 -28 167 -10t114 51t51 67q9 33 -61.5 75t-114.5 50l-86 19q-334 71 -258 370q37 135 127 221t227 117q-28 80 0 189q42 158 169.5 242.5t318.5 84.5q112 0 201.5 -57t148.5 -158l-158 -192q-32 113 -72.5 148.5t-134.5 35.5 q-99 0 -174 -36.5t-88 -84.5q-9 -34 25.5 -57.5t119.5 -42.5l78 -17q338 -71 287 -370q-21 -124 -102.5 -227.5t-198.5 -161.5q39 -82 14 -185q-41 -152 -197.5 -235.5t-420.5 -83.5q-307 0 -469 110zM645 696q50 -31 136 -44.5t251 -14.5q106 0 168.5 25.5t81.5 85.5 q16 50 -34 72q-24 11 -126 32q-46 9 -104 27q-67 12 -107 12q-64 0 -156 -54.5t-104 -103.5q-6 -21 -6 -37z" />
<glyph unicode="&#xa8;" horiz-adv-x="1091" d="M377 1249l203 449h305l-60 -449h-448zM934 1249l203 449h305l-60 -449h-448z" />
<glyph unicode="&#xa9;" horiz-adv-x="1376" d="M659 1544q49 181 203.5 300.5t337.5 119.5q71 0 134 -24.5t107 -67.5t73.5 -100.5t33.5 -124.5t-14 -140q-49 -184 -202.5 -305t-338.5 -121q-121 0 -209.5 63.5t-122.5 170.5t-2 229zM827 1507q-29 -108 23.5 -176.5t161.5 -68.5q108 0 216.5 86.5t137.5 195.5 q29 110 -22 179t-160 69q-110 0 -218 -86t-139 -199zM846 1520q31 99 105.5 150.5t181.5 47.5q25 -2 51.5 -8t27.5 -12l-14 -74q-44 13 -96 10q-65 -1 -93.5 -29t-50.5 -96q-14 -62 25.5 -79t108.5 22l67 -90q-46 -19 -74 -24t-69 -5q-114 0 -155.5 49.5t-14.5 137.5z" />
<glyph unicode="&#xaa;" horiz-adv-x="1343" d="M709 1149q45 145 131 235t196 89q34 -1 74.5 -14.5t65.5 -31.5l14 39h123l-94 -604h-158l16 35q-79 -53 -188 -53q-133 0 -177.5 81.5t-2.5 223.5zM800 1079.5q-2 -15.5 2 -22t20.5 -11t35 -5.5t55.5 -1q121 0 168 34.5t47 119.5q0 12 0.5 39t-0.5 37.5t-6 29t-16 26 t-31.5 14t-50.5 6.5q-44 0 -87.5 -36.5t-100.5 -144.5q-17 -32 -25.5 -51t-10.5 -34.5z" />
<glyph unicode="&#xab;" horiz-adv-x="1699" d="M213 455l96 153l680 463l-92 -293l-356 -241l209 -265l-154 -313zM811 455l96 153l680 463l-92 -293l-356 -241l209 -265l-154 -313z" />
<glyph unicode="&#xac;" horiz-adv-x="1251" d="M233 465l80 299l987 -82v-2l-139 -619h-332l97 379z" />
<glyph unicode="&#xad;" horiz-adv-x="1228" d="M231 492l66 243h1030l-65 -243h-1031z" />
<glyph unicode="&#xae;" horiz-adv-x="1376" d="M731 1810q49 181 202.5 300.5t336.5 119.5q71 0 134 -24.5t107 -67t73.5 -100.5t34 -124.5t-12.5 -139.5q-49 -184 -202.5 -305t-338.5 -121q-121 0 -210 63t-123 170t-1 229zM899 1636l100 301q-77 -77 -100 -163q-21 -80 0 -138zM995 1542q40 -14 86 -14q39 0 86 14 h-73l41 131q10 33 -3 51.5t-51 1.5l-39 -12l-34 -172h-13zM1053 1831h59q25 0 41.5 4t34.5 22t26 52q13 49 2 59t-57 10h-67zM1167 2044q79 -2 112.5 -41.5t10.5 -120.5q-18 -78 -84 -106q31 -36 35 -103l8 -94q69 41 120 102t69 129q29 110 -22.5 179t-160.5 69 q-45 0 -88 -14z" />
<glyph unicode="&#xaf;" horiz-adv-x="1052" d="M436 1253l146 189l698 39l23 -197z" />
<glyph unicode="&#xb0;" horiz-adv-x="1376" d="M539 1094q47 180 200.5 298.5t339.5 120.5q119 1 208 -62t123.5 -169t2.5 -225q-49 -184 -202.5 -305t-338.5 -121q-121 0 -209.5 63.5t-122 170.5t-1.5 229zM823 1087q-17 -66 13 -104.5t98 -38.5q67 0 138.5 57t88.5 123q19 68 -10.5 107t-97.5 39t-139.5 -57 t-90.5 -126z" />
<glyph unicode="&#xb1;" horiz-adv-x="1673" d="M16 -283l183 224l878 45l29 -234zM358 563l70 209l412 -2l108 322h283l-109 -324l357 -2l-70 -209l-356 2l-105 -309h-282l104 311z" />
<glyph unicode="&#xb2;" horiz-adv-x="655" d="M748 950l63 142q15 32 51.5 60.5t122.5 74.5q58 32 101.5 64t62.5 51.5t43 48.5q26 34 31 55q25 88 -80 88q-65 0 -242 -78l39 156q132 49 221 49q19 0 41.5 -3t57.5 -16.5t60 -35.5t38.5 -66.5t3.5 -103.5q-28 -147 -264 -336l176 6l-27 -156h-499z" />
<glyph unicode="&#xb3;" horiz-adv-x="690" d="M737 950l101 187q83 -36 151 -39q48 -3 103 15.5t61 41.5q11 42 -16 65t-88 23h-101l-20 -2v2h-6l20 43l12 41h7l20 43h106q70 0 113.5 27t54.5 71q13 49 -15 64.5t-105 15.5q-33 0 -68 -5.5t-60.5 -11.5t-103.5 -26l55 127q122 31 201 31q120 0 178.5 -61t32.5 -156 q-12 -49 -42 -83t-85 -58q51 -23 64 -68t-7 -113q-12 -45 -30.5 -80t-38.5 -58t-48.5 -39t-52 -24.5t-58 -13t-57.5 -5.5t-59 -1q-71 0 -113.5 10t-105.5 37z" />
<glyph unicode="&#xb4;" horiz-adv-x="587" d="M379 1133l323 426h216l-254 -426h-285z" />
<glyph unicode="&#xb5;" d="M-23 -258l424 1102l68 332h61v2h254l-100 -260l-61 -324q-12 -65 -14.5 -104t2.5 -67.5t26 -44t50 -24t81 -14.5q54 -7 94.5 1.5t84 41t82.5 103t75 182.5l160 508h288l-270 -1176h-338l23 29q-60 -36 -133 -50t-179 -14q-215 0 -297 107l-127 -330h-254z" />
<glyph unicode="&#xb6;" horiz-adv-x="1536" d="M172 -281l465 998q-90 54 -130.5 157.5t-8.5 219.5q44 162 188 268t295 94l8 19h262l-596 -1756h-483zM946 -281l436 1754h269l-437 -1754h-268z" />
<glyph unicode="&#xb7;" horiz-adv-x="534" d="M182 524l203 449h305l-59 -449h-449z" />
<glyph unicode="&#xb8;" horiz-adv-x="669" d="M-31 -535l76 226q55 -13 73.5 -15t74.5 -2q92 0 102 35q0 1 1 4q4 17 -1 18q-4 1 -18 0q-20 -1 -35 -1q-34 0 -211 -25l194 350h185l-88 -164h-48q120 0 178 -70t17 -167q-84 -189 -305 -189h-195z" />
<glyph unicode="&#xb9;" horiz-adv-x="626" d="M760 946l43 160l135 2l133 416l-139 -66l51 156q128 69 184 69h93l-154 -573l160 -4l-43 -160h-463z" />
<glyph unicode="&#xba;" horiz-adv-x="1355" d="M723 1178q38 147 135.5 229t233.5 82q135 0 194 -92t19 -238q-41 -154 -139 -238.5t-234 -84.5q-135 0 -192.5 94t-16.5 248zM879 1176q-21 -79 1 -104t93 -25q145 0 184 147q22 83 0 125.5t-84 42.5q-63 0 -117 -52t-77 -134z" />
<glyph unicode="&#xbb;" horiz-adv-x="1523" d="M-279 1071l680 -463l97 -153l-383 -496l-154 313l209 265l-356 241zM319 1071l680 -463l97 -153l-383 -496l-154 313l209 265l-356 241z" />
<glyph unicode="&#xbc;" horiz-adv-x="2656" d="M207 702l59 226l191 4l186 581l-197 -90l72 217q182 97 258 97h129l-215 -803l223 -6l-59 -226h-647zM473 -147l1536 1742h256l-1454 -1742h-338zM1315 166l35 127l45 47h2l592 594l159 10l-127 -586l125 4l-57 -217l-115 2l-53 -243h-262l80 252zM1591 346l211 6 l107 334z" />
<glyph unicode="&#xbd;" horiz-adv-x="2656" d="M207 702l59 226l191 4l186 581l-197 -90l72 217q182 97 258 97h129l-215 -803l223 -6l-59 -226h-647zM473 -147l1536 1742h256l-1454 -1742h-338zM1497 -113l94 211q22 45 76 87.5t180 111.5q125 69 191.5 125.5t113.5 116.5q38 48 48 84q38 129 -119 129 q-58 0 -136 -25.5t-221 -89.5l58 229q191 74 327 74q27 0 60 -4.5t84.5 -24.5t88 -53.5t57 -99t5.5 -152.5q-40 -214 -389 -493l260 8l-41 -234h-737z" />
<glyph unicode="&#xbe;" horiz-adv-x="2656" d="M199 731l143 264q111 -49 213 -57q67 -3 144.5 24.5t86.5 57.5q15 60 -23 91.5t-124 31.5h-180l30 67l17 52l8 2l29 59h151q97 0 158.5 38.5t77.5 100.5q18 68 -22 89.5t-148 21.5q-46 0 -94.5 -7.5t-88 -16.5t-143.5 -36l78 179q169 45 283 45q168 0 250 -85.5 t47 -221.5q-19 -70 -61.5 -118t-119.5 -81q72 -32 91 -94t-9 -160q-13 -49 -32 -90t-39.5 -71.5t-48 -54t-52.5 -39t-59 -26.5t-60.5 -16.5t-64.5 -9t-63 -4t-64 -0.5q-101 0 -162 14t-149 51zM473 -147l1536 1742h256l-1454 -1742h-338zM1315 166l35 127l45 47h2l592 594 l159 10l-127 -586l125 4l-57 -217l-115 2l-53 -243h-262l80 252zM1591 346l211 6l107 334z" />
<glyph unicode="&#xbf;" horiz-adv-x="1353" d="M-42 -540.5q1 100.5 36 218.5q114 390 545 580q48 178 56.5 217.5t10.5 83.5q156 61 287.5 96.5t189.5 24.5q-8 -18 -25.5 -57.5t-25 -56t-21 -49t-21.5 -54.5t-19 -53.5t-21 -63.5q-4 -11 -51 -190l-49 -86q-64 -21 -101 -34t-87 -31.5t-78.5 -32.5t-66 -33.5t-60 -38.5 t-48.5 -44t-44 -53t-35 -62t-31 -75q-91 -269 -12 -366q62 -68 184 -54.5t252.5 72t220.5 133.5q51 -103 139 -211q-270 -197 -504.5 -239t-420.5 73q-59 37 -101.5 88.5t-71 124t-27.5 173zM831 1010l60 448h448l-202 -448h-306z" />
<glyph unicode="&#xc0;" horiz-adv-x="2281" d="M152 -4l1159 1745h288l220 -1745h-449l8 266h-641l-153 -266h-432zM944 641h434l-32 702zM1124 2302h318l389 -373l-447 35z" />
<glyph unicode="&#xc1;" horiz-adv-x="2281" d="M152 -4l1159 1745h288l220 -1745h-449l8 266h-641l-153 -266h-432zM944 641h434l-32 702zM1405 2218l324 426h215l-254 -426h-285z" />
<glyph unicode="&#xc2;" horiz-adv-x="2281" d="M152 -4l1159 1745h288l220 -1745h-449l8 266h-641l-153 -266h-432zM860 1858l270 358l64 151h158l133 -151l457 -358h-263l-329 190l-228 -190h-262zM944 641h434l-32 702z" />
<glyph unicode="&#xc3;" horiz-adv-x="2281" d="M152 -4l1159 1745h288l220 -1745h-449l8 266h-641l-153 -266h-432zM944 641h434l-32 702zM1151 1999q70 208 131.5 274t192.5 66q42 0 73.5 -21t49 -51.5t30.5 -60.5t25 -51t26 -21q101 0 88 205h146l51 -74q-31 -111 -57 -174.5t-61.5 -104.5t-79 -54t-111.5 -11 q-44 1 -77 23t-50.5 53.5t-30.5 63t-24.5 53.5t-24.5 22q-93 0 -80 -215h-168z" />
<glyph unicode="&#xc4;" horiz-adv-x="2281" d="M152 -4l1159 1745h288l220 -1745h-449l8 266h-641l-153 -266h-432zM944 641h434l-32 702zM1024 1987l203 448h305l-59 -448h-449zM1581 1987l203 448h305l-59 -448h-449z" />
<glyph unicode="&#xc5;" horiz-adv-x="2281" d="M152 -4l1159 1745h288l220 -1745h-449l8 266h-641l-153 -266h-432zM944 641h434l-32 702zM1350 2220q28 103 106.5 167t177.5 64q100 0 156.5 -82.5t28.5 -185.5q-28 -104 -107.5 -168.5t-179.5 -64.5t-155.5 83t-26.5 187zM1524 2171.5q0 -0.5 3 -1t6.5 0.5t11.5 1.5 t16 0.5q37 0 55 16.5t29 57.5q5 22 0.5 28t-25.5 6q-20 0 -49 -24.5t-35 -46.5q-2 -9 -5 -17t-4.5 -11.5t-2 -6.5t-0.5 -3.5z" />
<glyph unicode="&#xc6;" horiz-adv-x="2791" d="M152 -4l1409 1708h186l2 8l1139 37l-156 -285l-735 -39l-99 -368l553 24l-79 -305l-539 -33l-6 -288h641l-19 -455h-630v-4h-449v4h-139l78 256h-535l-190 -260h-432zM1036 627h385l74 243l43 445z" />
<glyph unicode="&#xc7;" horiz-adv-x="1968" d="M329.5 463q-8.5 101 12.5 222t72 243q72 171 167.5 309t199 231t220 157.5t229 95t228.5 36.5q217 10 508 -43l-145 -383q-136 32 -225.5 40t-202.5 -3q-212 -24 -351.5 -148t-205.5 -313q-49 -140 -42.5 -231t92 -134.5t267.5 -43.5q244 0 457 96l-111 -598h-424 l-55 -102h-47q120 0 177.5 -70.5t16.5 -167.5q-83 -188 -305 -188h-194l75 225q55 -13 73.5 -15t74.5 -2q92 0 102 35q0 1 1 4q4 17 -1 18q-4 1 -18 0q-20 -1 -35 -1q-34 0 -211 -25l162 289h-146q-85 0 -158.5 34.5t-127.5 95.5t-87.5 148.5t-42 188.5z" />
<glyph unicode="&#xc8;" horiz-adv-x="1832" d="M154 0l518 1712l1138 37l-155 -285l-735 -39l-99 -368l553 24l-80 -305l-557 -35l-78 -286h732l-19 -455h-1218zM913 2386h318l389 -373l-446 35z" />
<glyph unicode="&#xc9;" horiz-adv-x="1832" d="M154 0l518 1712l1138 37l-155 -285l-735 -39l-99 -368l553 24l-80 -305l-557 -35l-78 -286h732l-19 -455h-1218zM1194 2302l324 426h215l-254 -426h-285z" />
<glyph unicode="&#xca;" horiz-adv-x="1832" d="M154 0l518 1712l1138 37l-155 -285l-735 -39l-99 -368l553 24l-80 -305l-557 -35l-78 -286h732l-19 -455h-1218zM649 1942l271 358l63 151h158l133 -151l457 -358h-263l-329 190l-228 -190h-262z" />
<glyph unicode="&#xcb;" horiz-adv-x="1832" d="M154 0l518 1712l1138 37l-155 -285l-735 -39l-99 -368l553 24l-80 -305l-557 -35l-78 -286h732l-19 -455h-1218zM813 2071l203 448h305l-59 -448h-449zM1370 2071l203 448h305l-59 -448h-449z" />
<glyph unicode="&#xcc;" horiz-adv-x="1058" d="M158 18q171 445 303.5 954t175.5 787l362 -37q-263 -829 -405 -1740zM537 2464h317l389 -373l-446 35z" />
<glyph unicode="&#xcd;" horiz-adv-x="1058" d="M158 18q171 445 303.5 954t175.5 787l362 -37q-263 -829 -405 -1740zM817 2380l324 426h215l-254 -426h-285z" />
<glyph unicode="&#xce;" horiz-adv-x="1058" d="M158 18q171 445 303.5 954t175.5 787l362 -37q-263 -829 -405 -1740zM272 2019l271 359l63 151h158l133 -151l457 -359h-262l-330 191l-227 -191h-263z" />
<glyph unicode="&#xcf;" horiz-adv-x="1058" d="M158 18q171 445 303.5 954t175.5 787l362 -37q-263 -829 -405 -1740zM436 2148l203 449h305l-59 -449h-449zM993 2148l203 449h305l-59 -449h-449z" />
<glyph unicode="&#xd0;" horiz-adv-x="2103" d="M4 705l66 243h338l213 793h497q497 0 685.5 -219t68.5 -664q-36 -135 -78.5 -244.5t-86.5 -193.5t-102 -148t-111.5 -109t-129.5 -75.5t-141.5 -48t-163 -27t-177.5 -12t-200 -2.5h-528l188 707h-338zM657 502h183q328 0 500.5 95.5t228.5 301.5q68 257 -42 375.5 t-417 118.5h-215l-119 -445h324l-66 -243h-323z" />
<glyph unicode="&#xd1;" horiz-adv-x="2072" d="M152 -4l581 1657h369l235 -1127l416 1213h324l-559 -1743h-459l-162 1038l-238 -1038h-507zM1130 2030q70 208 131.5 274t192.5 66q42 0 73.5 -21t49 -51t31 -60.5t25.5 -51.5t26 -21q101 0 88 205h145l52 -74q-31 -111 -57 -174.5t-62 -104.5t-79.5 -54t-111.5 -11 q-44 1 -77 23t-50.5 53.5t-30.5 63t-24.5 53.5t-24.5 22q-92 0 -79 -215h-168z" />
<glyph unicode="&#xd2;" horiz-adv-x="2277" d="M321 513.5q10 144.5 62 340.5q113 418 396 660.5t661 242.5q187 0 329 -69t218.5 -193.5t93 -298t-46.5 -381.5q-52 -175 -103.5 -300t-117.5 -224.5t-141 -161.5t-177.5 -103t-223.5 -56.5t-282 -14.5q-187 1 -317 33.5t-212.5 99t-115.5 174t-23 252zM731 817 q-54 -200 26.5 -277t336.5 -77q255 0 395.5 93.5t196.5 297.5q78 293 1.5 458t-290.5 165q-215 0 -401.5 -184t-264.5 -476zM1120 2316h318l389 -372l-447 34z" />
<glyph unicode="&#xd3;" horiz-adv-x="2277" d="M321 513.5q10 144.5 62 340.5q113 418 396 660.5t661 242.5q187 0 329 -69t218.5 -193.5t93 -298t-46.5 -381.5q-52 -175 -103.5 -300t-117.5 -224.5t-141 -161.5t-177.5 -103t-223.5 -56.5t-282 -14.5q-187 1 -317 33.5t-212.5 99t-115.5 174t-23 252zM731 817 q-54 -200 26.5 -277t336.5 -77q255 0 395.5 93.5t196.5 297.5q78 293 1.5 458t-290.5 165q-215 0 -401.5 -184t-264.5 -476zM1401 2232l323 426h215l-253 -426h-285z" />
<glyph unicode="&#xd4;" horiz-adv-x="2277" d="M321 513.5q10 144.5 62 340.5q113 418 396 660.5t661 242.5q187 0 329 -69t218.5 -193.5t93 -298t-46.5 -381.5q-52 -175 -103.5 -300t-117.5 -224.5t-141 -161.5t-177.5 -103t-223.5 -56.5t-282 -14.5q-187 1 -317 33.5t-212.5 99t-115.5 174t-23 252zM731 817 q-54 -200 26.5 -277t336.5 -77q255 0 395.5 93.5t196.5 297.5q78 293 1.5 458t-290.5 165q-215 0 -401.5 -184t-264.5 -476zM856 1872l270 358l64 152h158l133 -152l456 -358h-262l-329 190l-228 -190h-262z" />
<glyph unicode="&#xd5;" horiz-adv-x="2277" d="M321 513.5q10 144.5 62 340.5q113 418 396 660.5t661 242.5q187 0 329 -69t218.5 -193.5t93 -298t-46.5 -381.5q-52 -175 -103.5 -300t-117.5 -224.5t-141 -161.5t-177.5 -103t-223.5 -56.5t-282 -14.5q-187 1 -317 33.5t-212.5 99t-115.5 174t-23 252zM731 817 q-54 -200 26.5 -277t336.5 -77q255 0 395.5 93.5t196.5 297.5q78 293 1.5 458t-290.5 165q-215 0 -401.5 -184t-264.5 -476zM1147 2013q36 108 64.5 169.5t65.5 102.5t81 54.5t112 13.5q42 0 73.5 -21t49 -51.5t31 -60.5t25.5 -51t26 -21q101 0 88 205h146l51 -74 q-31 -111 -57 -174.5t-61.5 -104.5t-79 -54t-111.5 -11q-44 1 -77 23t-50.5 53.5t-30.5 63t-24.5 53.5t-24.5 22q-93 0 -80 -215h-168z" />
<glyph unicode="&#xd6;" horiz-adv-x="2277" d="M321 513.5q10 144.5 62 340.5q113 418 396 660.5t661 242.5q187 0 329 -69t218.5 -193.5t93 -298t-46.5 -381.5q-52 -175 -103.5 -300t-117.5 -224.5t-141 -161.5t-177.5 -103t-223.5 -56.5t-282 -14.5q-187 1 -317 33.5t-212.5 99t-115.5 174t-23 252zM731 817 q-54 -200 26.5 -277t336.5 -77q255 0 395.5 93.5t196.5 297.5q78 293 1.5 458t-290.5 165q-215 0 -401.5 -184t-264.5 -476zM1020 2001l203 448h305l-60 -448h-448zM1577 2001l203 448h305l-60 -448h-448z" />
<glyph unicode="&#xd7;" horiz-adv-x="1208" d="M66 160l469 346l-230 325h348l125 -145l189 139h333l-370 -315l303 -350h-455l-98 139l-164 -139h-450z" />
<glyph unicode="&#xd8;" horiz-adv-x="2277" d="M-776 -922l1130 1155q-82 206 29 621q113 418 396 660.5t661 242.5q192 0 334 -71l946 968l502 84l-1211 -1284q64 -123 70.5 -285t-47.5 -354q-52 -175 -103.5 -300t-117.5 -224.5t-141 -161.5t-177.5 -103t-223.5 -56.5t-282 -14.5q-210 0 -352 43l-651 -690zM717 606 l825 844q-66 27 -145 27q-215 0 -401.5 -184t-264.5 -476q-37 -134 -14 -211zM1075 463h19q255 0 395.5 93.5t196.5 297.5q44 164 38 297z" />
<glyph unicode="&#xd9;" horiz-adv-x="2068" d="M313.5 320q1.5 62 13.5 142.5t35 178.5l259 1100h446l-291 -959q-15 -49 -24.5 -82t-16.5 -66.5t-9 -54t1.5 -41t10.5 -31.5t23 -21.5t34 -15t48.5 -8t62 -4.5t77.5 -1q73 0 124 5.5t93.5 22t70.5 41t52.5 67t42 95.5t35.5 131l215 922h459l-357 -1137 q-49 -155 -98.5 -264.5t-100 -177t-106.5 -106.5t-117.5 -53t-133 -17.5t-153.5 0.5q-78 2 -120 2h-76q-56 -2 -107 -0.5t-97.5 4t-86.5 11.5t-73 24t-59 40t-43.5 59t-26 83t-7 111zM1053 2441h317l389 -373l-446 35z" />
<glyph unicode="&#xda;" horiz-adv-x="2068" d="M313.5 320q1.5 62 13.5 142.5t35 178.5l259 1100h446l-291 -959q-15 -49 -24.5 -82t-16.5 -66.5t-9 -54t1.5 -41t10.5 -31.5t23 -21.5t34 -15t48.5 -8t62 -4.5t77.5 -1q73 0 124 5.5t93.5 22t70.5 41t52.5 67t42 95.5t35.5 131l215 922h459l-357 -1137 q-49 -155 -98.5 -264.5t-100 -177t-106.5 -106.5t-117.5 -53t-133 -17.5t-153.5 0.5q-78 2 -120 2h-76q-56 -2 -107 -0.5t-97.5 4t-86.5 11.5t-73 24t-59 40t-43.5 59t-26 83t-7 111zM1333 2357l324 426h215l-254 -426h-285z" />
<glyph unicode="&#xdb;" horiz-adv-x="2068" d="M313.5 320q1.5 62 13.5 142.5t35 178.5l259 1100h446l-291 -959q-15 -49 -24.5 -82t-16.5 -66.5t-9 -54t1.5 -41t10.5 -31.5t23 -21.5t34 -15t48.5 -8t62 -4.5t77.5 -1q73 0 124 5.5t93.5 22t70.5 41t52.5 67t42 95.5t35.5 131l215 922h459l-357 -1137 q-49 -155 -98.5 -264.5t-100 -177t-106.5 -106.5t-117.5 -53t-133 -17.5t-153.5 0.5q-78 2 -120 2h-76q-56 -2 -107 -0.5t-97.5 4t-86.5 11.5t-73 24t-59 40t-43.5 59t-26 83t-7 111zM788 1997l271 358l63 152h158l133 -152l457 -358h-262l-330 190l-227 -190h-263z" />
<glyph unicode="&#xdc;" horiz-adv-x="2068" d="M313.5 320q1.5 62 13.5 142.5t35 178.5l259 1100h446l-291 -959q-15 -49 -24.5 -82t-16.5 -66.5t-9 -54t1.5 -41t10.5 -31.5t23 -21.5t34 -15t48.5 -8t62 -4.5t77.5 -1q73 0 124 5.5t93.5 22t70.5 41t52.5 67t42 95.5t35.5 131l215 922h459l-357 -1137 q-49 -155 -98.5 -264.5t-100 -177t-106.5 -106.5t-117.5 -53t-133 -17.5t-153.5 0.5q-78 2 -120 2h-76q-56 -2 -107 -0.5t-97.5 4t-86.5 11.5t-73 24t-59 40t-43.5 59t-26 83t-7 111zM952 2126l203 448h305l-59 -448h-449zM1509 2126l203 448h305l-59 -448h-449z" />
<glyph unicode="&#xdd;" horiz-adv-x="2154" d="M621 1741h368l197 -772l606 772h369l-887 -1196l-125 -547h-483l190 547zM1395 2505l323 426h215l-254 -426h-284z" />
<glyph unicode="&#xde;" horiz-adv-x="1146" d="M111 8l434 1620h250l-68 -252q92 -12 179.5 -45.5t158.5 -83.5t121 -114.5t67.5 -138.5t-2.5 -154q-27 -99 -110 -190t-194 -154.5t-241 -102.5t-253 -43l-93 -342h-249zM539 676q26 -23 79 -23q90 0 212.5 85.5t144.5 164.5q14 51 -15 91t-82.5 60.5t-115.5 20.5 q-72 0 -131 -59z" />
<glyph unicode="&#xdf;" horiz-adv-x="1396" d="M92 -55l385 1212q60 222 218.5 338.5t400.5 116.5q233 0 328.5 -142.5t29.5 -388.5l-47 -37q-128 -6 -218.5 -58t-109.5 -124q-9 -34 1.5 -57t54.5 -57l47 -37q138 -109 179.5 -196t8.5 -208q-52 -194 -198.5 -292.5t-380.5 -98.5q-135 0 -299 66l-9 -37h-391zM569 326 q150 -66 295 -66q90 0 150.5 27.5t70.5 62.5q1 3 3.5 11t3 12t0.5 11.5t-2 14.5q-12 23 -91 84l-77 66q-53 106 -67 161q-24 90 -3 169q42 156 133.5 239t274.5 127q-7 36 -14.5 59t-20 40t-23.5 25.5t-34.5 13t-44.5 5.5t-60 1q-109 0 -185 -66t-133 -211z" />
<glyph unicode="&#xe0;" horiz-adv-x="1736" d="M299 543q40 132 101.5 244.5t140 197t177.5 131.5t206 45q66 -1 142 -26.5t124 -59.5l27 76h237l-180 -1155h-303l30 67q-155 -104 -358 -104q-255 0 -341.5 156.5t-2.5 427.5zM469 400q-2 -15 8.5 -28.5t23.5 -19t44.5 -9.5t61.5 -4.5t83 -0.5q231 0 321.5 65.5 t88.5 227.5q-1 22 0 57t1 55.5t-2.5 48t-9.5 43.5t-21 34.5t-36 28t-55.5 16t-77.5 6.5q-39 0 -73 -12t-78.5 -46t-96.5 -106t-110 -181q-24 -46 -39 -75.5t-23 -57t-10 -42.5zM713 1786h317l389 -373l-446 35z" />
<glyph unicode="&#xe1;" horiz-adv-x="1736" d="M299 543q40 132 101.5 244.5t140 197t177.5 131.5t206 45q66 -1 142 -26.5t124 -59.5l27 76h237l-180 -1155h-303l30 67q-155 -104 -358 -104q-255 0 -341.5 156.5t-2.5 427.5zM469 400q-2 -15 8.5 -28.5t23.5 -19t44.5 -9.5t61.5 -4.5t83 -0.5q231 0 321.5 65.5 t88.5 227.5q-1 22 0 57t1 55.5t-2.5 48t-9.5 43.5t-21 34.5t-36 28t-55.5 16t-77.5 6.5q-39 0 -73 -12t-78.5 -46t-96.5 -106t-110 -181q-24 -46 -39 -75.5t-23 -57t-10 -42.5zM993 1702l324 426h215l-254 -426h-285z" />
<glyph unicode="&#xe2;" horiz-adv-x="1736" d="M299 543q40 132 101.5 244.5t140 197t177.5 131.5t206 45q66 -1 142 -26.5t124 -59.5l27 76h237l-180 -1155h-303l30 67q-155 -104 -358 -104q-255 0 -341.5 156.5t-2.5 427.5zM449 1341l270 359l63 151h158l133 -151l457 -359h-262l-330 191l-227 -191h-262zM469 400 q-2 -15 8.5 -28.5t23.5 -19t44.5 -9.5t61.5 -4.5t83 -0.5q231 0 321.5 65.5t88.5 227.5q-1 22 0 57t1 55.5t-2.5 48t-9.5 43.5t-21 34.5t-36 28t-55.5 16t-77.5 6.5q-39 0 -73 -12t-78.5 -46t-96.5 -106t-110 -181q-24 -46 -39 -75.5t-23 -57t-10 -42.5z" />
<glyph unicode="&#xe3;" horiz-adv-x="1736" d="M299 543q40 132 101.5 244.5t140 197t177.5 131.5t206 45q66 -1 142 -26.5t124 -59.5l27 76h237l-180 -1155h-303l30 67q-155 -104 -358 -104q-255 0 -341.5 156.5t-2.5 427.5zM469 400q-2 -15 8.5 -28.5t23.5 -19t44.5 -9.5t61.5 -4.5t83 -0.5q231 0 321.5 65.5 t88.5 227.5q-1 22 0 57t1 55.5t-2.5 48t-9.5 43.5t-21 34.5t-36 28t-55.5 16t-77.5 6.5q-39 0 -73 -12t-78.5 -46t-96.5 -106t-110 -181q-24 -46 -39 -75.5t-23 -57t-10 -42.5zM739 1483q70 208 131.5 274t192.5 66q42 0 73.5 -21t49 -51.5t31 -60.5t25.5 -51t26 -21 q101 0 88 205h145l51 -74q-31 -111 -57 -174.5t-61.5 -104.5t-79 -54t-111.5 -11q-44 1 -77 23t-50.5 53.5t-30.5 63t-24.5 53.5t-24.5 22q-93 0 -80 -215h-168z" />
<glyph unicode="&#xe4;" horiz-adv-x="1736" d="M299 543q40 132 101.5 244.5t140 197t177.5 131.5t206 45q66 -1 142 -26.5t124 -59.5l27 76h237l-180 -1155h-303l30 67q-155 -104 -358 -104q-255 0 -341.5 156.5t-2.5 427.5zM469 400q-2 -15 8.5 -28.5t23.5 -19t44.5 -9.5t61.5 -4.5t83 -0.5q231 0 321.5 65.5 t88.5 227.5q-1 22 0 57t1 55.5t-2.5 48t-9.5 43.5t-21 34.5t-36 28t-55.5 16t-77.5 6.5q-39 0 -73 -12t-78.5 -46t-96.5 -106t-110 -181q-24 -46 -39 -75.5t-23 -57t-10 -42.5zM612 1470l203 449h305l-59 -449h-449zM1169 1470l203 449h305l-59 -449h-449z" />
<glyph unicode="&#xe5;" horiz-adv-x="1736" d="M299 543q40 132 101.5 244.5t140 197t177.5 131.5t206 45q66 -1 142 -26.5t124 -59.5l27 76h237l-180 -1155h-303l30 67q-155 -104 -358 -104q-255 0 -341.5 156.5t-2.5 427.5zM469 400q-2 -15 8.5 -28.5t23.5 -19t44.5 -9.5t61.5 -4.5t83 -0.5q231 0 321.5 65.5 t88.5 227.5q-1 22 0 57t1 55.5t-2.5 48t-9.5 43.5t-21 34.5t-36 28t-55.5 16t-77.5 6.5q-39 0 -73 -12t-78.5 -46t-96.5 -106t-110 -181q-24 -46 -39 -75.5t-23 -57t-10 -42.5zM938 1704q28 103 106.5 167t178.5 64q99 0 155.5 -82.5t28.5 -185.5q-28 -104 -107.5 -168.5 t-179.5 -64.5t-155.5 83t-26.5 187zM1112 1655.5q0 -0.5 3 -1t6.5 0.5t11.5 1.5t16 0.5q37 0 55 16.5t29 57.5q5 22 0.5 28t-25.5 6q-20 0 -49 -24.5t-35 -46.5q-2 -9 -5 -17t-4.5 -11.5t-2 -6.5t-0.5 -3.5z" />
<glyph unicode="&#xe6;" horiz-adv-x="2564" d="M299 543q40 132 101.5 244.5t140 197t177.5 131.5t206 45q66 -1 142 -26.5t124 -59.5l27 76h237l-14 -86q187 137 434 137l4 -2q224 -19 313.5 -173.5t51.5 -451.5l-865 -57q-14 -109 54 -154t233 -67q125 -16 221 7t275 104l-68 -355q-242 -100 -494 -100 q-192 0 -321 74l-4 -31h-303l30 67q-155 -104 -358 -104q-255 0 -341.5 156.5t-2.5 427.5zM469 400q-2 -15 8.5 -28.5t23.5 -19t44.5 -9.5t61.5 -4.5t83 -0.5q231 0 321.5 65.5t88.5 227.5q-1 22 0 57t1 55.5t-2.5 48t-9.5 43.5t-21 34.5t-36 28t-55.5 16t-77.5 6.5 q-39 0 -73 -12t-78.5 -46t-96.5 -106t-110 -181q-24 -46 -39 -75.5t-23 -57t-10 -42.5zM1516 805l530 53q-23 130 -197 137q-93 3 -190.5 -55.5t-142.5 -134.5z" />
<glyph unicode="&#xe7;" horiz-adv-x="1601" d="M283 304.5q-14 118.5 26 273.5q82 311 284 474t494 150q67 -3 141.5 -24t78.5 -41l-39 -230q-74 25 -131.5 31t-130.5 2q-75 -4 -130.5 -21t-95 -45.5t-70.5 -79t-52.5 -107.5t-45.5 -144q-18 -96 1.5 -161t68 -90.5t126.5 -8.5t171 79l182 -282q-123 -58 -199.5 -75 t-181.5 -17l-18 -35h-47q120 0 177.5 -70.5t16.5 -167.5q-83 -188 -305 -188h-194l75 225q52 -12 70.5 -14t77.5 -2q92 0 102 35q0 1 1 4q4 16 0 17q-3 1 -17 0q-21 -1 -37 -1q-42 0 -211 -24l131 235q-143 27 -224 105.5t-95 197z" />
<glyph unicode="&#xe8;" d="M300 236.5q-44 136.5 5 330.5v2q94 302 293 467.5t469 165.5l4 -2q224 -19 313.5 -173.5t51.5 -451.5l-865 -57q-14 -109 54 -154t233 -67q125 -16 221 7t275 104l-68 -355q-242 -100 -493 -100q-193 0 -321 73.5t-172 210zM709 805l530 53q-23 130 -197 137 q-93 3 -190.5 -55.5t-142.5 -134.5zM788 2030h318l389 -373l-446 35z" />
<glyph unicode="&#xe9;" d="M300 236.5q-44 136.5 5 330.5v2q94 302 293 467.5t469 165.5l4 -2q224 -19 313.5 -173.5t51.5 -451.5l-865 -57q-14 -109 54 -154t233 -67q125 -16 221 7t275 104l-68 -355q-242 -100 -493 -100q-193 0 -321 73.5t-172 210zM709 805l530 53q-23 130 -197 137 q-93 3 -190.5 -55.5t-142.5 -134.5zM1069 1946l324 426h215l-254 -426h-285z" />
<glyph unicode="&#xea;" d="M300 236.5q-44 136.5 5 330.5v2q94 302 293 467.5t469 165.5l4 -2q224 -19 313.5 -173.5t51.5 -451.5l-865 -57q-14 -109 54 -154t233 -67q125 -16 221 7t275 104l-68 -355q-242 -100 -493 -100q-193 0 -321 73.5t-172 210zM524 1585l271 359l63 151h158l133 -151 l457 -359h-263l-329 191l-228 -191h-262zM709 805l530 53q-23 130 -197 137q-93 3 -190.5 -55.5t-142.5 -134.5z" />
<glyph unicode="&#xeb;" d="M300 236.5q-44 136.5 5 330.5v2q94 302 293 467.5t469 165.5l4 -2q224 -19 313.5 -173.5t51.5 -451.5l-865 -57q-14 -109 54 -154t233 -67q125 -16 221 7t275 104l-68 -355q-242 -100 -493 -100q-193 0 -321 73.5t-172 210zM688 1714l203 449h305l-59 -449h-449zM709 805 l530 53q-23 130 -197 137q-93 3 -190.5 -55.5t-142.5 -134.5zM1245 1714l203 449h305l-59 -449h-449z" />
<glyph unicode="&#xec;" horiz-adv-x="866" d="M96 14q10 30 29 86q80 238 117.5 353t91 296t115.5 412l266 -37q-106 -343 -165.5 -594.5t-88.5 -552.5zM248 1735h317l389 -373l-446 35z" />
<glyph unicode="&#xed;" horiz-adv-x="866" d="M96 14q10 30 29 86q80 238 117.5 353t91 296t115.5 412l266 -37q-106 -343 -165.5 -594.5t-88.5 -552.5zM528 1651l324 426h215l-254 -426h-285z" />
<glyph unicode="&#xee;" horiz-adv-x="866" d="M-16 1290l270 359l63 151h158l133 -151l457 -359h-262l-330 191l-227 -191h-262zM96 14q10 30 29 86q80 238 117.5 353t91 296t115.5 412l266 -37q-106 -343 -165.5 -594.5t-88.5 -552.5z" />
<glyph unicode="&#xef;" horiz-adv-x="866" d="M96 14q10 30 29 86q80 238 117.5 353t91 296t115.5 412l266 -37q-106 -343 -165.5 -594.5t-88.5 -552.5zM172 1376l178 393h268l-51 -393h-395zM662 1376l178 393h268l-51 -393h-395z" />
<glyph unicode="&#xf0;" horiz-adv-x="1421" d="M76 264.5q-16 106.5 20 233.5q69 258 247 401t427 143q195 0 320 -165q65 144 90 213h-400l66 243h397q3 44 -19 63t-81 22.5t-160 -3.5l154 252q201 9 307 -85.5t69 -248.5h363l-66 -243h-370q-29 -82 -65 -174t-55.5 -141t-19.5 -56q-96 -227 -182 -376.5t-180.5 -247 t-196.5 -138.5t-231 -41q-123 0 -217.5 43.5t-147.5 121t-69 184zM399 461q-22 -81 26.5 -124.5t156.5 -43.5q109 0 205 62t104 134q17 148 -19.5 215.5t-132.5 67.5q-114 0 -208.5 -86.5t-131.5 -224.5z" />
<glyph unicode="&#xf1;" horiz-adv-x="1775" d="M154 0l409 1194h230l-11 -82q137 75 318 80q226 7 309.5 -130.5t28.5 -414.5l-123 -647h-406l260 717q42 117 12 166t-143 49q-131 0 -236.5 -84t-131.5 -219l-115 -629h-401zM858 1581q70 208 131.5 274t192.5 66q42 0 73.5 -21t49 -51.5t30.5 -60.5t25 -51t26 -21 q102 0 89 205h145l51 -74q-31 -111 -57 -174.5t-61.5 -104.5t-79 -54t-111.5 -11q-44 1 -77 23t-50.5 53.5t-30.5 63t-24.5 53.5t-24.5 22q-93 0 -80 -215h-168z" />
<glyph unicode="&#xf2;" horiz-adv-x="1753" d="M304 287q-30 147 20 348q77 284 265 443t449 159q129 0 226 -46.5t150 -131t65.5 -202t-27.5 -259.5q-80 -297 -268.5 -461t-452.5 -164q-174 0 -285.5 83.5t-141.5 230.5zM609 523q-2 -44 8.5 -72t38 -43.5t63 -21t90.5 -5.5q136 0 226.5 67t129.5 220q42 158 0.5 240.5 t-161.5 82.5q-122 0 -228 -101t-149 -259q-16 -64 -18 -108zM719 1800h317l389 -373l-446 35z" />
<glyph unicode="&#xf3;" horiz-adv-x="1753" d="M304 287q-30 147 20 348q77 284 265 443t449 159q129 0 226 -46.5t150 -131t65.5 -202t-27.5 -259.5q-80 -297 -268.5 -461t-452.5 -164q-174 0 -285.5 83.5t-141.5 230.5zM609 523q-2 -44 8.5 -72t38 -43.5t63 -21t90.5 -5.5q136 0 226.5 67t129.5 220q42 158 0.5 240.5 t-161.5 82.5q-122 0 -228 -101t-149 -259q-16 -64 -18 -108zM999 1716l324 426h215l-254 -426h-285z" />
<glyph unicode="&#xf4;" horiz-adv-x="1753" d="M304 287q-30 147 20 348q77 284 265 443t449 159q129 0 226 -46.5t150 -131t65.5 -202t-27.5 -259.5q-80 -297 -268.5 -461t-452.5 -164q-174 0 -285.5 83.5t-141.5 230.5zM455 1356l270 358l63 152h158l133 -152l457 -358h-262l-330 190l-227 -190h-262zM609 523 q-2 -44 8.5 -72t38 -43.5t63 -21t90.5 -5.5q136 0 226.5 67t129.5 220q42 158 0.5 240.5t-161.5 82.5q-122 0 -228 -101t-149 -259q-16 -64 -18 -108z" />
<glyph unicode="&#xf5;" horiz-adv-x="1753" d="M304 287q-30 147 20 348q77 284 265 443t449 159q129 0 226 -46.5t150 -131t65.5 -202t-27.5 -259.5q-80 -297 -268.5 -461t-452.5 -164q-174 0 -285.5 83.5t-141.5 230.5zM609 523q-2 -44 8.5 -72t38 -43.5t63 -21t90.5 -5.5q136 0 226.5 67t129.5 220q42 158 0.5 240.5 t-161.5 82.5q-122 0 -228 -101t-149 -259q-16 -64 -18 -108zM745 1497q70 208 131.5 274t192.5 66q42 0 73.5 -21t49 -51.5t31 -60.5t25.5 -51t26 -21q101 0 88 205h145l52 -74q-31 -111 -57 -174.5t-62 -104.5t-79.5 -54t-111.5 -11q-44 1 -77 23t-50.5 53.5t-30.5 63 t-24.5 53.5t-24.5 22q-92 0 -79 -215h-168z" />
<glyph unicode="&#xf6;" horiz-adv-x="1753" d="M304 287q-30 147 20 348q77 284 265 443t449 159q129 0 226 -46.5t150 -131t65.5 -202t-27.5 -259.5q-80 -297 -268.5 -461t-452.5 -164q-174 0 -285.5 83.5t-141.5 230.5zM609 523q-2 -44 8.5 -72t38 -43.5t63 -21t90.5 -5.5q136 0 226.5 67t129.5 220q42 158 0.5 240.5 t-161.5 82.5q-122 0 -228 -101t-149 -259q-16 -64 -18 -108zM618 1485l203 448h305l-59 -448h-449zM1176 1485l202 448h305l-59 -448h-448z" />
<glyph unicode="&#xf7;" horiz-adv-x="1837" d="M373 559l248 256l1185 53l39 -268zM643 -14l203 448h305l-59 -448h-449zM911 987l203 449h305l-59 -449h-449z" />
<glyph unicode="&#xf8;" horiz-adv-x="1753" d="M-240 -1096l664 1170q-98 86 -124 228.5t24 332.5q77 284 265 443t449 159q27 0 43 -2l568 1003l362 164l-680 -1253q106 -81 138 -221.5t-17 -329.5q-80 -297 -268.5 -461t-452.5 -164h-37l-405 -745zM627 434l311 549q-105 -26 -189.5 -122t-121.5 -230 q-38 -141 0 -197zM922 393q184 46 243 275q34 121 15 202z" />
<glyph unicode="&#xf9;" d="M324 457l145 719h264l-110 -582q-12 -65 -14.5 -104t2.5 -67.5t26 -44t50 -24t81 -14.5q54 -7 94.5 1.5t84 41t82.5 103t75 182.5l160 508h288l-270 -1176h-338l23 29q-60 -36 -133 -50t-179 -14q-227 0 -305 120t-26 372zM713 1765h317l389 -372l-446 34z" />
<glyph unicode="&#xfa;" d="M324 457l145 719h264l-110 -582q-12 -65 -14.5 -104t2.5 -67.5t26 -44t50 -24t81 -14.5q54 -7 94.5 1.5t84 41t82.5 103t75 182.5l160 508h288l-270 -1176h-338l23 29q-60 -36 -133 -50t-179 -14q-227 0 -305 120t-26 372zM993 1681l324 426h215l-254 -426h-285z" />
<glyph unicode="&#xfb;" d="M324 457l145 719h264l-110 -582q-12 -65 -14.5 -104t2.5 -67.5t26 -44t50 -24t81 -14.5q54 -7 94.5 1.5t84 41t82.5 103t75 182.5l160 508h288l-270 -1176h-338l23 29q-60 -36 -133 -50t-179 -14q-227 0 -305 120t-26 372zM449 1321l270 358l63 152h158l133 -152 l457 -358h-262l-330 190l-227 -190h-262z" />
<glyph unicode="&#xfc;" d="M324 457l145 719h264l-110 -582q-12 -65 -14.5 -104t2.5 -67.5t26 -44t50 -24t81 -14.5q54 -7 94.5 1.5t84 41t82.5 103t75 182.5l160 508h288l-270 -1176h-338l23 29q-60 -36 -133 -50t-179 -14q-227 0 -305 120t-26 372zM612 1450l203 448h305l-59 -448h-449z M1169 1450l203 448h305l-59 -448h-449z" />
<glyph unicode="&#xfd;" horiz-adv-x="1882" d="M104 -584l95 355h170q51 0 117 25.5t123.5 66t91 99t20.5 116.5l-258 1073h323l226 -702l407 702h312l-813 -1401q-90 -153 -242 -243.5t-334 -90.5h-238zM1167 1929l324 426h215l-254 -426h-285z" />
<glyph unicode="&#xfe;" horiz-adv-x="1146" d="M29 -424l534 2118h291l-86 -342q164 -22 286.5 -111.5t173 -223t9.5 -276.5q-79 -278 -299 -467t-498 -221l-121 -477h-290zM512 338q35 7 85.5 31.5t111 67t116 94t101.5 119.5t67 138q15 50 -27.5 122.5t-113.5 126t-129 53.5q-9 0 -23 -7z" />
<glyph unicode="&#xff;" horiz-adv-x="1882" d="M104 -584l95 355h170q51 0 117 25.5t123.5 66t91 99t20.5 116.5l-258 1073h323l226 -702l407 702h312l-813 -1401q-90 -153 -242 -243.5t-334 -90.5h-238zM786 1698l203 448h305l-59 -448h-449zM1343 1698l203 448h305l-59 -448h-449z" />
<glyph unicode="&#x152;" horiz-adv-x="2463" d="M321 513.5q10 144.5 62 340.5q113 418 396 660.5t661 242.5q215 0 366 -88l6 21l1139 36l-155 -284l-736 -39l-10 -43q44 -141 29 -320l436 19l-80 -305l-428 -27q-53 -165 -115 -295h639l-18 -455h-1194q-129 -22 -330 -22q-187 1 -317 33.5t-212.5 99t-115.5 174 t-23 252zM731 817q-54 -200 26.5 -277t336.5 -77q232 0 370 78l230 755q-73 181 -297 181q-215 0 -401.5 -184t-264.5 -476z" />
<glyph unicode="&#x153;" horiz-adv-x="2191" d="M304 287q-30 147 20 348q77 284 265 443t449 159q143 0 243.5 -55t152.5 -158q202 178 485 178l4 -2q224 -19 313.5 -173.5t51.5 -451.5l-861 -57l-6 -16q-4 -52 12.5 -87.5t57 -58t90.5 -35.5t129 -24q125 -16 221 7t275 104l-68 -355q-242 -100 -493 -100 q-158 0 -273.5 50t-177.5 144q-192 -174 -463 -174q-174 0 -285.5 83.5t-141.5 230.5zM609 523q-2 -44 8.5 -72t38 -43.5t63 -21t90.5 -5.5q136 0 226.5 67t129.5 220q42 158 0.5 240.5t-161.5 82.5q-122 0 -228 -101t-149 -259q-16 -64 -18 -108zM1561 805l530 53 q-23 130 -197 137q-93 3 -190.5 -55.5t-142.5 -134.5z" />
<glyph unicode="&#x178;" horiz-adv-x="2154" d="M621 1741h368l197 -772l606 772h369l-887 -1196l-125 -547h-483l190 547zM1014 2273l203 449h305l-60 -449h-448zM1571 2273l203 449h305l-60 -449h-448z" />
<glyph unicode="&#x2c6;" horiz-adv-x="1138" d="M313 1391l271 358l63 152h158l133 -152l457 -358h-262l-330 190l-228 -190h-262z" />
<glyph unicode="&#x2dc;" horiz-adv-x="958" d="M432 1208q70 208 131.5 274t192.5 66q42 0 73.5 -21t49 -51t31 -60.5t25.5 -51.5t26 -21q101 0 88 205h145l51 -73q-32 -111 -57.5 -174.5t-61 -104.5t-79 -54.5t-111.5 -11.5q-44 1 -77 23t-50.5 54t-30.5 63.5t-24.5 53.5t-24.5 22q-93 0 -80 -216h-168z" />
<glyph unicode="&#x2000;" horiz-adv-x="1465" />
<glyph unicode="&#x2001;" horiz-adv-x="2931" />
<glyph unicode="&#x2002;" horiz-adv-x="1465" />
<glyph unicode="&#x2003;" horiz-adv-x="2931" />
<glyph unicode="&#x2004;" horiz-adv-x="977" />
<glyph unicode="&#x2005;" horiz-adv-x="732" />
<glyph unicode="&#x2006;" horiz-adv-x="488" />
<glyph unicode="&#x2007;" horiz-adv-x="488" />
<glyph unicode="&#x2008;" horiz-adv-x="366" />
<glyph unicode="&#x2009;" horiz-adv-x="586" />
<glyph unicode="&#x200a;" horiz-adv-x="162" />
<glyph unicode="&#x2010;" horiz-adv-x="1128" d="M180 492l66 243h1030l-66 -243h-1030z" />
<glyph unicode="&#x2011;" horiz-adv-x="1128" d="M180 492l66 243h1030l-66 -243h-1030z" />
<glyph unicode="&#x2012;" horiz-adv-x="1128" d="M180 492l66 243h1030l-66 -243h-1030z" />
<glyph unicode="&#x2013;" horiz-adv-x="1630" d="M221 444l113 297l1390 -4l-110 -297z" />
<glyph unicode="&#x2014;" horiz-adv-x="2334" d="M223 444l111 297l2070 -4l-110 -297z" />
<glyph unicode="&#x2018;" horiz-adv-x="882" d="M430 1804h504l65 -297l254 -401h-436z" />
<glyph unicode="&#x2019;" horiz-adv-x="882" d="M420 1106l254 401l65 297h504l-387 -698h-436z" />
<glyph unicode="&#x201a;" horiz-adv-x="657" d="M-94 -371l254 402l65 297h504l-387 -699h-436z" />
<glyph unicode="&#x201c;" horiz-adv-x="1554" d="M430 1804h504l65 -297l254 -401h-436zM1102 1804h504l65 -297l254 -401h-436z" />
<glyph unicode="&#x201d;" horiz-adv-x="1554" d="M420 1106l254 401l65 297h504l-387 -698h-436zM1092 1106l254 401l65 297h504l-387 -698h-436z" />
<glyph unicode="&#x201e;" horiz-adv-x="657" d="M-94 -371l254 402l65 297h504l-387 -699h-436z" />
<glyph unicode="&#x2022;" horiz-adv-x="1042" d="M-184 274l700 1549h1053l-205 -1549h-1548z" />
<glyph unicode="&#x2026;" horiz-adv-x="1933" d="M43 2l203 449h305l-59 -449h-449zM764 2l203 449h305l-60 -449h-448zM1442 2l203 449h305l-60 -449h-448z" />
<glyph unicode="&#x202f;" horiz-adv-x="586" />
<glyph unicode="&#x2039;" horiz-adv-x="854" d="M256 494l96 153l680 463l-92 -293l-356 -242l209 -264l-154 -313z" />
<glyph unicode="&#x203a;" horiz-adv-x="854" d="M-178 1110l680 -463l96 -153l-383 -496l-154 313l209 264l-356 242z" />
<glyph unicode="&#x205f;" horiz-adv-x="732" />
<glyph unicode="&#x20ac;" horiz-adv-x="1716" d="M184 342l183 256l137 8l28 121l23 86l-248 -10l182 256l146 8q50 130 110 220.5t148 157.5t203.5 97t272.5 29t360 -37l-74 -274l-62 -31q-220 55 -367.5 22.5t-240.5 -161.5l383 22l29 -268l-533 -21l-14 -51l-37 -147l432 26l29 -268l-490 -18q3 -42 16 -72t31.5 -49.5 t50.5 -31.5t64 -17.5t83 -7.5t96 -2t114 -1t127 -4l-92 -344l-49 -37q-176 -5 -303 4.5t-219.5 35.5t-146.5 70t-83 107t-30.5 146.5t12.5 189.5z" />
<glyph unicode="&#x2122;" horiz-adv-x="1486" d="M535 1755l30 117h471l-30 -117l-179 6l-104 -446h-137l131 446zM1106 1329l172 543h137l41 -293l201 293h131l-127 -543h-156l125 334l-184 -309h-100l-29 307l-66 -332h-145z" />
<glyph unicode="&#x25fc;" horiz-adv-x="1157" d="M0 0v1157h1157v-1157h-1157z" />
</font>
</defs>
</svg>
