<?xml version="1.0" standalone="no"?>
<!DOCTYPE svg PUBLIC "-//W3C//DTD SVG 1.1//EN" "http://www.w3.org/Graphics/SVG/1.1/DTD/svg11.dtd" >
<svg xmlns="http://www.w3.org/2000/svg" xmlns:xlink="http://www.w3.org/1999/xlink" version="1.1">
<metadata></metadata>
<defs>
<font id="opendyslexicbold" horiz-adv-x="1994" >
<font-face units-per-em="2048" ascent="1638" descent="-410" />
<missing-glyph horiz-adv-x="1779" />
<glyph horiz-adv-x="0" />
<glyph horiz-adv-x="682" />
<glyph unicode=" "  horiz-adv-x="1779" />
<glyph unicode="&#x09;" horiz-adv-x="1779" />
<glyph unicode="&#xa0;" horiz-adv-x="1779" />
<glyph unicode="!" horiz-adv-x="690" d="M33 -328l102 559h379l78 -559h-559zM154 926l118 1317l242 -240l-31 -1329z" />
<glyph unicode="&#x22;" horiz-adv-x="1439" d="M-123 1106l19 698h503l-106 -299l20 -399h-436zM549 1106l18 698h504l-106 -299l20 -399h-436z" />
<glyph unicode="#" horiz-adv-x="2125" d="M-23 268l123 287h387l58 387h-506l86 287h461l71 481h283l-41 -481h307l64 485h284l-41 -485h629l-98 -287h-555l-35 -387h625l-84 -287h-565l-35 -413h-371l55 413h-262l-37 -418h-397l61 418h-467zM842 555h274l51 387h-293z" />
<glyph unicode="$" horiz-adv-x="2359" d="M358 121l312 356q24 -19 146 -66t237 -77l8 328q-277 52 -405 173t-128 320q0 216 146.5 346.5t410.5 153.5l9 311h254l-9 -311q121 -7 237 -23.5t163 -32.5l-166 -276q-97 30 -240 49l-10 -411q321 -60 499.5 -198t178.5 -329q0 -188 -180.5 -307.5t-522.5 -142.5 l-8 -344h-254l8 340q-427 10 -686 141zM893 1186q0 -59 38.5 -102.5t137.5 -73.5l10 342q-77 -31 -131.5 -77.5t-54.5 -88.5zM1307 297q122 3 189 50.5t67 101.5q0 33 -75.5 76t-172.5 79z" />
<glyph unicode="%" horiz-adv-x="2224" d="M393 1038q0 169 91 269t245 100q155 0 246.5 -100t91.5 -269q0 -175 -91 -278t-247 -103q-157 0 -246.5 102t-89.5 279zM573 1059q0 -91 38 -125.5t118 -34.5q81 0 119.5 34.5t38.5 125.5q0 93 -43 148t-115 55q-71 0 -113.5 -55t-42.5 -148zM614 -147l1069 1742h256 l-987 -1742h-338zM1386 317q0 169 91 269t245 100q155 0 246.5 -100t91.5 -269q0 -175 -91 -277.5t-247 -102.5q-157 0 -246.5 101.5t-89.5 278.5zM1567 338q0 -91 37.5 -125.5t117.5 -34.5q81 0 119.5 34.5t38.5 125.5q0 93 -43 148t-115 55q-71 0 -113 -55t-42 -148z" />
<glyph unicode="&#x26;" horiz-adv-x="1914" d="M246 469q0 133 73.5 243t184.5 189l-84 74q-96 82 -129.5 176.5t-14.5 218.5q12 75 57.5 135.5t109.5 96t134 54.5t138 19q331 0 471 -223q78 -125 33 -287q-41 -148 -234 -262l-100 -59q176 -158 415 -348q92 106 70 262l303 -6q0 -249 -145 -437l125 -96 q-72 -94 -150 -182l-139 121q-61 -46 -127 -80q-219 -96 -451 -96q-130 0 -227 34t-176 113q-84 86 -110.5 163t-26.5 177zM494 1264q36 -85 206 -252q54 27 88 45t82 47t76.5 53t50.5 54t25 59q9 90 -87 170t-204 82q-86 1 -150 -40.5t-87 -101.5t0 -116zM586 530 q0 -52 33 -92t84.5 -61.5t104 -32t101.5 -10.5q95 0 205 41l-407 352q-69 -53 -95 -96.5t-26 -100.5z" />
<glyph unicode="'" horiz-adv-x="727" d="M102 893l19 698h504l-107 -299l21 -399h-437z" />
<glyph unicode="(" horiz-adv-x="989" d="M137 741q0 313 138 688t374 670l277 -31q-488 -749 -475 -1327q4 -168 25 -307t54.5 -258.5t101 -261t140.5 -270.5t197 -332l-424 12q-109 178 -187.5 357t-120 318t-65.5 288t-29.5 244.5t-5.5 209.5z" />
<glyph unicode=")" horiz-adv-x="894" d="M-74 -688q124 203 197 332t140.5 270.5t101 261t54.5 258.5t25 307q13 578 -475 1327l277 31q236 -295 374 -670t138 -688q0 -114 -5.5 -209.5t-29.5 -244.5t-65.5 -288t-120 -318t-187.5 -357z" />
<glyph unicode="*" horiz-adv-x="1300" d="M78 1180l160 239l282 -172l-31 279l269 59v-340l360 234l39 -262l-289 -156l357 -139l-170 -236l-285 172l31 -283l-269 -59v330l-251 -207l-164 240l305 165z" />
<glyph unicode="+" horiz-adv-x="1269" d="M109 440v262l413 -2v404h283v-406l356 -2v-262l-356 2v-387h-283v389z" />
<glyph unicode="," horiz-adv-x="657" d="M4 -371l148 402l-15 297h504l-201 -699h-436z" />
<glyph unicode="-" horiz-adv-x="1128" d="M49 492v243h1030v-243h-1030z" />
<glyph unicode="." horiz-adv-x="534" d="M43 2l82 449h305l62 -449h-449z" />
<glyph unicode="/" horiz-adv-x="1396" d="M41 -1087l995 3334l320 163l-873 -3174z" />
<glyph unicode="0" horiz-adv-x="1490" d="M174 745q0 400 149.5 615t428.5 215q277 0 421 -212.5t144 -617.5q0 -402 -145.5 -615.5t-421.5 -213.5q-277 0 -426.5 216t-149.5 613zM498 891q0 -258 61 -376t191 -118q121 0 182.5 113.5t81.5 380.5q0 493 -262 493q-129 0 -191.5 -119.5t-62.5 -373.5zM588 840 q0 290 164 290q85 0 121 -72t36 -218q0 -107 -41 -172.5t-116 -65.5q-77 0 -120.5 66t-43.5 172z" />
<glyph unicode="1" horiz-adv-x="1318" d="M174 -2v336l283 8l45 872l-258 -137l35 318q250 153 350 153h178v-1204l338 -10v-336h-971z" />
<glyph unicode="2" horiz-adv-x="1454" d="M174 -2l62 297q14 68 81.5 135t229.5 172q85 55 147 104.5t101.5 95t62 79.5t45.5 77q31 67 31 123q0 97 -66.5 155t-179.5 58q-90 0 -196 -36.5t-291 -129.5l20 330q272 117 463 117q29 0 59 -2t85.5 -12.5t103.5 -28t104 -54t97.5 -85.5t73 -126.5t40.5 -172.5 q2 -21 2.5 -40t-5 -62.5t-18.5 -86t-42 -107t-70.5 -130t-109.5 -150t-154 -172.5h399l31 -348h-1106z" />
<glyph unicode="3" horiz-adv-x="1456" d="M174 61l137 410q203 -83 344 -90q105 -6 201 25t96 77q0 90 -77.5 146.5t-204.5 56.5h-258l55 270h242q282 0 282 191q0 102 -78 143t-237 41q-99 0 -182.5 -16.5t-278.5 -69.5l74 260q255 70 405 70q252 0 402.5 -120t150.5 -322q0 -104 -46 -178.5t-148 -127.5 q123 -41 176 -130t53 -242q0 -74 -12 -136.5t-32.5 -108.5t-52.5 -83t-65.5 -62t-79.5 -43t-87 -28t-94 -16t-95 -7.5t-96 -1.5q-153 0 -252 20t-242 72z" />
<glyph unicode="4" horiz-adv-x="1517" d="M174 389v191l49 71h4l647 891l236 14h2l-2 -2l43 -876l190 6v-324l-174 5l19 -367h-393l18 375zM516 659l313 11l27 499z" />
<glyph unicode="5" horiz-adv-x="1435" d="M174 -2l96 461q149 -80 213 -101.5t166 -21.5q119 0 194 49t75 125q0 53 -12.5 88.5t-31.5 55.5t-56 30t-69.5 12t-89.5 2q-147 0 -452 -39l37 877l909 12l10 -260h-661l16 -319h146q275 0 436.5 -132t161.5 -358q0 -264 -167 -413.5t-462 -149.5q-212 0 -459 82z" />
<glyph unicode="6" horiz-adv-x="1490" d="M174 664q0 64 4 127t20 160t42.5 179.5t78 171t120 150t174 101.5t235.5 40l371 -2v-286h-363q-43 0 -71 -1t-64 -4.5t-58.5 -11t-50 -20t-44 -31.5t-33.5 -46t-26 -63t-14.5 -83t-5.5 -105q17 10 52 30.5t46.5 27t38 18.5t44 15.5t45 7t59.5 3.5q164 0 288 -73 t189.5 -200.5t65.5 -289.5q0 -247 -149 -374.5t-406 -127.5q-118 0 -207.5 20.5t-163 69t-120.5 127t-72 196t-25 274.5zM522 471q23 -178 240 -178q111 0 173.5 50t68.5 132q5 67 -23.5 135t-87 115t-131.5 47q-106 0 -180.5 -91.5t-59.5 -209.5z" />
<glyph unicode="7" horiz-adv-x="1431" d="M174 1290l10 256l990 -26l81 2v-4h2l-10 -54l-231 -1466h-475l364 1264z" />
<glyph unicode="8" horiz-adv-x="1523" d="M174 420q6 147 93 240t274 135q-171 30 -236 116.5t-55 221.5q14 196 147.5 308.5t364.5 112.5q251 0 378.5 -110.5t133.5 -310.5q4 -133 -49.5 -217.5t-149.5 -108.5q263 -103 275 -387q9 -231 -150 -357t-438 -126q-280 0 -439 125.5t-149 357.5zM508 440 q0 -57 75.5 -106t180.5 -49q104 0 178 49.5t74 105.5q0 113 -65.5 173.5t-188.5 60.5t-188.5 -60.5t-65.5 -173.5zM541 1174q-13 -98 52.5 -161t168.5 -63q101 0 166 63t55 161q-8 78 -65.5 125t-155.5 47t-154 -47t-67 -125z" />
<glyph unicode="9" horiz-adv-x="1488" d="M174 1012q6 259 149.5 411t403.5 152q302 0 445 -203t143 -627q0 -122 -11 -223t-29.5 -176.5t-50 -134.5t-64.5 -99.5t-81 -68.5t-91.5 -43.5t-105 -23.5t-112.5 -9.5t-121 0.5q-251 6 -450 49l65 320q200 -46 430 -60q78 -5 128.5 2t89.5 32t59.5 73t27.5 125 q-72 -39 -134 -51t-150 -6q-553 40 -541 561zM406 1038q-12 -147 61.5 -217t241.5 -67q164 3 241 74.5t64 222.5q-13 154 -98 221t-218 65q-268 -3 -292 -299z" />
<glyph unicode=":" horiz-adv-x="555" d="M31 -2l90 494h336l67 -494h-493zM31 879l90 493h336l67 -493h-493z" />
<glyph unicode=";" horiz-adv-x="712" d="M33 -371l147 402l-14 297h504l-201 -699h-436zM121 772l90 494h336l67 -494h-493z" />
<glyph unicode="&#x3c;" horiz-adv-x="1587" d="M-12 459l102 47l-14 217l1356 596l16 -297l-854 -408l913 -249l2 -363l-1347 406l-64 -31l-4 49z" />
<glyph unicode="=" horiz-adv-x="1239" d="M76 164l112 256l865 53l100 -268zM76 625l112 256l865 53l100 -268z" />
<glyph unicode="&#x3e;" horiz-adv-x="1648" d="M109 2l2 363l913 249l-854 408l16 297l1356 -596l-14 -217l102 -47l-106 -33l-4 -49l-64 31z" />
<glyph unicode="?" horiz-adv-x="1357" d="M82 1952q220 200 441.5 249t441.5 -63q321 -172 311 -594q-3 -113 -37 -212t-91 -171.5t-121.5 -124.5t-139.5 -90v-293q-135 -59 -257 -101.5t-171 -45.5q3 16 9.5 57.5t9 56.5t7 48.5t7 55t5 53t3.5 63.5q3 18 1.5 92.5t-1.5 97.5l41 98q198 72 262 108q100 56 136 143 q24 56 30 141q5 64 0 126.5t-29.5 133.5t-69.5 112q-55 50 -141.5 58.5t-173.5 -18t-168 -78t-131 -115.5q-36 46 -90 110.5t-84 102.5zM408 -254l81 449h306l61 -449h-448z" />
<glyph unicode="@" horiz-adv-x="2103" d="M253.5 591.5q-15.5 116.5 1.5 238.5t65.5 235t129 215.5t185.5 179.5q72 53 152 90t147 54.5t136 25t116.5 7t89.5 -6.5q114 -16 216 -74t174 -141t119.5 -179t63.5 -192q7 -46 8 -96t-7 -109t-26 -115t-51.5 -110t-79.5 -97t-114.5 -75t-151.5 -45q-50 -7 -117 31 t-87 84h-6v45q-82 -65 -191 -65q-146 0 -215 83.5t-63 237.5q6 157 78.5 261.5t193.5 103.5q96 -4 164 -43l-6 36h137l67 -598l52 11q75 30 128 76.5t77.5 98.5t34 94.5t9.5 84.5q0 61 -17.5 126t-53.5 133t-103 126t-155 90q-80 29 -167 32.5t-169 -16t-159 -60.5t-140 -97 t-109.5 -129.5t-69 -155t-16.5 -176.5t45 -190q67 -164 197 -255.5t327 -103.5t455 80q80 -254 99 -369q-33 -5 -98 -18.5t-117.5 -22.5t-123.5 -16.5t-151.5 -5t-165.5 15.5q-168 26 -303 90.5t-222 152t-142 197t-70.5 226zM865 775.5q-1 -27.5 16 -44t45.5 -20.5t85.5 -4 q132 0 168 32.5t10 124.5q-3 11 -10 37t-11 37.5t-12.5 31t-18.5 29t-25.5 20.5t-37.5 15t-51 4q-24 0 -39.5 -5t-34.5 -22t-36.5 -56t-34.5 -101q-13 -51 -14 -78.5z" />
<glyph unicode="A" d="M164 -4l690 1745h289l688 -1745h-449l-63 266h-641l-82 -266h-432zM782 641h435l-222 702z" />
<glyph unicode="B" horiz-adv-x="1959" d="M332 -4v1749h569q276 0 430 -121t154 -340q0 -230 -148 -338q148 -61 217.5 -158t73.5 -274v-29q0 -79 -14 -143q-16 -76 -45 -130t-77 -93.5t-100.5 -62.5t-123.5 -37t-138 -18.5t-153 -4.5h-645zM674 442h291q95 0 149.5 6t90 24.5t47.5 49t12 82.5q0 24 -17 55t-59 60 q-78 55 -223 55h-291v-332zM674 1073h264q137 0 198.5 45.5t61.5 141.5q0 106 -66.5 162.5t-193.5 56.5h-264v-406z" />
<glyph unicode="C" horiz-adv-x="2029" d="M340 621q-7 60 -8 123q0 80 12 165q26 171 86 311t140 236t181 163t207 99.5t220 38.5q42 2 86 2q199 0 434 -41l-72 -391q-154 34 -247 44q-44 5 -90 5q-50 0 -101 -6q-390 -44 -420 -444q-3 -38 -3 -73q1 -63 11 -113q16 -77 65.5 -133t140.5 -82.5t228 -26.5 q260 0 430 88l21 -590h-754q-102 0 -198 47t-171 130t-128.5 197.5t-69.5 250.5z" />
<glyph unicode="D" horiz-adv-x="2152" d="M332 -2v1743h514q498 0 736.5 -210t238.5 -654q0 -152 -15 -272t-50 -210t-77 -155t-111 -108.5t-136 -70.5t-169 -40.5t-193.5 -18t-223.5 -4.5h-514zM700 502h199q330 0 468 87t138 292q0 257 -149.5 384.5t-456.5 127.5h-199v-891z" />
<glyph unicode="E" horiz-adv-x="1882" d="M332 0l59 1712l1129 37l-80 -285l-723 -39v-368l547 24v-305l-547 -35v-286h731l102 -455h-1218z" />
<glyph unicode="F" horiz-adv-x="1734" d="M332 0l94 1722l977 33v-272l-655 -41l-37 -273l587 -2v-348h-583l37 -819h-420z" />
<glyph unicode="G" horiz-adv-x="2371" d="M332 840q0 180 25 317.5t88.5 255.5t167.5 193.5t265 118t379 42.5q86 0 282 -20t216 -21l43 -362q-230 66 -522 66q-144 0 -241.5 -27.5t-166.5 -94t-100 -180t-31 -284.5q10 -258 127 -356.5t412 -98.5q201 0 280 51l13 148l-295 41l-43 301l743 -90l66 -318l-158 21 l14 -410q-66 -64 -272 -118t-420 -54q-208 0 -366.5 49.5t-273 153.5t-173.5 274t-59 402z" />
<glyph unicode="H" horiz-adv-x="2152" d="M332 0l49 1741h348l37 -940h602l31 940h348l74 -1741h-480l13 356h-572l15 -356h-465z" />
<glyph unicode="I" horiz-adv-x="1110" d="M332 0q36 306 44 678q3 151 3 283q0 194 -7 350q-11 262 -30 430h373q-12 -233 -11 -473q0 -610 74 -1268h-446z" />
<glyph unicode="J" horiz-adv-x="1857" d="M332 -362l80 450l229 -57l39 -9t44 -8.5t51 -5.5t50 2.5t50.5 11t44.5 25t39.5 40.5t28 60t16.5 82l143 1512h379l-174 -1639q-13 -125 -51 -220t-95.5 -154.5t-133 -96t-164.5 -43.5q-38 -4 -78 -4q-54 0 -111 6z" />
<glyph unicode="K" horiz-adv-x="2152" d="M332 0l186 1741h344l-82 -692l391 692h426l-604 -1000l828 -739h-701l-377 459v-461h-411z" />
<glyph unicode="L" horiz-adv-x="1839" d="M332 0l96 1741h334l-33 -1356l778 35v-420h-1175z" />
<glyph unicode="M" horiz-adv-x="2383" d="M332 -2l63 1743h426l381 -942l371 942h405l74 -1743h-487l100 1075l-301 -993h-313l-355 985l82 -1067h-446z" />
<glyph unicode="N" horiz-adv-x="2121" d="M332 -4l137 1657h369l536 -1127l92 1213h324l-92 -1743h-459l-440 1038l41 -1038h-508z" />
<glyph unicode="O" horiz-adv-x="2324" d="M332 836q0 207 59.5 378.5t167 291t262.5 185.5t342 66q251 0 442 -114.5t293 -324.5q95 -197 95 -449v-35q-5 -174 -24 -301t-59.5 -228.5t-101.5 -166.5t-154 -108q-94 -42 -212 -59q-112 -16 -261 -16h-18q-235 2 -391 48.5t-255.5 153t-142 270.5t-42.5 409zM690 836 q0 -201 109 -287t364 -86q256 0 363.5 85t107.5 288q0 293 -128.5 467t-342.5 174t-343.5 -174.5t-129.5 -466.5z" />
<glyph unicode="P" horiz-adv-x="1871" d="M332 -4l100 1743h471q278 0 451.5 -147t185.5 -382q1 -13 1 -25q0 -93 -33 -179q-37 -97 -110 -174t-189 -125.5t-259 -55.5l-205 -10l46 -645h-459zM731 1087l236 11q42 2 70.5 4.5t59.5 8.5t50 15.5t37 25t27.5 37t14.5 51.5q4 21 4 47q0 10 -1 22q-3 74 -80.5 120 t-237.5 46h-180v-388z" />
<glyph unicode="Q" horiz-adv-x="2189" d="M205 881q0 254 106 461t293 324.5t416 117.5q242 0 424.5 -110.5t281.5 -315.5t99 -477q0 -222 -57.5 -394t-184.5 -325l402 -443h-682l-228 258q-47 -3 -91 -3q-358 0 -556 210q-223 236 -223 697zM565 881q0 -75 8.5 -136t23 -101.5t34.5 -72t43.5 -48.5t49 -29 t52 -13.5t52.5 -4t49 0.5l79 2l86 197q233 -135 359 -135q17 0 33 39.5t27.5 119.5t11.5 181q0 285 -120.5 444.5t-332.5 159.5q-138 0 -242.5 -79t-158.5 -215.5t-54 -309.5z" />
<glyph unicode="R" horiz-adv-x="1982" d="M332 8l110 1733h453q285 0 433.5 -132t148.5 -411q0 -269 -181 -371q65 -58 119 -153.5t86 -194.5l150 -471h-545l20 432v14q0 46 -12 88q-14 50 -44 86q-30 38 -76 46q-11 2 -22 1q-39 0 -89 -22l-111 -53l41 -592h-481zM700 1006h218q31 0 48 0.5t44 2.5t42.5 6.5 t36.5 13t33.5 21t26 31t20.5 43t12 57t5 72.5q0 59 -6 101.5t-22 71t-35 45.5t-52.5 26t-66.5 11.5t-86 2.5h-218v-505z" />
<glyph unicode="S" horiz-adv-x="2189" d="M332 129l289 379q26 -22 158 -79.5t243 -86.5q102 -25 178 -25h16q81 3 133 30t76.5 61.5t24.5 70.5q0 33 -67.5 79t-142.5 78.5t-112 39.5l-133 26q-262 53 -384 184t-122 345q0 254 165 396t458 142q128 0 285.5 -21t216.5 -42l-154 -295q-75 26 -175 45t-148 19 q-61 0 -134 -32.5t-123.5 -83t-50.5 -95.5q0 -75 55.5 -128t200.5 -83l132 -27q302 -62 471.5 -210t169.5 -353q0 -224 -205.5 -355t-589.5 -131q-63 0 -94 0.5t-128 8t-168 21.5t-167.5 45.5t-173.5 76.5z" />
<glyph unicode="T" horiz-adv-x="2160" d="M332 1370v369h1497v-369l-576 23l45 -1397h-434l43 1397z" />
<glyph unicode="U" horiz-adv-x="2117" d="M332 1741h446l-35 -940v-29q0 -28 -1 -54q-1 -12 -1 -22q-1 -24 3 -46q4 -30 7.5 -55t15 -44.5t22 -34t30.5 -24.5t41 -17t52 -11t64.5 -5.5t78.5 -1.5q49 0 84.5 2t68.5 7t53.5 13.5t40 22.5t28 32.5t18 44t10.5 58.5q2 33 4 73q1 16 0 33q0 27 -2 58l-33 940h459 l-51 -1118q-6 -136 -23.5 -238t-44.5 -170.5t-64 -113.5t-84 -68t-103.5 -34.5t-122 -11.5h-140.5q-64 1 -98 1t-100 -1h-142.5t-124.5 11.5t-105.5 34.5t-85.5 68t-64.5 113.5t-43 170.5t-20.5 238z" />
<glyph unicode="V" horiz-adv-x="2318" d="M332 1741h354l442 -1100h23l485 1100h351l-566 -1741h-544z" />
<glyph unicode="W" horiz-adv-x="2916" d="M332 1737h418l256 -1114l333 649h267l303 -668l274 1133h402l-418 -1737h-453l-237 657l-258 -657h-519z" />
<glyph unicode="X" horiz-adv-x="2297" d="M332 0l604 850l-530 891h356l399 -576l410 576h336l-537 -879l596 -862h-524l-297 498l-303 -498h-510z" />
<glyph unicode="Y" horiz-adv-x="2203" d="M332 1741h368l404 -772l399 772h369l-565 -1196l20 -547h-483l45 547z" />
<glyph unicode="Z" horiz-adv-x="2222" d="M332 0v399l932 947l-646 12l-176 383h1448v-328l-788 -967l620 3l144 -449h-1534z" />
<glyph unicode="[" horiz-adv-x="964" d="M104 -702l138 2908h6h608v-256h-324l-106 -2288h346l-2 -364h-362v-7z" />
<glyph unicode="\" horiz-adv-x="966" d="M106 1294l82 488l674 -1825l-205 -483z" />
<glyph unicode="]" horiz-adv-x="964" d="M109 1950v256h608h6l137 -2908l-303 -7v7h-362l-2 364h346l-107 2288h-323z" />
<glyph unicode="^" horiz-adv-x="1138" d="M68 1466l364 359l105 151h157l92 -151l363 -359h-262l-281 191l-276 -191h-262z" />
<glyph unicode="_" horiz-adv-x="1386" d="M-20 -446l32 296l1393 -4l-33 -297z" />
<glyph unicode="`" horiz-adv-x="911" d="M33 1583h317l490 -373l-457 35z" />
<glyph unicode="a" horiz-adv-x="1748" d="M313 524q5 132 39 247.5t92.5 203.5t147.5 138q86 48 188 48h8q70 -2 151 -23t136 -53l-8 66h238l131 -1155h-303v80q-144 -117 -334 -117q-255 0 -376 147q-111 135 -111 374q0 21 1 44zM522 427q6 -30 21 -46.5t48.5 -26.5t74.5 -13t108 -3q95 0 157 8t103 26t57 51 q15 30 15 70v7q-2 44 -21 112q-6 21 -15.5 58t-14.5 57.5t-16.5 51t-23.5 47.5t-32.5 37.5t-45 31t-60.5 18t-80 7.5q-32 0 -54.5 -4.5t-51 -23t-51.5 -52.5t-48.5 -96t-48.5 -150q-15 -59 -21 -98q-3 -20 -3 -37t3 -32z" />
<glyph unicode="b" horiz-adv-x="1787" d="M313 1741h322v-709q0 54 94.5 102.5t206.5 51.5h9q103 0 195 -46q96 -48 165.5 -132.5t113.5 -200.5t54 -248q3 -37 3 -71q0 -225 -120 -350q-138 -144 -420 -171q-54 -6 -105 -6q-33 1 -64 3q-80 6 -144 28.5t-112.5 70.5t-74.5 119q-21 50 -36.5 260t-38 606t-48.5 693 zM723 592q-3 -34 -3 -62q0 -34 4 -58q8 -46 39.5 -73t80.5 -36t133 -9q112 9 170.5 68.5t75.5 181.5q-2 140 -67 219.5t-177 79.5q-115 0 -178.5 -81t-77.5 -230z" />
<glyph unicode="c" horiz-adv-x="1599" d="M313 559q1 311 167 483q155 160 419 161q20 0 41 -1q76 -3 147.5 -16.5t81.5 -32.5v-252q-128 40 -240 40q-15 0 -30 -1q-47 -2 -83.5 -8t-64.5 -19t-47.5 -27.5t-33 -39.5t-22 -50t-12.5 -65t-5.5 -77t-1.5 -93q7 -96 45.5 -165.5t95.5 -101.5q40 -22 90 -22q20 0 42 4 q75 13 151 74l233 -262q-113 -61 -188.5 -80.5t-182.5 -19.5q-602 0 -602 571z" />
<glyph unicode="d" horiz-adv-x="1810" d="M313 559q0 170 71.5 316.5t195 232.5t268.5 86q47 0 92.5 -10.5t75.5 -24.5t58 -28t45 -22t30 -6.5t19 19.5t8 56l26 563h295l-65 -1260l26 -483l-307 8l20 90q-21 -12 -63 -36.5t-53.5 -30.5t-40 -21t-40 -18l-34.5 -9t-43 -7t-47 -1q-107 0 -196 31t-151 85 t-105.5 128.5t-64 160.5t-20.5 181zM578 580q0 -126 57.5 -173t193.5 -47t193 47t57 173q0 150 -68.5 239.5t-174.5 89.5q-108 0 -183 -90.5t-75 -238.5z" />
<glyph unicode="e" horiz-adv-x="1757" d="M313 549v2q12 302 174.5 476.5t432.5 174.5h4q230 -19 354.5 -165t165.5 -443l-850 -57q16 -111 104.5 -163.5t255.5 -74.5q62 -8 114 -8q62 0 110 11q90 20 239 97v-338q-231 -108 -467 -108q-295 0 -466 155.5t-171 440.5zM647 823l516 19q-31 68 -96 109t-147 44h-10 q-88 1 -160 -47q-76 -50 -103 -125z" />
<glyph unicode="f" horiz-adv-x="1400" d="M313 883v293h166q6 282 88.5 394.5t282.5 112.5h219v-264h-221q-36 0 -58 -24.5t-29 -65.5q-7 -38 -7 -74v-5q1 -38 6 -79l327 5v-293h-290l30 -885h-381l31 885h-164z" />
<glyph unicode="g" horiz-adv-x="1761" d="M313 573q0 281 142 455t372 174q55 0 100.5 -10t84 -31.5t62.5 -39.5t61 -50l30 105h283l-45 -1037q-5 -117 -22.5 -219t-57 -204.5t-97.5 -175t-151 -118t-211 -45.5q-233 0 -528 58l106 372q192 -100 375 -100q74 0 134 31.5t93 79t46 102.5q8 32 8 61q0 22 -4 42 l-21 -13q-107 -65 -246 -65q-230 0 -372 173.5t-142 454.5zM535 586q5 -55 11 -89.5t18.5 -62.5t27 -42t42.5 -23.5t60 -12t84 -2.5q168 0 220.5 44t52.5 186q0 177 -66.5 270.5t-191.5 93.5q-124 0 -191 -93t-67 -269z" />
<glyph unicode="h" horiz-adv-x="1802" d="M313 -4l127 1745h295l-37 -656q69 53 135 73t162 20q155 0 245.5 -44.5t139 -152.5t62.5 -301l47 -684h-410q43 208 67 347t32 247q4 52 4 94q0 44 -4 74q-8 60 -38.5 99t-73 51t-112.5 12q-72 0 -118 -12t-82.5 -49t-52 -99t-17.5 -167q0 -16 -1 -33q0 -94 12 -216 q14 -144 44 -348h-426z" />
<glyph unicode="i" horiz-adv-x="987" d="M254 1423l82 449h305l61 -449h-448zM309 -4q26 379 34.5 583.5t8.5 563.5h277q-9 -221 -10 -373v-20q0 -145 14 -338q15 -206 51 -416h-375z" />
<glyph unicode="j" horiz-adv-x="1275" d="M313 -508l70 356q20 -7 42 -15.5t32 -13.5t24.5 -9t18.5 -5.5t13.5 0t11.5 3t10.5 9t11.5 13t14 19.5t19 24q44 58 58.5 244t30.5 771q5 150 7 232h287l-76 -1153q-14 -205 -31.5 -287t-58.5 -126q-44 -49 -163 -62q-58 -7 -137 -7q-81 0 -184 7zM643 1462l66 336h235 l49 -336h-350z" />
<glyph unicode="k" horiz-adv-x="1845" d="M313 -4l117 1743h297l-76 -905l215 241h340l-372 -461l698 -618h-586l-287 344l15 -344h-361z" />
<glyph unicode="l" horiz-adv-x="1216" d="M315 0q-2 25 -2 83q-1 171 19 627q26 610 74 1031h284q-52 -404 -72 -1458h236l49 -283h-588z" />
<glyph unicode="m" horiz-adv-x="2514" d="M313 -2l146 1178h295l-6 -62q116 88 274 89q5 0 10 -1q117 -2 210.5 -49t150.5 -135q138 187 317 187q23 0 47 -3q82 -11 157 -55t132 -111.5t92 -160.5t39 -197l25 -680h-396l70 651q4 34 4 65q0 192 -143 212q-28 4 -53 4q-21 0 -40 -3q-40 -7 -69 -36.5t-49 -86 t-33 -147.5l-92 -659h-371l137 659q8 33 8 62q0 19 -3 35q-8 42 -23 72t-41 52t-49.5 33.5t-48.5 18.5q-24 9 -52.5 5.5t-57 -12t-56 -30.5t-49 -51t-37 -73t-19.5 -97l-57 -674h-369z" />
<glyph unicode="n" horiz-adv-x="1787" d="M313 0l90 1194h230l24 -92q134 85 297 90h23q208 0 315 -121q113 -128 133 -405l50 -666h-406l70 698q2 22 2 42q0 192 -207 192q-130 0 -206 -75q-67 -66 -67 -179q0 -15 1 -31l53 -647h-402z" />
<glyph unicode="o" horiz-adv-x="1765" d="M313 616q0 284 154.5 452.5t415.5 168.5t415 -168.5t154 -452.5q0 -297 -152.5 -470t-416.5 -173t-417 172.5t-153 470.5zM618 649q0 -153 64 -210.5t201 -57.5t200.5 57.5t63.5 210.5q0 158 -71.5 250t-192.5 92q-122 0 -193.5 -92t-71.5 -250z" />
<glyph unicode="p" horiz-adv-x="1918" d="M303 -588l154 766q34 166 34 358q0 191 -38 609h286l21 -82q125 125 315 125h17q228 -6 371 -179.5t143 -449.5q0 -288 -136 -455t-378 -167q-186 0 -324 96l-86 -598zM862 592q0 -153 56 -207.5t210 -54.5q147 0 197.5 54t50.5 208q0 183 -66.5 272.5t-191.5 89.5 q-123 0 -189.5 -89.5t-66.5 -272.5z" />
<glyph unicode="q" horiz-adv-x="1990" d="M313 559q0 281 139 451.5t369 179.5h22q94 0 165 -31q80 -35 153 -117v134h295l-78 -799l-20 -447l67 21l252 88l-18 -369l-592 -172l47 506q-131 -67 -287 -67q-230 0 -372 170t-142 452zM547 586q0 -151 50 -200.5t202 -49.5q157 0 210.5 50t53.5 200q0 174 -69.5 270 t-194.5 96q-122 0 -187 -95t-65 -271z" />
<glyph unicode="r" horiz-adv-x="1478" d="M313 -4q71 328 89 542t18 633l301 -10v-63q73 43 156.5 59.5t242.5 22.5l45 -312q-109 18 -187 18t-126.5 -16t-77.5 -47t-40 -77q-12 -45 -14 -102q-1 -26 -1 -54q0 -34 2 -72q3 -97 14 -173.5t62 -348.5h-484z" />
<glyph unicode="s" horiz-adv-x="1773" d="M313 104l275 304q56 -51 121.5 -82t167.5 -41q6 -1 25.5 -3t28.5 -3t27.5 -2t28.5 1t25.5 4.5t25 9t20.5 15.5t19 23t13 32q4 23 6 39t-7.5 30t-18.5 23t-28.5 17.5t-36.5 14t-42 11t-46.5 10t-49.5 11t-50 12.5q-151 43 -248.5 140.5t-97.5 236.5q0 45 11 83.5t41.5 77 t79.5 64.5t130 42q72 14 164 15q11 0 23 -1q94 -2 203.5 -18t181.5 -44l-80 -202q-103 59 -283 75q-29 3 -47 4t-47 0.5t-47.5 -4.5t-40 -13.5t-33 -24.5t-17.5 -40t-3 -57q3 -29 25.5 -50t64.5 -35t81.5 -23.5t100 -21.5t96.5 -21q96 -25 169.5 -66.5t113.5 -84t65 -89 t31.5 -78t5.5 -53.5q-4 -74 -40 -140.5t-103 -121.5t-176.5 -88.5t-247.5 -34.5h-17q-164 1 -314 37q-158 38 -249 110z" />
<glyph unicode="t" horiz-adv-x="1613" d="M313 903l107 248h201q6 145 18 291l301 123l-14 -414h309l65 -248h-385l-21 -586q1 0 46 -0.5t119 -0.5t170 1l55 -317h-586q-68 6 -88 40q-18 30 -18 98v14q0 8 0.5 111t4 280.5t11.5 359.5h-295z" />
<glyph unicode="u" horiz-adv-x="1755" d="M313 1176h265l47 -564q8 -105 30.5 -158t66 -77.5t130.5 -34.5q28 -5 53 -5q19 0 37 3q40 7 70 34.5t48 95t25 179.5l23 527h289l45 -1176h-338l2 39q-102 -74 -297 -74q-228 0 -331 110.5t-118 362.5z" />
<glyph unicode="v" horiz-adv-x="2015" d="M313 1176h314l399 -754l360 754h316l-402 -897l-45 -281h-471l-65 281z" />
<glyph unicode="w" horiz-adv-x="2273" d="M313 1176h318l182 -637l229 383h189l209 -383l202 637h318l-322 -1231h-331l-170 325l-179 -325h-323z" />
<glyph unicode="x" horiz-adv-x="2009" d="M313 -2l523 612l-375 545h338l239 -309l265 309h329l-411 -543l475 -614h-439l-239 348l-264 -348h-441z" />
<glyph unicode="y" horiz-adv-x="1894" d="M313 1151h324l414 -702l219 702h311l-442 -1382q-49 -155 -182 -254t-314 -99h-223v355h184q71 0 142.5 38.5t107.5 102.5q18 32 18 68q0 38 -20 81z" />
<glyph unicode="z" horiz-adv-x="1806" d="M313 -2l64 299l684 635h-555v248h938l41 -211l-649 -666h487l170 -305h-1180z" />
<glyph unicode="{" horiz-adv-x="1148" d="M98 502l6 219l9 -2l2 59h112q6 0 16 1q79 5 93.5 25.5t21.5 135.5v6l11 240q7 123 32.5 198.5t83.5 124t146 67.5t229 21h195l-51 -251h-111q-50 -3 -74.5 -5t-49 -10.5t-32.5 -16t-16.5 -31t-10 -44.5t-3.5 -68l-13 -247q-7 -132 -42 -208.5t-103 -117.5 q63 -41 85.5 -107.5t24.5 -191.5l-12 -250q3 -91 29.5 -114t130.5 -23h123l12 -320l-180 7q-137 3 -221 23.5t-138 71.5t-74.5 131t-19.5 208l13 235q-1 47 -1.5 71.5t-5 48t-9 32t-17 15.5t-25.5 8t-39 1h-116l2 60q-2 0 -7 -1t-6 -1z" />
<glyph unicode="|" horiz-adv-x="802" d="M246 -362l57 1851h254l-57 -1851h-254z" />
<glyph unicode="}" horiz-adv-x="1148" d="M94 1597h195q141 -2 229 -21t146 -67.5t83.5 -124t32.5 -198.5l11 -240q7 -111 17 -133q11 -25 50 -30q11 -2 64 -5h112l2 -59q6 2 8 2l7 -219q-1 0 -6 1t-7 1l2 -60h-116q-26 0 -39 -1t-25.5 -8t-17 -15.5t-9 -32t-5 -48t-1.5 -71.5l13 -235q1 -128 -19.5 -208 t-74.5 -131t-138 -71.5t-221 -23.5l-180 -7l12 320h123q104 0 130.5 23t29.5 114l-13 250q2 124 25 191t86 108q-68 41 -103 117.5t-42 208.5l-13 247q-2 47 -3.5 68t-10 44.5t-16.5 31t-32.5 16t-49 10.5t-74.5 5h-111z" />
<glyph unicode="~" horiz-adv-x="958" d="M109 1190q14 207 65 282.5t182 75.5q35 0 67.5 -15t55.5 -38t44 -49.5t36 -49.5t30 -38t27 -15q25 0 37.5 10t14 36.5t-2.5 59t-14 89.5q-1 7 -2 10h146l55 -55q-3 -213 -51.5 -289.5t-180.5 -73.5q-45 1 -84 23t-64.5 54t-46.5 63.5t-38.5 53.5t-30.5 22q-21 0 -31 -7 t-13.5 -30.5t2 -65.5t20.5 -113h-168z" />
<glyph unicode="&#xa1;" horiz-adv-x="1533" d="M455 2253h559l-78 -559h-379zM575 999l330 252l31 -1329l-242 -239z" />
<glyph unicode="&#xa2;" horiz-adv-x="1599" d="M313 559q0 269 126 437t356 200l8 348h174l-8 -344q70 -5 131 -18t69 -29v-252q-114 36 -204 39l-15 -651q51 19 103 61l233 -262q-105 -57 -177.5 -77.5t-164.5 -22.5l-6 -295h-176l6 305q-455 65 -455 561zM629 561q7 -97 46 -167.5t99 -100.5l14 633q-37 -9 -63 -23.5 t-43.5 -39t-28 -50.5t-16 -68t-7 -82t-1.5 -102z" />
<glyph unicode="&#xa3;" horiz-adv-x="1415" d="M84 623v221h256l-68 219q-59 187 -50 283t93 157q163 117 335.5 141t327 -49t261.5 -235l-231 -64q-89 76 -190.5 105t-191.5 8t-149 -88q-22 -24 -20 -63.5t30 -112.5l113 -301h514v-221h-430q84 -243 -27 -371q94 -1 196 -12.5t333 -44.5l170 -250h-1247v323 q106 37 163.5 61.5t100 55.5t56 65t11.5 85v-11l-30 99h-326z" />
<glyph unicode="&#xa4;" horiz-adv-x="1372" d="M86 393l168 170q-31 79 -31 168q0 111 49 209l-141 141l234 238l155 -156q79 31 166 31t166 -31l156 156l233 -238l-141 -141q49 -98 49 -209q0 -89 -31 -168l168 -170l-233 -237l-162 159q-92 -47 -205 -47t-205 47l-162 -159zM526 782q0 -66 46 -112.5t112 -46.5 q65 0 111.5 46.5t46.5 112.5q0 65 -46 111.5t-112 46.5q-65 0 -111.5 -46t-46.5 -112z" />
<glyph unicode="&#xa5;" horiz-adv-x="1564" d="M55 1548h351l378 -409l375 409h352l-540 -727v-16l211 12l100 -268l-319 -12l-7 -195l226 14l100 -268l-334 -12l-8 -273h-383l8 258l-360 -14l112 256l256 16l7 203l-375 -14l112 256l269 16l2 43z" />
<glyph unicode="&#xa6;" horiz-adv-x="802" d="M225 -307l23 743l211 88l-25 -782zM260 815l19 619l208 49l-18 -613z" />
<glyph unicode="&#xa7;" horiz-adv-x="1536" d="M246 -29l196 258q19 -15 109.5 -53.5t165.5 -58.5q138 -37 215.5 0t77.5 94q0 33 -88 79t-134 54l-90 18q-179 36 -262.5 126t-83.5 235q0 212 162 307q-80 80 -80 215q0 159 112 252.5t302 93.5q234 0 403 -200l-123 -224q-64 117 -118 159t-146 42q-101 0 -158 -28 t-57 -74q0 -34 49.5 -65.5t137.5 -49.5l82 -16q185 -37 278.5 -127t93.5 -230q0 -143 -33 -218t-102 -105q131 -106 131 -256q0 -153 -140 -242.5t-403 -89.5h-64t-86.5 5t-115 15t-113.5 31.5t-118 52.5zM586 750q35 -19 125.5 -38.5t150.5 -19.5q99 0 125 17t29 82 q3 43 -51 71q-114 29 -170 29q-65 0 -135 -45.5t-74 -95.5z" />
<glyph unicode="&#xa8;" horiz-adv-x="1091" d="M43 1249l82 449h305l62 -449h-449zM600 1249l82 449h305l62 -449h-449z" />
<glyph unicode="&#xa9;" horiz-adv-x="1376" d="M246 1526q0 181 129.5 309.5t312.5 128.5q119 0 221 -59t161.5 -160t59.5 -219q0 -185 -129 -315t-313 -130q-185 0 -313.5 129.5t-128.5 315.5zM424 1526q0 -109 77.5 -186.5t186.5 -77.5t186.5 77.5t77.5 186.5q0 110 -77.5 188t-186.5 78q-111 0 -187.5 -77 t-76.5 -189zM489 1516q0 97 61.5 151.5t168.5 50.5q80 -5 84 -16v-80q-54 15 -98 12q-65 -1 -82 -25t-17 -93q5 -63 51 -84.5t105 16.5l84 -82q-42 -20 -69 -26.5t-66 -6.5q-222 0 -222 183z" />
<glyph unicode="&#xaa;" horiz-adv-x="1343" d="M485 1139q6 144 71.5 239.5t176.5 94.5q89 -4 152 -41l-6 34h125l69 -604h-160v41q-76 -59 -174 -59q-134 0 -197 77t-57 218zM592 1104.5q-1 -25.5 14 -41t41.5 -19.5t79.5 -4q121 0 154 29.5t8 114.5q-3 10 -8 30.5t-7.5 30.5t-9 27t-12.5 25t-17 19.5t-24 16.5t-32 9 t-42 4q-21 0 -35 -4.5t-32 -20.5t-33.5 -52t-30.5 -93q-13 -46 -14 -71.5z" />
<glyph unicode="&#xab;" horiz-adv-x="1093" d="M14 455l56 153l557 463l-15 -293l-290 -241l278 -265l-70 -313zM471 446l55 154l557 463l-14 -293l-291 -242l279 -264l-70 -313z" />
<glyph unicode="&#xac;" horiz-adv-x="1251" d="M109 465v299l1009 -82v-2l27 -619h-332l-4 379z" />
<glyph unicode="&#xad;" horiz-adv-x="1228" d="M100 492v243h1030v-243h-1030z" />
<glyph unicode="&#xae;" horiz-adv-x="1376" d="M246 1792q0 181 129.5 309.5t312.5 128.5q119 0 221 -59t161.5 -160t59.5 -219q0 -185 -129 -314.5t-313 -129.5q-185 0 -313.5 129t-128.5 315zM424 1792q0 -119 88 -197l27 418q-54 -37 -84.5 -94.5t-30.5 -126.5zM600 2044h72q168 0 168 -158q0 -78 -54 -106 q42 -39 60 -101l24 -77q82 79 82 190q0 110 -77.5 188t-186.5 78q-45 0 -88 -14zM602 1542q41 -14 86 -14t86 14h-43l6 125q2 35 -16.5 57t-52.5 5l-33 -15l12 -172h-45zM614 1831h64q19 0 30 1.5t23.5 8t18.5 22t6 40.5q0 49 -17 62t-61 13h-64v-147z" />
<glyph unicode="&#xaf;" horiz-adv-x="1052" d="M94 1253l90 189l686 39l80 -197z" />
<glyph unicode="&#xb0;" horiz-adv-x="1376" d="M246 1075q0 118 58.5 218.5t160.5 159.5t223 60q119 1 221 -57.5t161.5 -160t59.5 -220.5q0 -185 -129 -314.5t-313 -129.5q-185 0 -313.5 129t-128.5 315zM532 1106q0 -66 48.5 -114t115.5 -48t115.5 48t48.5 114q0 69 -48 116.5t-116 47.5t-116 -47.5t-48 -116.5z" />
<glyph unicode="&#xb1;" horiz-adv-x="1269" d="M78 -96l112 223l865 45l100 -233zM109 563v209l413 -2v322h283v-324l356 -2v-209l-356 2v-309h-283v311z" />
<glyph unicode="&#xb2;" horiz-adv-x="655" d="M78 950l28 133q6 30 36 59.5t104 80.5q72 46 105.5 81.5t56.5 77.5q14 32 14 56q0 43 -30.5 69.5t-82.5 26.5q-39 0 -86 -16.5t-133 -59.5l10 150q127 53 209 53q20 0 41 -2t59.5 -14.5t67.5 -33.5t54 -64.5t30 -102.5q-1 -13 1 -28.5t-8 -48t-26 -68t-54 -87t-91 -106.5 h180l15 -156h-500z" />
<glyph unicode="&#xb3;" horiz-adv-x="690" d="M82 946l65 195q102 -41 162 -43q51 -3 96.5 11.5t45.5 37.5q0 42 -37.5 69t-96.5 27h-122l26 127h115q133 0 133 90q0 49 -37.5 68.5t-112.5 19.5q-47 0 -87 -8t-130 -33l35 123q119 33 191 33q120 0 191 -57t71 -152q0 -51 -21 -85t-71 -60q59 -20 83.5 -62t24.5 -114 q0 -52 -11.5 -91.5t-34.5 -64t-48.5 -40t-62 -22.5t-65.5 -9.5t-69 -2.5q-71 0 -118 9.5t-115 33.5z" />
<glyph unicode="&#xb4;" horiz-adv-x="587" d="M76 1133l209 426h215l-140 -426h-284z" />
<glyph unicode="&#xb5;" horiz-adv-x="1755" d="M223 -258l58 1436h254v-2h43l47 -564q8 -105 30.5 -158t66 -77.5t130.5 -34.5q50 -9 90.5 -2t70 34.5t47.5 95t25 179.5l23 527h289l45 -1176h-338l2 39q-102 -74 -297 -74q-216 0 -320 98l-12 -321h-254z" />
<glyph unicode="&#xb6;" horiz-adv-x="1536" d="M205 1075q0 106 57.5 199.5t147.5 147t184 53.5h262l-125 -1756h-483l194 990q-103 47 -170 147.5t-67 218.5zM987 1473h268l35 -1754h-268z" />
<glyph unicode="&#xb7;" horiz-adv-x="534" d="M43 524l82 449h305l62 -449h-449z" />
<glyph unicode="&#xb8;" horiz-adv-x="669" d="M94 -293l117 348h184l-59 -164h-17q120 0 187.5 -61t52.5 -158q-17 -97 -89 -152t-179 -55h-195l47 230q72 -16 90.5 -18.5t61.5 -2.5q8 0 27.5 4.5t35 9t15.5 3.5q0 23 -14.5 31t-59.5 8q-48 0 -205 -23z" />
<glyph unicode="&#xb9;" horiz-adv-x="626" d="M82 946v160l135 2l23 416l-123 -66l16 152q120 73 166 73h84v-573l162 -4v-160h-463z" />
<glyph unicode="&#xba;" horiz-adv-x="1355" d="M489 1169q0 146 80 233t215 87t214 -86.5t79 -233.5q0 -154 -78.5 -243.5t-214.5 -89.5q-137 0 -216 89t-79 244zM647 1186q0 -80 32.5 -109.5t104.5 -29.5q70 0 103 30t33 109q0 81 -37 128.5t-99 47.5q-63 0 -100 -47t-37 -129z" />
<glyph unicode="&#xbb;" horiz-adv-x="1523" d="M225 1063l557 -463l56 -154l-516 -495l-70 313l278 264l-290 242zM682 1071l557 -463l55 -153l-516 -496l-69 313l278 265l-291 241z" />
<glyph unicode="&#xbc;" horiz-adv-x="2553" d="M348 684v225l189 4l28 582l-172 -90l25 211q169 102 233 102h119v-803l225 -6v-225h-647zM614 -147l1069 1742h256l-987 -1742h-338zM1364 166v127l33 47h2l432 594l145 10h11h2l-2 -2l30 -584l125 4v-217l-114 2l12 -243h-262l12 252zM1591 346l209 6l19 336z" />
<glyph unicode="&#xbd;" horiz-adv-x="2553" d="M348 684v225l189 4l28 582l-172 -90l25 211q169 102 233 102h119v-803l225 -6v-225h-647zM614 -147l1069 1742h256l-987 -1742h-338zM1620 -113l41 199q9 45 54.5 90t152.5 115q106 67 155 120.5t82 116.5q21 43 21 82q0 65 -44.5 103.5t-119.5 38.5q-59 0 -130.5 -24.5 t-195.5 -86.5l15 221q184 78 309 78q19 0 39 -1.5t56.5 -8.5t69 -19t69.5 -36.5t65 -57.5t49 -84.5t27 -114.5q19 -209 -264 -497h266l20 -234h-737z" />
<glyph unicode="&#xbe;" horiz-adv-x="2553" d="M348 709l90 272q143 -54 230 -59q69 -5 133.5 16t64.5 51q0 60 -52 97.5t-136 37.5h-172l37 181h162q188 0 188 127q0 69 -52 95.5t-159 26.5q-67 0 -124 -11t-183 -46l49 174q173 47 270 47q168 0 268.5 -80t100.5 -215q0 -70 -30.5 -118.5t-98.5 -83.5 q82 -29 116.5 -88.5t34.5 -161.5q0 -63 -13.5 -113t-34.5 -83.5t-54.5 -58t-66 -37.5t-77.5 -20.5t-80.5 -9.5t-82.5 -2q-101 0 -168 13.5t-160 48.5zM614 -147l1069 1742h256l-987 -1742h-338zM1364 166v127l33 47h2l432 594l145 10h11h2l-2 -2l30 -584l125 4v-217l-114 2 l12 -243h-262l12 252zM1591 346l209 6l19 336z" />
<glyph unicode="&#xbf;" horiz-adv-x="1353" d="M80 -340q3 113 37 212t91 171.5t121.5 124.5t139.5 90v293q135 59 257 101.5t171 45.5q-3 -18 -9.5 -58t-9 -56t-7 -48.5t-7 -54t-5 -53t-3.5 -63.5q-3 -18 -1.5 -93t1.5 -98l-41 -98q-197 -72 -260 -107q-101 -56 -137 -141q-25 -57 -31 -143q-8 -105 13 -209.5 t85 -163.5q55 -50 142 -58.5t174 18t168 78t131 115.5q36 -46 90 -110.5t84 -102.5q-220 -200 -441.5 -249t-441.5 63q-321 172 -311 594zM500 1458h448l-82 -448h-305z" />
<glyph unicode="&#xc0;" d="M164 -4l690 1745h289l688 -1745h-449l-63 266h-641l-82 -266h-432zM518 2302h318l489 -373l-457 35zM782 641h435l-222 702z" />
<glyph unicode="&#xc1;" d="M164 -4l690 1745h289l688 -1745h-449l-63 266h-641l-82 -266h-432zM782 641h435l-222 702zM821 2218l209 426h215l-139 -426h-285z" />
<glyph unicode="&#xc2;" d="M164 -4l690 1745h289l688 -1745h-449l-63 266h-641l-82 -266h-432zM500 1933l364 359l105 151h157l93 -151l362 -359h-262l-281 191l-276 -191h-262zM782 641h435l-222 702z" />
<glyph unicode="&#xc3;" d="M164 -4l690 1745h289l688 -1745h-449l-63 266h-641l-82 -266h-432zM625 1980q14 207 65 283t182 76q42 0 79.5 -21t63 -51.5t47 -60.5t39.5 -51t32 -21q25 0 37 10.5t14 34.5t-2.5 58t-13.5 87l-3 15h146l55 -55q-3 -213 -51 -289.5t-180 -73.5q-45 1 -84 23t-65 53.5 t-47 63t-38.5 53.5t-30.5 22q-21 0 -31 -7t-13.5 -30t2 -65t20.5 -113h-168zM782 641h435l-222 702z" />
<glyph unicode="&#xc4;" d="M164 -4l690 1745h289l688 -1745h-449l-63 266h-641l-82 -266h-432zM502 1987l82 448h305l61 -448h-448zM782 641h435l-222 702zM1059 1987l82 448h305l61 -448h-448z" />
<glyph unicode="&#xc5;" d="M164 -4l690 1745h289l688 -1745h-449l-63 266h-641l-82 -266h-432zM764 2202q0 103 70 176t170 73q99 0 169 -73t70 -176q0 -104 -69.5 -178t-169.5 -74t-170 74t-70 178zM782 641h435l-222 702zM954 2228q0 -41 6 -48t44 -7q37 0 43 7t6 48q0 22 -14.5 37.5t-34.5 15.5 t-35 -15.5t-15 -37.5z" />
<glyph unicode="&#xc6;" horiz-adv-x="2791" d="M164 -4l940 1708h289l65 -260l10 268l1129 37l-80 -285l-723 -39v-368l547 24v-305l-547 -35v-286h731l103 -455h-799l2 -4h-449l-26 260h-641l-119 -260h-432zM874 627h435l-121 688z" />
<glyph unicode="&#xc7;" horiz-adv-x="2029" d="M339.5 621q-16.5 136 4.5 288q26 171 86 311t140 236t181 163t207 99.5t220 38.5q234 11 520 -39l-72 -391q-154 34 -247 44t-191 -1q-390 -44 -420 -444q-9 -109 7.5 -186t66 -133t140.5 -82.5t228 -26.5q260 0 430 88l21 -590h-414l-37 -102h-16q120 0 187.5 -61.5 t52.5 -158.5q-17 -96 -89 -151t-180 -55h-194l47 229q72 -16 90 -18.5t61 -2.5q8 0 27.5 4.5t35 9t15.5 3.5q0 24 -14 31.5t-59 7.5q-48 0 -205 -23l96 287h-158q-102 0 -198 47t-171 130t-128.5 197.5t-70 250.5z" />
<glyph unicode="&#xc8;" horiz-adv-x="1882" d="M332 0l59 1712l1129 37l-80 -285l-723 -39v-368l547 24v-305l-547 -35v-286h731l102 -455h-1218zM453 2386h317l490 -373l-457 35z" />
<glyph unicode="&#xc9;" horiz-adv-x="1882" d="M332 0l59 1712l1129 37l-80 -285l-723 -39v-368l547 24v-305l-547 -35v-286h731l102 -455h-1218zM756 2302l209 426h215l-140 -426h-284z" />
<glyph unicode="&#xca;" horiz-adv-x="1882" d="M332 0l59 1712l1129 37l-80 -285l-723 -39v-368l547 24v-305l-547 -35v-286h731l102 -455h-1218zM434 2017l365 359l104 151h158l92 -151l363 -359h-263l-280 191l-277 -191h-262z" />
<glyph unicode="&#xcb;" horiz-adv-x="1882" d="M332 0l59 1712l1129 37l-80 -285l-723 -39v-368l547 24v-305l-547 -35v-286h731l102 -455h-1218zM436 2071l82 448h305l62 -448h-449zM993 2071l82 448h305l62 -448h-449z" />
<glyph unicode="&#xcc;" horiz-adv-x="1110" d="M55 2464h318l489 -373l-456 35zM332 0q36 306 43.5 677.5t-3.5 633.5t-30 430h373q-41 -824 63 -1741h-446z" />
<glyph unicode="&#xcd;" horiz-adv-x="1110" d="M332 0q36 306 43.5 677.5t-3.5 633.5t-30 430h373q-41 -824 63 -1741h-446zM358 2380l209 426h215l-139 -426h-285z" />
<glyph unicode="&#xce;" horiz-adv-x="1110" d="M37 2095l364 359l105 151h158l92 -151l362 -359h-262l-281 191l-276 -191h-262zM332 0q36 306 43.5 677.5t-3.5 633.5t-30 430h373q-41 -824 63 -1741h-446z" />
<glyph unicode="&#xcf;" horiz-adv-x="1110" d="M39 2148l82 449h305l61 -449h-448zM332 0q36 306 43.5 677.5t-3.5 633.5t-30 430h373q-41 -824 63 -1741h-446zM596 2148l82 449h305l61 -449h-448z" />
<glyph unicode="&#xd0;" horiz-adv-x="2152" d="M-6 705v243h338v793h514q498 0 736.5 -210t238.5 -654q0 -152 -15 -272t-50 -210t-77 -155t-111 -108.5t-136 -70.5t-169 -40.5t-193.5 -18t-223.5 -4.5h-514v707h-338zM700 502h199q330 0 468 87t138 292q0 257 -149.5 384.5t-456.5 127.5h-199v-445h324v-243h-324v-203 z" />
<glyph unicode="&#xd1;" horiz-adv-x="2121" d="M332 -4l137 1657h369l536 -1127l92 1213h324l-92 -1743h-459l-440 1038l41 -1038h-508zM764 2011q14 207 65.5 283t182.5 76q35 0 67.5 -15t55.5 -38t44 -49.5t36 -49.5t30 -38t27 -15q25 0 37.5 10t14 36.5t-2.5 59t-14 89.5q-1 7 -2 10h145l55 -56q-3 -213 -51 -289 t-180 -73q-45 1 -84 23t-64.5 53.5t-46.5 63t-38.5 53.5t-30.5 22q-27 0 -37.5 -14.5t-7.5 -60.5t22 -140h-168z" />
<glyph unicode="&#xd2;" horiz-adv-x="2324" d="M332 836q0 207 59.5 378.5t167 291t262.5 185.5t342 66q251 0 442 -114.5t293 -324.5t95 -484q-5 -174 -24 -301t-59.5 -228.5t-101.5 -166.5t-154 -107.5t-211.5 -59.5t-279.5 -16q-235 2 -391 48.5t-255.5 153t-142 270.5t-42.5 409zM678 2316h317l490 -372l-457 34z M690 836q0 -201 109 -287t364 -86q256 0 363.5 85t107.5 288q0 293 -128.5 467t-342.5 174t-343.5 -174.5t-129.5 -466.5z" />
<glyph unicode="&#xd3;" horiz-adv-x="2324" d="M332 836q0 207 59.5 378.5t167 291t262.5 185.5t342 66q251 0 442 -114.5t293 -324.5t95 -484q-5 -174 -24 -301t-59.5 -228.5t-101.5 -166.5t-154 -107.5t-211.5 -59.5t-279.5 -16q-235 2 -391 48.5t-255.5 153t-142 270.5t-42.5 409zM690 836q0 -201 109 -287t364 -86 q256 0 363.5 85t107.5 288q0 293 -128.5 467t-342.5 174t-343.5 -174.5t-129.5 -466.5zM981 2232l209 426h215l-139 -426h-285z" />
<glyph unicode="&#xd4;" horiz-adv-x="2324" d="M332 836q0 207 59.5 378.5t167 291t262.5 185.5t342 66q251 0 442 -114.5t293 -324.5t95 -484q-5 -174 -24 -301t-59.5 -228.5t-101.5 -166.5t-154 -107.5t-211.5 -59.5t-279.5 -16q-235 2 -391 48.5t-255.5 153t-142 270.5t-42.5 409zM659 1948l365 358l104 152h158 l92 -152l363 -358h-262l-281 190l-276 -190h-263zM690 836q0 -201 109 -287t364 -86q256 0 363.5 85t107.5 288q0 293 -128.5 467t-342.5 174t-343.5 -174.5t-129.5 -466.5z" />
<glyph unicode="&#xd5;" horiz-adv-x="2324" d="M332 836q0 207 59.5 378.5t167 291t262.5 185.5t342 66q251 0 442 -114.5t293 -324.5t95 -484q-5 -174 -24 -301t-59.5 -228.5t-101.5 -166.5t-154 -107.5t-211.5 -59.5t-279.5 -16q-235 2 -391 48.5t-255.5 153t-142 270.5t-42.5 409zM690 836q0 -201 109 -287t364 -86 q256 0 363.5 85t107.5 288q0 293 -128.5 467t-342.5 174t-343.5 -174.5t-129.5 -466.5zM784 1995q14 207 65.5 282.5t182.5 75.5q42 0 79.5 -21t63 -51.5t46.5 -60.5t39 -51t32 -21q25 0 37.5 10t14 36.5t-2.5 59t-14 89.5q-1 7 -2 10h145l56 -55q-3 -213 -51.5 -289.5 t-180.5 -73.5q-45 1 -84 23t-64.5 53.5t-46.5 63t-38.5 53.5t-30.5 22q-21 0 -31 -7t-13.5 -30t2 -65t20.5 -113h-168z" />
<glyph unicode="&#xd6;" horiz-adv-x="2324" d="M332 836q0 207 59.5 378.5t167 291t262.5 185.5t342 66q251 0 442 -114.5t293 -324.5t95 -484q-5 -174 -24 -301t-59.5 -228.5t-101.5 -166.5t-154 -107.5t-211.5 -59.5t-279.5 -16q-235 2 -391 48.5t-255.5 153t-142 270.5t-42.5 409zM662 2001l81 448h306l61 -448h-448 zM690 836q0 -201 109 -287t364 -86q256 0 363.5 85t107.5 288q0 293 -128.5 467t-342.5 174t-343.5 -174.5t-129.5 -466.5zM1219 2001l81 448h306l61 -448h-448z" />
<glyph unicode="&#xd7;" horiz-adv-x="1208" d="M23 160l376 346l-317 325h348l164 -145l151 139h334l-286 -315l397 -350h-455l-135 139l-127 -139h-450z" />
<glyph unicode="&#xd8;" horiz-adv-x="2324" d="M-266 -1081l772 1247q-92 104 -133 267t-41 403q0 207 59.5 378.5t167 291t262.5 185.5t342 66q162 0 299 -49l676 1094l449 98l-820 -1389q114 -124 173 -296t53 -381q-5 -174 -24 -301t-59.5 -228.5t-101.5 -166.5t-154 -107.5t-211.5 -59.5t-279.5 -16q-154 0 -299 27 l-475 -805zM690 836q0 -168 74 -254l541 872q-71 23 -142 23q-214 0 -343.5 -174.5t-129.5 -466.5zM1149 463h14q256 0 363.5 85t107.5 288q0 199 -61 346z" />
<glyph unicode="&#xd9;" horiz-adv-x="2117" d="M332 1741h446l-35 -940q1 -45 -1 -82.5t2.5 -68t7.5 -55.5t14.5 -44.5t22 -34t30.5 -24.5t41 -17t52 -11t64.5 -5.5t78.5 -1.5q49 0 84.5 2t68.5 7t53.5 13.5t40 22.5t28 32.5t18 44t10.5 58.5t3.5 73.5t-1.5 90.5l-33 940h459l-51 -1118q-6 -136 -23.5 -238 t-44.5 -170.5t-64 -113.5t-84 -68t-103.5 -34.5t-122 -11.5h-140.5q-64 1 -98 1t-100 -1h-142.5t-124.5 11.5t-105.5 34.5t-85.5 68t-64.5 113.5t-43 170.5t-20.5 238zM578 2441h317l489 -373l-456 35z" />
<glyph unicode="&#xda;" horiz-adv-x="2117" d="M332 1741h446l-35 -940q1 -45 -1 -82.5t2.5 -68t7.5 -55.5t14.5 -44.5t22 -34t30.5 -24.5t41 -17t52 -11t64.5 -5.5t78.5 -1.5q49 0 84.5 2t68.5 7t53.5 13.5t40 22.5t28 32.5t18 44t10.5 58.5t3.5 73.5t-1.5 90.5l-33 940h459l-51 -1118q-6 -136 -23.5 -238 t-44.5 -170.5t-64 -113.5t-84 -68t-103.5 -34.5t-122 -11.5h-140.5q-64 1 -98 1t-100 -1h-142.5t-124.5 11.5t-105.5 34.5t-85.5 68t-64.5 113.5t-43 170.5t-20.5 238zM881 2357l209 426h215l-140 -426h-284z" />
<glyph unicode="&#xdb;" horiz-adv-x="2117" d="M332 1741h446l-35 -940q1 -45 -1 -82.5t2.5 -68t7.5 -55.5t14.5 -44.5t22 -34t30.5 -24.5t41 -17t52 -11t64.5 -5.5t78.5 -1.5q49 0 84.5 2t68.5 7t53.5 13.5t40 22.5t28 32.5t18 44t10.5 58.5t3.5 73.5t-1.5 90.5l-33 940h459l-51 -1118q-6 -136 -23.5 -238 t-44.5 -170.5t-64 -113.5t-84 -68t-103.5 -34.5t-122 -11.5h-140.5q-64 1 -98 1t-100 -1h-142.5t-124.5 11.5t-105.5 34.5t-85.5 68t-64.5 113.5t-43 170.5t-20.5 238zM559 2073l365 358l104 152h158l92 -152l362 -358h-262l-280 190l-277 -190h-262z" />
<glyph unicode="&#xdc;" horiz-adv-x="2117" d="M332 1741h446l-35 -940q1 -45 -1 -82.5t2.5 -68t7.5 -55.5t14.5 -44.5t22 -34t30.5 -24.5t41 -17t52 -11t64.5 -5.5t78.5 -1.5q49 0 84.5 2t68.5 7t53.5 13.5t40 22.5t28 32.5t18 44t10.5 58.5t3.5 73.5t-1.5 90.5l-33 940h459l-51 -1118q-6 -136 -23.5 -238 t-44.5 -170.5t-64 -113.5t-84 -68t-103.5 -34.5t-122 -11.5h-140.5q-64 1 -98 1t-100 -1h-142.5t-124.5 11.5t-105.5 34.5t-85.5 68t-64.5 113.5t-43 170.5t-20.5 238zM561 2126l82 448h305l62 -448h-449zM1118 2126l82 448h305l62 -448h-449z" />
<glyph unicode="&#xdd;" horiz-adv-x="2203" d="M332 1741h368l404 -772l399 772h369l-565 -1196l20 -547h-483l45 547zM903 2505l209 426h215l-139 -426h-285z" />
<glyph unicode="&#xde;" horiz-adv-x="1146" d="M109 8v1620h249v-250q159 -15 311.5 -86.5t254.5 -188.5t102 -245q0 -129 -101.5 -246t-254 -188t-312.5 -86v-330h-249zM358 690q37 -37 101 -37q58 0 122.5 35.5t108 90.5t43.5 106q0 76 -89 133t-185 57q-63 0 -101 -41v-344z" />
<glyph unicode="&#xdf;" horiz-adv-x="1396" d="M106 -55l62 1194q0 223 135.5 348t376.5 125q233 0 359 -133t126 -379l-53 -56q-128 -6 -196 -49t-68 -114q0 -33 21.5 -60.5t76.5 -62.5l58 -37q165 -108 224.5 -190t59.5 -205q0 -195 -128 -302.5t-361 -107.5q-146 0 -303 55l2 -26h-392zM446 1130l35 -788 q192 -82 328 -82q182 0 182 72q0 23 -18 53q-25 31 -117 88l-90 62q-32 41 -50.5 67.5t-45.5 72t-40.5 92t-13.5 93.5q0 155 73.5 244.5t230.5 124.5q-48 102 -94 131t-150 29q-109 0 -161 -57.5t-69 -201.5z" />
<glyph unicode="&#xe0;" horiz-adv-x="1748" d="M313 524q5 132 39 247.5t92.5 203.5t147.5 138t196 48q70 -2 151 -23t136 -53l-8 66h238l131 -1155h-303v80q-144 -117 -334 -117q-255 0 -376 147t-110 418zM395 1786h318l489 -373l-457 35zM522 427q6 -30 21 -46.5t48.5 -26.5t74.5 -13t108 -3q95 0 157 8t103 26 t57 51t14.5 77.5t-20.5 111.5q-6 21 -15.5 58t-14.5 57.5t-16.5 51t-23.5 47.5t-32.5 37.5t-45 31t-60.5 18t-80 7.5q-32 0 -54.5 -4.5t-51 -23t-51.5 -52.5t-48.5 -96t-48.5 -150q-15 -59 -21 -98t0 -69z" />
<glyph unicode="&#xe1;" horiz-adv-x="1748" d="M313 524q5 132 39 247.5t92.5 203.5t147.5 138t196 48q70 -2 151 -23t136 -53l-8 66h238l131 -1155h-303v80q-144 -117 -334 -117q-255 0 -376 147t-110 418zM522 427q6 -30 21 -46.5t48.5 -26.5t74.5 -13t108 -3q95 0 157 8t103 26t57 51t14.5 77.5t-20.5 111.5 q-6 21 -15.5 58t-14.5 57.5t-16.5 51t-23.5 47.5t-32.5 37.5t-45 31t-60.5 18t-80 7.5q-32 0 -54.5 -4.5t-51 -23t-51.5 -52.5t-48.5 -96t-48.5 -150q-15 -59 -21 -98t0 -69zM698 1702l209 426h215l-139 -426h-285z" />
<glyph unicode="&#xe2;" horiz-adv-x="1748" d="M313 524q5 132 39 247.5t92.5 203.5t147.5 138t196 48q70 -2 151 -23t136 -53l-8 66h238l131 -1155h-303v80q-144 -117 -334 -117q-255 0 -376 147t-110 418zM377 1417l364 359l105 151h158l92 -151l362 -359h-262l-281 191l-276 -191h-262zM522 427q6 -30 21 -46.5 t48.5 -26.5t74.5 -13t108 -3q95 0 157 8t103 26t57 51t14.5 77.5t-20.5 111.5q-6 21 -15.5 58t-14.5 57.5t-16.5 51t-23.5 47.5t-32.5 37.5t-45 31t-60.5 18t-80 7.5q-32 0 -54.5 -4.5t-51 -23t-51.5 -52.5t-48.5 -96t-48.5 -150q-15 -59 -21 -98t0 -69z" />
<glyph unicode="&#xe3;" horiz-adv-x="1748" d="M313 524q5 132 39 247.5t92.5 203.5t147.5 138t196 48q70 -2 151 -23t136 -53l-8 66h238l131 -1155h-303v80q-144 -117 -334 -117q-255 0 -376 147t-110 418zM502 1464q14 207 65.5 283t182.5 76q42 0 79.5 -21t63 -51.5t46.5 -60.5t39 -51t32 -21q25 0 37 10.5t14 34.5 t-2.5 58t-13.5 87l-3 15h146l55 -56q-3 -213 -51 -289t-180 -73q-45 1 -84 23t-64.5 53.5t-46.5 63t-38.5 53.5t-30.5 22q-27 0 -37.5 -14.5t-7.5 -60.5t22 -140h-168zM522 427q6 -30 21 -46.5t48.5 -26.5t74.5 -13t108 -3q95 0 157 8t103 26t57 51t14.5 77.5t-20.5 111.5 q-6 21 -15.5 58t-14.5 57.5t-16.5 51t-23.5 47.5t-32.5 37.5t-45 31t-60.5 18t-80 7.5q-32 0 -54.5 -4.5t-51 -23t-51.5 -52.5t-48.5 -96t-48.5 -150q-15 -59 -21 -98t0 -69z" />
<glyph unicode="&#xe4;" horiz-adv-x="1748" d="M313 524q5 132 39 247.5t92.5 203.5t147.5 138t196 48q70 -2 151 -23t136 -53l-8 66h238l131 -1155h-303v80q-144 -117 -334 -117q-255 0 -376 147t-110 418zM379 1470l82 449h305l61 -449h-448zM522 427q6 -30 21 -46.5t48.5 -26.5t74.5 -13t108 -3q95 0 157 8t103 26 t57 51t14.5 77.5t-20.5 111.5q-6 21 -15.5 58t-14.5 57.5t-16.5 51t-23.5 47.5t-32.5 37.5t-45 31t-60.5 18t-80 7.5q-32 0 -54.5 -4.5t-51 -23t-51.5 -52.5t-48.5 -96t-48.5 -150q-15 -59 -21 -98t0 -69zM936 1470l82 449h305l61 -449h-448z" />
<glyph unicode="&#xe5;" horiz-adv-x="1748" d="M313 524q5 132 39 247.5t92.5 203.5t147.5 138t196 48q70 -2 151 -23t136 -53l-8 66h238l131 -1155h-303v80q-144 -117 -334 -117q-255 0 -376 147t-110 418zM522 427q6 -30 21 -46.5t48.5 -26.5t74.5 -13t108 -3q95 0 157 8t103 26t57 51t14.5 77.5t-20.5 111.5 q-6 21 -15.5 58t-14.5 57.5t-16.5 51t-23.5 47.5t-32.5 37.5t-45 31t-60.5 18t-80 7.5q-32 0 -54.5 -4.5t-51 -23t-51.5 -52.5t-48.5 -96t-48.5 -150q-15 -59 -21 -98t0 -69zM641 1686q0 103 70 176t170 73q99 0 169 -73t70 -176q0 -104 -69.5 -178t-169.5 -74t-170 74 t-70 178zM831 1712q0 -41 6 -48t44 -7q37 0 43 7t6 48q0 22 -14.5 37.5t-34.5 15.5t-35 -15.5t-15 -37.5z" />
<glyph unicode="&#xe6;" horiz-adv-x="2564" d="M313 524q5 132 39 247.5t92.5 203.5t147.5 138t196 48q70 -2 151 -23t136 -53l-8 66h238l12 -100q157 151 409 151h5q230 -19 354.5 -165t165.5 -443l-850 -57q16 -111 104.5 -163.5t255.5 -74.5q134 -17 224 3t239 97v-338q-231 -108 -467 -108q-185 0 -323 63l2 -20 h-303v80q-144 -117 -334 -117q-255 0 -376 147t-110 418zM522 427q6 -30 21 -46.5t48.5 -26.5t74.5 -13t108 -3q95 0 157 8t103 26t57 51t14.5 77.5t-20.5 111.5q-6 21 -15.5 58t-14.5 57.5t-16.5 51t-23.5 47.5t-32.5 37.5t-45 31t-60.5 18t-80 7.5q-32 0 -54.5 -4.5 t-51 -23t-51.5 -52.5t-48.5 -96t-48.5 -150q-15 -59 -21 -98t0 -69zM1454 823l516 19q-31 68 -96.5 109t-147.5 44q-94 3 -170 -47.5t-102 -124.5z" />
<glyph unicode="&#xe7;" horiz-adv-x="1599" d="M313 559q0 311 166.5 483.5t460.5 159.5q76 -3 147.5 -16.5t81.5 -32.5v-252q-145 45 -270 39q-47 -2 -83.5 -8t-64.5 -19t-47.5 -27.5t-33 -39.5t-22 -50t-12.5 -65t-5.5 -77t-1.5 -93q7 -96 45.5 -165.5t95.5 -101t132 -18.5t151 74l233 -262q-110 -60 -182 -79 t-172 -21l-12 -35h-17q120 0 187.5 -61t52.5 -158q-17 -96 -89 -151.5t-180 -55.5h-194l47 229q69 -15 88 -17.5t64 -2.5q8 0 27.5 4.5t34.5 8.5t15 3q0 24 -14 31.5t-59 7.5q-55 0 -205 -22l78 231q-443 70 -443 559z" />
<glyph unicode="&#xe8;" horiz-adv-x="1757" d="M313 549v2q12 302 174.5 476.5t432.5 174.5h4q230 -19 354.5 -165t165.5 -443l-850 -57q16 -111 104.5 -163.5t255.5 -74.5q134 -17 224 3t239 97v-338q-231 -108 -467 -108q-295 0 -466 155.5t-171 440.5zM406 2030h317l489 -373l-456 35zM647 823l516 19 q-31 68 -96 109t-147 44q-94 3 -170.5 -47.5t-102.5 -124.5z" />
<glyph unicode="&#xe9;" horiz-adv-x="1757" d="M313 549v2q12 302 174.5 476.5t432.5 174.5h4q230 -19 354.5 -165t165.5 -443l-850 -57q16 -111 104.5 -163.5t255.5 -74.5q134 -17 224 3t239 97v-338q-231 -108 -467 -108q-295 0 -466 155.5t-171 440.5zM647 823l516 19q-31 68 -96 109t-147 44q-94 3 -170.5 -47.5 t-102.5 -124.5zM709 1946l209 426h215l-140 -426h-284z" />
<glyph unicode="&#xea;" horiz-adv-x="1757" d="M313 549v2q12 302 174.5 476.5t432.5 174.5h4q230 -19 354.5 -165t165.5 -443l-850 -57q16 -111 104.5 -163.5t255.5 -74.5q134 -17 224 3t239 97v-338q-231 -108 -467 -108q-295 0 -466 155.5t-171 440.5zM387 1661l365 358l104 152h158l92 -152l362 -358h-262l-280 190 l-277 -190h-262zM647 823l516 19q-31 68 -96 109t-147 44q-94 3 -170.5 -47.5t-102.5 -124.5z" />
<glyph unicode="&#xeb;" horiz-adv-x="1757" d="M313 549v2q12 302 174.5 476.5t432.5 174.5h4q230 -19 354.5 -165t165.5 -443l-850 -57q16 -111 104.5 -163.5t255.5 -74.5q134 -17 224 3t239 97v-338q-231 -108 -467 -108q-295 0 -466 155.5t-171 440.5zM389 1714l82 449h305l62 -449h-449zM647 823l516 19 q-31 68 -96 109t-147 44q-94 3 -170.5 -47.5t-102.5 -124.5zM946 1714l82 449h305l62 -449h-449z" />
<glyph unicode="&#xec;" horiz-adv-x="987" d="M0 1735h317l490 -373l-457 35zM309 -4q26 379 34.5 583.5t8.5 563.5h277q-9 -222 -10 -373.5t14 -357.5t51 -416h-375z" />
<glyph unicode="&#xed;" horiz-adv-x="987" d="M303 1651l209 426h215l-139 -426h-285zM309 -4q26 379 34.5 583.5t8.5 563.5h277q-9 -222 -10 -373.5t14 -357.5t51 -416h-375z" />
<glyph unicode="&#xee;" horiz-adv-x="987" d="M-18 1366l364 358l105 152h157l92 -152l363 -358h-262l-281 190l-276 -190h-262zM309 -4q26 379 34.5 583.5t8.5 563.5h277q-9 -222 -10 -373.5t14 -357.5t51 -416h-375z" />
<glyph unicode="&#xef;" horiz-adv-x="987" d="M37 1376l74 393h268l53 -393h-395zM309 -4q26 379 34.5 583.5t8.5 563.5h277q-9 -222 -10 -373.5t14 -357.5t51 -416h-375zM528 1376l72 393h268l56 -393h-396z" />
<glyph unicode="&#xf0;" horiz-adv-x="1421" d="M-37 479q0 258 147 410.5t396 152.5q225 0 352 -184q28 169 33 232h-404v243h392q-18 56 -84 74t-207 10l117 250q202 9 326.5 -79.5t125.5 -244.5v-10h361v-243h-371q-13 -156 -39 -337l-2 -16q-69 -447 -202 -634t-386 -187q-249 0 -402 155t-153 408zM276 479 q0 -82 67.5 -134t174.5 -52q109 0 180 53.5t60 124.5q-47 301 -240 301q-114 0 -178 -77.5t-64 -215.5z" />
<glyph unicode="&#xf1;" horiz-adv-x="1787" d="M313 0l90 1194h230l24 -92q134 85 297 90q225 7 338 -121t133 -405l50 -666h-406l70 698q24 234 -205 234q-131 0 -206.5 -75t-65.5 -210l53 -647h-402zM594 1563q14 207 65.5 282.5t182.5 75.5q42 0 79.5 -21t63 -51.5t46.5 -60.5t39 -51t32 -21q25 0 37.5 10t14 36.5 t-2.5 59t-14 89.5q-1 7 -2 10h145l55 -55q-3 -213 -51 -289.5t-180 -73.5q-45 1 -84 23t-64.5 53.5t-46.5 63t-38.5 53.5t-30.5 22q-27 0 -37.5 -14.5t-7.5 -60.5t22 -140h-168z" />
<glyph unicode="&#xf2;" horiz-adv-x="1765" d="M313 616q0 284 154.5 452.5t415.5 168.5t415 -168.5t154 -452.5q0 -297 -152.5 -470t-416.5 -173t-417 172.5t-153 470.5zM397 1800h318l489 -373l-456 35zM618 649q0 -153 64 -210.5t201 -57.5t200.5 57.5t63.5 210.5q0 158 -71.5 250t-192.5 92q-122 0 -193.5 -92 t-71.5 -250z" />
<glyph unicode="&#xf3;" horiz-adv-x="1765" d="M313 616q0 284 154.5 452.5t415.5 168.5t415 -168.5t154 -452.5q0 -297 -152.5 -470t-416.5 -173t-417 172.5t-153 470.5zM618 649q0 -153 64 -210.5t201 -57.5t200.5 57.5t63.5 210.5q0 158 -71.5 250t-192.5 92q-122 0 -193.5 -92t-71.5 -250zM700 1716l209 426h215 l-139 -426h-285z" />
<glyph unicode="&#xf4;" horiz-adv-x="1765" d="M313 616q0 284 154.5 452.5t415.5 168.5t415 -168.5t154 -452.5q0 -297 -152.5 -470t-416.5 -173t-417 172.5t-153 470.5zM379 1432l364 358l105 152h158l92 -152l362 -358h-262l-280 190l-277 -190h-262zM618 649q0 -153 64 -210.5t201 -57.5t200.5 57.5t63.5 210.5 q0 158 -71.5 250t-192.5 92q-122 0 -193.5 -92t-71.5 -250z" />
<glyph unicode="&#xf5;" horiz-adv-x="1765" d="M313 616q0 284 154.5 452.5t415.5 168.5t415 -168.5t154 -452.5q0 -297 -152.5 -470t-416.5 -173t-417 172.5t-153 470.5zM504 1479q14 207 65.5 282.5t182.5 75.5q42 0 79.5 -21t63 -51.5t46.5 -60.5t39 -51t32 -21q25 0 37 10.5t14 34.5t-2.5 58t-13.5 87l-3 15h146 l55 -55q-3 -213 -51 -289.5t-180 -73.5q-45 1 -84 23t-64.5 53.5t-46.5 63t-38.5 53.5t-30.5 22q-27 0 -37.5 -14.5t-7.5 -60.5t22 -140h-168zM618 649q0 -153 64 -210.5t201 -57.5t200.5 57.5t63.5 210.5q0 158 -71.5 250t-192.5 92q-122 0 -193.5 -92t-71.5 -250z" />
<glyph unicode="&#xf6;" horiz-adv-x="1765" d="M313 616q0 284 154.5 452.5t415.5 168.5t415 -168.5t154 -452.5q0 -297 -152.5 -470t-416.5 -173t-417 172.5t-153 470.5zM381 1485l82 448h305l61 -448h-448zM618 649q0 -153 64 -210.5t201 -57.5t200.5 57.5t63.5 210.5q0 158 -71.5 250t-192.5 92q-122 0 -193.5 -92 t-71.5 -250zM938 1485l82 448h305l61 -448h-448z" />
<glyph unicode="&#xf7;" horiz-adv-x="1837" d="M184 559l154 256l1167 53l135 -268zM647 -14l82 448h305l62 -448h-449zM647 987l82 449h305l62 -449h-449z" />
<glyph unicode="&#xf8;" horiz-adv-x="1765" d="M213 -1096l346 1159q-118 79 -182 221.5t-64 331.5q0 284 154.5 452.5t415.5 168.5h26l299 1001l320 164l-342 -1243q127 -76 196.5 -216t69.5 -327q0 -297 -152.5 -470t-416.5 -173h-23l-205 -745zM618 649q0 -138 56 -200l162 538q-103 -19 -160.5 -108t-57.5 -230z M975 387q88 16 130 76.5t42 185.5q0 122 -45 207z" />
<glyph unicode="&#xf9;" horiz-adv-x="1755" d="M313 1176h265l47 -564q8 -105 30.5 -158t66 -77.5t130.5 -34.5q50 -9 90.5 -2t70 34.5t47.5 95t25 179.5l23 527h289l45 -1176h-338l2 39q-102 -74 -297 -74q-228 0 -331 110.5t-118 362.5zM401 1765h318l489 -372l-456 34z" />
<glyph unicode="&#xfa;" horiz-adv-x="1755" d="M313 1176h265l47 -564q8 -105 30.5 -158t66 -77.5t130.5 -34.5q50 -9 90.5 -2t70 34.5t47.5 95t25 179.5l23 527h289l45 -1176h-338l2 39q-102 -74 -297 -74q-228 0 -331 110.5t-118 362.5zM705 1681l208 426h215l-139 -426h-284z" />
<glyph unicode="&#xfb;" horiz-adv-x="1755" d="M313 1176h265l47 -564q8 -105 30.5 -158t66 -77.5t130.5 -34.5q50 -9 90.5 -2t70 34.5t47.5 95t25 179.5l23 527h289l45 -1176h-338l2 39q-102 -74 -297 -74q-228 0 -331 110.5t-118 362.5zM383 1397l365 358l104 152h158l92 -152l362 -358h-262l-280 190l-277 -190h-262 z" />
<glyph unicode="&#xfc;" horiz-adv-x="1755" d="M313 1176h265l47 -564q8 -105 30.5 -158t66 -77.5t130.5 -34.5q50 -9 90.5 -2t70 34.5t47.5 95t25 179.5l23 527h289l45 -1176h-338l2 39q-102 -74 -297 -74q-228 0 -331 110.5t-118 362.5zM385 1450l82 448h305l62 -448h-449zM942 1450l82 448h305l62 -448h-449z" />
<glyph unicode="&#xfd;" horiz-adv-x="1894" d="M313 1151h324l414 -702l219 702h311l-442 -1382q-49 -155 -182 -254t-314 -99h-223v355h184q71 0 142.5 38.5t107.5 103t-2 148.5zM811 1929l209 426h215l-139 -426h-285z" />
<glyph unicode="&#xfe;" horiz-adv-x="1146" d="M109 1694h290l7 -340q173 -18 319 -102t231 -215t82 -277q-6 -276 -178.5 -471t-435.5 -234l8 -479h-291zM410 1090l10 -754q30 2 74 22.5t93.5 59.5t92 89.5t71.5 120t31 142.5q1 50 -65 127t-154.5 135t-146.5 58h-6z" />
<glyph unicode="&#xff;" horiz-adv-x="1894" d="M313 1151h324l414 -702l219 702h311l-442 -1382q-49 -155 -182 -254t-314 -99h-223v355h184q71 0 142.5 38.5t107.5 103t-2 148.5zM492 1698l81 448h306l61 -448h-448zM1049 1698l81 448h306l61 -448h-448z" />
<glyph unicode="&#x152;" horiz-adv-x="2463" d="M332 836q0 207 59.5 378.5t167 291t262.5 185.5t342 66q204 0 375 -80v13l1128 36l-79 -284l-723 -39v-23q89 -149 116 -340l430 19v-305l-421 -27q-9 -166 -39 -295h645l102 -455h-1218q-124 -22 -316 -22q-235 2 -391 48.5t-255.5 153t-142 270.5t-42.5 409zM690 836 q0 -201 109 -287t364 -86q227 0 334 65l27 748q-62 97 -154.5 149t-206.5 52q-214 0 -343.5 -174.5t-129.5 -466.5z" />
<glyph unicode="&#x153;" horiz-adv-x="2191" d="M313 616q0 284 154.5 452.5t415.5 168.5q146 0 262 -55.5t190 -157.5q77 86 189.5 132t247.5 46h4q230 -19 354.5 -165t165.5 -443l-848 -57v-13q19 -103 106.5 -153t251.5 -72q134 -17 224 3t239 97v-338q-231 -108 -467 -108q-334 0 -504 194q-151 -174 -415 -174 t-417 172.5t-153 470.5zM618 649q0 -153 64 -210.5t201 -57.5t200.5 57.5t63.5 210.5q0 158 -71.5 250t-192.5 92q-122 0 -193.5 -92t-71.5 -250zM1499 823l516 19q-31 68 -96 109t-147 44q-94 3 -170.5 -47.5t-102.5 -124.5z" />
<glyph unicode="&#x178;" horiz-adv-x="2203" d="M332 1741h368l404 -772l399 772h369l-565 -1196l20 -547h-483l45 547zM584 2273l82 449h305l61 -449h-448zM1141 2273l82 449h305l61 -449h-448z" />
<glyph unicode="&#x2c6;" horiz-adv-x="1138" d="M68 1466l364 359l105 151h157l92 -151l363 -359h-262l-281 191l-276 -191h-262z" />
<glyph unicode="&#x2dc;" horiz-adv-x="958" d="M109 1190q14 207 65 282.5t182 75.5q35 0 67.5 -15t55.5 -38t44 -49.5t36 -49.5t30 -38t27 -15q25 0 37.5 10t14 36.5t-2.5 59t-14 89.5q-1 7 -2 10h146l55 -55q-3 -213 -51.5 -289.5t-180.5 -73.5q-45 1 -84 23t-64.5 54t-46.5 63.5t-38.5 53.5t-30.5 22q-21 0 -31 -7 t-13.5 -30.5t2 -65.5t20.5 -113h-168z" />
<glyph unicode="&#x2000;" horiz-adv-x="1465" />
<glyph unicode="&#x2001;" horiz-adv-x="2931" />
<glyph unicode="&#x2002;" horiz-adv-x="1465" />
<glyph unicode="&#x2003;" horiz-adv-x="2931" />
<glyph unicode="&#x2004;" horiz-adv-x="977" />
<glyph unicode="&#x2005;" horiz-adv-x="732" />
<glyph unicode="&#x2006;" horiz-adv-x="488" />
<glyph unicode="&#x2007;" horiz-adv-x="488" />
<glyph unicode="&#x2008;" horiz-adv-x="366" />
<glyph unicode="&#x2009;" horiz-adv-x="586" />
<glyph unicode="&#x200a;" horiz-adv-x="162" />
<glyph unicode="&#x2010;" horiz-adv-x="1128" d="M49 492v243h1030v-243h-1030z" />
<glyph unicode="&#x2011;" horiz-adv-x="1128" d="M49 492v243h1030v-243h-1030z" />
<glyph unicode="&#x2012;" horiz-adv-x="1128" d="M49 492v243h1030v-243h-1030z" />
<glyph unicode="&#x2013;" horiz-adv-x="1630" d="M102 444l33 297l1393 -4l-33 -297z" />
<glyph unicode="&#x2014;" horiz-adv-x="2334" d="M104 444l31 297l2073 -4l-33 -297z" />
<glyph unicode="&#x2018;" horiz-adv-x="882" d="M123 1804h504l-15 -297l148 -401h-436z" />
<glyph unicode="&#x2019;" horiz-adv-x="882" d="M123 1106l147 401l-14 297h504l-201 -698h-436z" />
<glyph unicode="&#x201a;" horiz-adv-x="657" d="M4 -371l148 402l-15 297h504l-201 -699h-436z" />
<glyph unicode="&#x201c;" horiz-adv-x="1554" d="M123 1804h504l-15 -297l148 -401h-436zM795 1804h503l-14 -297l148 -401h-437z" />
<glyph unicode="&#x201d;" horiz-adv-x="1554" d="M123 1106l147 401l-14 297h504l-201 -698h-436zM795 1106l147 401l-14 297h504l-201 -698h-436z" />
<glyph unicode="&#x201e;" horiz-adv-x="657" d="M4 -371l148 402l-15 297h504l-201 -699h-436z" />
<glyph unicode="&#x2022;" horiz-adv-x="1042" d="M-254 274l285 1549h1052l213 -1549h-1550z" />
<glyph unicode="&#x2026;" horiz-adv-x="1933" d="M43 2l82 449h305l62 -449h-449zM764 2l82 449h305l61 -449h-448zM1442 2l82 449h305l61 -449h-448z" />
<glyph unicode="&#x202f;" horiz-adv-x="586" />
<glyph unicode="&#x2039;" horiz-adv-x="854" d="M123 494l55 153l557 463l-14 -293l-291 -242l279 -264l-70 -313z" />
<glyph unicode="&#x203a;" horiz-adv-x="854" d="M119 1110l557 -463l55 -153l-516 -496l-70 313l279 264l-291 242z" />
<glyph unicode="&#x205f;" horiz-adv-x="732" />
<glyph unicode="&#x20ac;" horiz-adv-x="1523" d="M78 342l112 256l250 16l-2 95q0 12 -0.5 33.5t-0.5 40t1 34.5l-360 -14l112 256l263 16q15 104 44 183t79.5 142.5t124.5 103t175.5 60t236 17.5t304.5 -29v-274l-67 -53q-242 57 -375.5 27.5t-186.5 -156.5l267 16l100 -268l-412 -17v-36l5 -158l307 18l100 -268 l-360 -14q16 -40 38 -69.5t45.5 -48t60 -30.5t69 -17t84.5 -6.5t93.5 -0.5t110 2t121.5 0v-344l-53 -56q-178 -5 -308 3.5t-229 36t-163.5 68.5t-108 108t-65.5 147t-33 194z" />
<glyph unicode="&#x2122;" horiz-adv-x="1486" d="M123 1755v117h471v-117l-180 6l14 -446h-137l12 446zM807 1329l20 543h138l125 -293l118 293h131l25 -543h-158l33 334l-98 -309h-101l-114 307l26 -332h-145z" />
<glyph unicode="&#x25fc;" horiz-adv-x="1157" d="M0 0v1157h1157v-1157h-1157z" />
<glyph unicode="&#xfb01;" horiz-adv-x="1980" d="M307 883v293h166q6 282 88.5 394.5t282.5 112.5h219v-264h-221q-36 0 -58 -24.5t-29 -65.5t-6.5 -79t5.5 -79l327 5v-293h-290l30 -885h-381l31 885h-164zM1225 1419l82 449h305l61 -449h-448zM1280 -8q26 379 34.5 583.5t8.5 563.5h276q-9 -220 -10 -373t14.5 -358.5 t51.5 -415.5h-375z" />
<glyph unicode="&#xfb02;" horiz-adv-x="2222" d="M307 883v293h166q6 282 88.5 394.5t282.5 112.5h219v-264h-221q-36 0 -58 -24.5t-29 -65.5t-6.5 -79t5.5 -79l327 5v-293h-290l30 -885h-381l31 885h-164zM1327 -12q-9 99 17 710t73 1031h285q-52 -404 -72 -1459h236l49 -282h-588z" />
<glyph unicode="&#xfb03;" horiz-adv-x="2717" d="M352 883v293h166q6 282 88.5 394.5t282.5 112.5h219v-264h-221q-35 0 -57 -23.5t-29 -63t-7 -77t5 -79.5h563q6 282 88.5 394.5t282.5 112.5h219v-264h-221q-47 0 -71 -43.5t-23 -98.5t5 -106l328 5v-293h-291l31 -885h-381l31 885h-524l30 -885h-381l31 885h-164z M2114 1419l81 449h306l61 -449h-448zM2169 -8q26 379 34.5 583.5t8.5 563.5h276q-9 -220 -10 -373t14.5 -358.5t51.5 -415.5h-375z" />
<glyph unicode="&#xfb04;" horiz-adv-x="3065" d="M307 883v293h166q6 282 88.5 394.5t282.5 112.5h219v-264h-221q-35 0 -57 -23.5t-29 -63t-7 -77t5 -79.5h563q6 282 88.5 394.5t282.5 112.5h219v-264h-221q-47 0 -71 -43.5t-23 -98.5t5 -106l328 5v-293h-291l31 -885h-381l31 885h-524l30 -885h-381l31 885h-164z M2171 -12q-9 99 17 710t73 1031h285q-52 -404 -72 -1459h236l49 -282h-588z" />
</font>
</defs>
</svg>
