<?xml version="1.0" standalone="no"?>
<!DOCTYPE svg PUBLIC "-//W3C//DTD SVG 1.1//EN" "http://www.w3.org/Graphics/SVG/1.1/DTD/svg11.dtd" >
<svg xmlns="http://www.w3.org/2000/svg" xmlns:xlink="http://www.w3.org/1999/xlink" version="1.1">
<metadata></metadata>
<defs>
<font id="opendyslexicregular" horiz-adv-x="2326" >
<font-face units-per-em="2048" ascent="1638" descent="-410" />
<missing-glyph horiz-adv-x="1734" />
<glyph horiz-adv-x="0" />
<glyph horiz-adv-x="682" />
<glyph unicode=" "  horiz-adv-x="1734" />
<glyph unicode="&#x09;" horiz-adv-x="1734" />
<glyph unicode="&#xa0;" horiz-adv-x="1734" />
<glyph unicode="!" horiz-adv-x="690" d="M86 -4l90 418h270l62 -418h-422zM215 594l100 1384l172 47v-1486z" />
<glyph unicode="&#x22;" horiz-adv-x="1112" d="M98 1163l21 576h350l-55 -285h-19l15 -291h-312zM635 1163l20 576h351l-56 -285h-18l14 -291h-311z" />
<glyph unicode="#" horiz-adv-x="2330" d="M164 324l76 176h397l74 497h-496l53 177h467l72 481h176l-41 -481h416l63 485h176l-43 -485h613l-60 -177h-567l-43 -497h610l-51 -176h-573l-37 -414h-256l55 414h-377l-37 -418h-282l61 418h-446zM883 500h385l65 497h-407z" />
<glyph unicode="$" horiz-adv-x="2482" d="M420 84l266 326q73 -48 350 -60v395q-229 52 -332.5 151.5t-103.5 264.5q0 90 24.5 165.5t75 138.5t135 107t197.5 64v191l148 8v-184q20 2 59 2l115 -2v172l147 8v-189q152 -10 256 -30l-37 -228q-43 4 -105.5 19t-113.5 18l2 -503q119 -32 218.5 -77.5t177.5 -103 t121.5 -131t43.5 -153.5q0 -161 -143.5 -283t-415.5 -170v-227l-145 -9v216q-96 -7 -176 -7v-196l-146 -8v204q-227 -2 -362.5 17.5t-255.5 93.5zM858 1174q-6 -70 36.5 -105.5t139.5 -58.5v354q-165 -63 -176 -190zM1180 1403l2 -424q1 0 6.5 -1t7.5 -1l145 -25q2 0 8 -1 t7 -1v469h-17q-107 -8 -159 -16zM1182 346h80l96 2v338l-88 19l-88 14v-373zM1503 383q59 39 62 117q0 79 -62 125v-242z" />
<glyph unicode="%" horiz-adv-x="2027" d="M465 1008q0 161 84 254.5t231 93.5t232.5 -94t85.5 -254q0 -156 -86 -252.5t-232 -96.5t-230.5 96.5t-84.5 252.5zM563 -92l1002 1632h131l-926 -1632h-207zM584 1028q0 -116 41 -151t155 -35q58 0 92.5 6.5t60 26.5t35 56.5t9.5 96.5q0 121 -49.5 171t-147.5 50 q-96 0 -146 -50.5t-50 -170.5zM1106 332q0 161 84 254.5t231 93.5t232.5 -94t85.5 -254q0 -156 -86 -252t-232 -96t-230.5 96t-84.5 252zM1225 352q0 -116 41 -151t155 -35q58 0 92.5 6.5t60 26.5t35 56.5t9.5 96.5q0 121 -49.5 171t-147.5 50q-96 0 -146 -50.5t-50 -170.5z " />
<glyph unicode="&#x26;" horiz-adv-x="1976" d="M246 475q15 293 311 500l-135 119q-90 78 -112 176t36 215q22 42 67 77t100 56.5t107.5 34.5t100.5 18q57 8 121 4t121.5 -16t111.5 -46.5t92 -88.5q54 -76 65 -131t-9 -113q-32 -119 -238 -262l-111 -78l496 -461q100 112 152 260h209q3 -221 -181 -428l138 -127 q-27 -35 -91 -108l-151 131q-127 -107 -246 -156q-56 -23 -102.5 -37t-130.5 -24t-172 -2q-218 20 -402 155q-57 40 -103.5 149.5t-43.5 182.5zM512.5 1360.5q-2.5 -40.5 14.5 -78t46 -63.5l152 -140q58 33 93 54.5t79 54t68.5 59.5t41.5 62.5t17 72.5q0 44 -21 74t-60 44.5 t-84 19t-105 2.5q-83 -2 -139 -26t-78 -59.5t-24.5 -76zM592 410q36 -72 135 -111t207 -39q53 0 141.5 27.5t175.5 87.5l-522 452q-238 -216 -137 -417z" />
<glyph unicode="'" horiz-adv-x="555" d="M92 958l21 576h350l-55 -285h-19l14 -291h-311z" />
<glyph unicode="(" horiz-adv-x="894" d="M209 666q0 81 1.5 133.5t10 145t24 169t46.5 187.5t75 219.5t111.5 247t153.5 286.5l160 -14q-80 -147 -142 -283t-102.5 -241t-69 -213.5t-42.5 -181.5t-22 -165t-9 -143.5t-1 -136.5q0 -268 93.5 -617.5t304.5 -740.5h-256q-166 366 -251 725.5t-85 622.5z" />
<glyph unicode=")" horiz-adv-x="894" d="M94 -682q211 391 304.5 740.5t93.5 617.5q0 85 -1 136.5t-9 143.5t-22 165t-42.5 181.5t-69 213.5t-102.5 241t-142 283l160 14q86 -148 153.5 -286.5t111.5 -247t75 -219.5t46.5 -187.5t24 -169t10 -145t1.5 -133.5q0 -263 -85 -622.5t-251 -725.5h-256z" />
<glyph unicode="*" horiz-adv-x="1300" d="M164 1206l88 140l336 -203l-39 338l153 39v-377l377 243l17 -139l-359 -194l400 -156l-99 -137l-336 203l39 -347l-153 -30v377l-295 -242l-98 137l358 195z" />
<glyph unicode="+" horiz-adv-x="1269" d="M164 496v151l414 -2v404h172v-406l356 -2v-152l-356 3v-388h-172v390z" />
<glyph unicode="," horiz-adv-x="657" d="M100 -305l105 291h-17l33 284h350l-159 -575h-312z" />
<glyph unicode="-" horiz-adv-x="1230" d="M164 500v211h903v-211h-903z" />
<glyph unicode="." horiz-adv-x="534" d="M102 -4l72 336h217l49 -336h-338z" />
<glyph unicode="/" horiz-adv-x="1189" d="M41 -942l920 3058l188 96l-817 -2941z" />
<glyph unicode="0" horiz-adv-x="1359" d="M164 745q0 381 134.5 578t387.5 197q252 0 381 -195.5t129 -579.5q0 -379 -130 -576.5t-382 -197.5q-251 0 -385.5 198.5t-134.5 575.5zM377 891q0 -283 75.5 -416t231.5 -133q153 0 226 132.5t94 416.5q0 549 -318 549q-309 0 -309 -549zM578 840q0 50 4 87t14.5 73 t33 55.5t56.5 19.5q59 0 80.5 -58.5t21.5 -176.5q0 -32 -4.5 -61t-15 -58t-31.5 -46.5t-51 -17.5q-31 0 -53 17.5t-33.5 46t-16.5 58t-5 61.5z" />
<glyph unicode="1" horiz-adv-x="1187" d="M164 0v281l280 8l52 1020l-252 -133l20 186q217 131 299 131h123v-1202l338 -10v-281h-860z" />
<glyph unicode="2" horiz-adv-x="1308" d="M164 0l51 289q5 31 29 63.5t69.5 69.5t84.5 64t104 69q165 107 245 195t130 184q36 71 36 147q0 119 -83.5 194t-217.5 75q-190 0 -426 -133l13 204q246 99 409 99q232 0 370 -115.5t138 -310.5v-26q0 -39 -0.5 -58.5t-3 -55.5t-9 -58.5t-17.5 -59.5t-29 -67t-43.5 -71.5 t-61.5 -83.5t-81.5 -92.5t-104.5 -108t-131 -122.5h487l23 -291h-981z" />
<glyph unicode="3" horiz-adv-x="1310" d="M164 45l92 274q49 -19 157 -32t162 -13q86 0 148 9t101.5 25.5t62.5 43t32 57.5t9 74q0 109 -89.5 183.5t-248.5 74.5h-193l37 160h195q161 0 249.5 56.5t88.5 189.5q0 117 -104.5 178t-266.5 61q-181 0 -387 -69l47 143q121 34 196.5 47t161.5 13q230 0 364 -104 t134 -283q0 -123 -63.5 -199t-208.5 -129q170 -25 238.5 -111.5t68.5 -238.5q0 -239 -150.5 -361.5t-433.5 -122.5q-186 0 -399 74z" />
<glyph unicode="4" horiz-adv-x="1361" d="M164 596l649 893l102 6l9 -113l4 -2l-2 -4l61 -755l211 6v-209l-194 -2l34 -416h-317l27 416l-463 -4l-2 -2l-2 2h-93zM412 604l348 10l35 566z" />
<glyph unicode="5" horiz-adv-x="1294" d="M164 35l69 342q103 -56 170 -76t170 -20q159 0 241.5 70.5t82.5 158.5q0 56 -11 98t-34.5 68t-49 42.5t-66 24t-72.5 9.5t-80 2q-129 0 -396 -33l33 760l803 12l6 -150h-661l20 -430h199q78 0 151 -12.5t145.5 -44t126 -79t86.5 -124.5t33 -174q0 -242 -150 -375 t-423 -133q-186 0 -393 64z" />
<glyph unicode="6" horiz-adv-x="1359" d="M164 745q0 354 168 564.5t450 210.5h316v-160h-307q-205 0 -308 -119t-118 -395q67 78 149.5 109.5t194.5 31.5q226 0 356.5 -136.5t130.5 -371.5q0 -230 -137 -369t-363 -139q-258 0 -395 198.5t-137 575.5zM401 479q0 -103 81.5 -172t213.5 -69q134 0 215.5 68.5 t81.5 172.5q0 161 -80 254.5t-217 93.5q-135 0 -215 -93.5t-80 -254.5z" />
<glyph unicode="7" horiz-adv-x="1286" d="M164 1343l6 146l952 -25l-221 -1464h-354l366 1315z" />
<glyph unicode="8" horiz-adv-x="1396" d="M166 420q14 144 99.5 243t230.5 132q-123 31 -188.5 126.5t-65.5 211.5q0 164 119.5 265t336.5 101t337 -101t120 -265q0 -116 -65.5 -211.5t-188.5 -126.5q146 -34 232.5 -133t97.5 -242q11 -141 -54.5 -244t-189 -154t-289.5 -51q-255 0 -404 119t-128 330zM395 418 q3 -98 85.5 -171t219.5 -73t219 73.5t82 170.5q0 47 -20.5 97t-57.5 94.5t-96 72.5t-129 27q-92 -1 -164 -47.5t-106.5 -111.5t-32.5 -132zM422 1174q0 -119 74.5 -199t201.5 -80q126 0 201.5 80t75.5 199q0 111 -73 169t-204 58q-132 0 -204 -58t-72 -169z" />
<glyph unicode="9" horiz-adv-x="1357" d="M164 1012q0 230 136 369t362 139q133 0 229.5 -41t165.5 -132t103 -240.5t34 -361.5q0 -123 -9 -222.5t-23.5 -175.5t-42.5 -133.5t-54.5 -97t-71.5 -66.5t-82.5 -42.5t-98 -23t-107.5 -9.5t-121 -2q-76 0 -136 5.5t-96 12t-114 23.5l47 277q53 -19 86.5 -28t104 -15.5 t173.5 -5.5q42 0 66 0.5t58 3.5t53 9t44.5 17t39.5 27t30.5 40t25.5 55.5t16.5 73t10.5 93.5q-177 -55 -344 -55q-224 0 -354.5 135.5t-130.5 370.5zM346 1044q0 -160 76.5 -249.5t212.5 -89.5q45 0 76.5 1.5t65.5 5t56 11t44.5 20t35 30.5t23 43t13.5 58t1.5 75.5 t-8.5 94.5q-24 177 -97.5 259.5t-199.5 82.5q-135 0 -217 -92.5t-82 -249.5z" />
<glyph unicode=":" horiz-adv-x="555" d="M96 -8l80 368h238l55 -368h-373zM96 872l80 369h238l55 -369h-373z" />
<glyph unicode=";" horiz-adv-x="657" d="M100 -305l105 291h-17l33 284h350l-159 -575h-312zM158 766l80 369h237l55 -369h-372z" />
<glyph unicode="&#x3c;" horiz-adv-x="1648" d="M164 688l1247 549l10 -180l-958 -459l1020 -276l2 -246l-1301 389l-6 -2v4l-4 2l4 2z" />
<glyph unicode="=" horiz-adv-x="1241" d="M164 223l63 144l791 49l59 -158zM164 684l63 143l791 50l59 -158z" />
<glyph unicode="&#x3e;" horiz-adv-x="1648" d="M164 76l2 246l1020 276l-959 459l11 180l1247 -549l-15 -217l5 -2l-5 -2v-4l-6 2z" />
<glyph unicode="?" horiz-adv-x="1177" d="M70 1956q44 81 118.5 136t158 78t174 26t171 -13.5t144.5 -46.5q102 -48 167.5 -136.5t88 -185t14.5 -198.5q-11 -129 -83.5 -270.5t-167.5 -243.5t-181 -141v-369q0 -12 -94 -32t-189 -34v269v272q436 157 483 520q14 106 -5.5 180.5t-57.5 114.5t-102 74 q-305 162 -533 -115q-37 48 -106 115zM362 4l72 336h217l49 -336h-338z" />
<glyph unicode="@" horiz-adv-x="2430" d="M439.5 596q-14.5 113 2 231.5t64 228t126 209.5t181.5 175q70 51 147.5 86.5t143 53t132 25t112.5 7t88 -5.5q132 -18 250.5 -99t199 -204t103.5 -263q7 -45 8 -93.5t-7 -105t-25 -109t-49 -104t-75.5 -92.5t-108.5 -71.5t-145 -42.5q-43 -6 -97 24.5t-75 67.5h-18v96 q-33 -55 -91.5 -83.5t-131.5 -28.5q-142 0 -213.5 100.5t-38.5 280.5q46 259 245 288q136 18 199 -82l-2 68h82l65 -612l95 18q126 50 197 150t71 229q0 62 -18.5 131t-57 140.5t-109.5 133.5t-163 95q-82 30 -172 33t-175 -17.5t-165 -63.5t-146 -102t-114.5 -136 t-72.5 -161.5t-18 -183t46 -197.5q109 -265 367 -344t620 43q63 -204 84 -315q-25 -4 -94 -18.5t-114 -21.5t-115 -14t-144.5 -4t-153.5 15q-164 26 -295.5 88.5t-216.5 147.5t-139 190.5t-68.5 218.5zM1008 848q-11 -84 21.5 -128t129.5 -44q53 0 92 14.5t58.5 34.5t31 49 t13.5 48t2 42q0 64 -14 107t-39.5 63t-51.5 27.5t-59 7.5q-59 0 -113.5 -55t-70.5 -166z" />
<glyph unicode="A" d="M389 -2l666 1741h219l663 -1741h-325l-66 278h-760l-88 -278h-309zM854 545h621l-314 911z" />
<glyph unicode="B" horiz-adv-x="1996" d="M389 0v1735h526q257 0 395.5 -104t149.5 -290q1 -16 1 -31q0 -124 -64 -200q-72 -86 -199 -106q227 -36 322 -156q88 -112 88 -341v-34q-2 -100 -21.5 -175t-58 -127t-88 -85.5t-121 -52.5t-147.5 -26t-177 -7h-606zM618 336h365q188 0 280.5 68.5t92.5 218.5 q0 29 -4 52.5t-8 38.5t-17 32.5t-19 24.5t-26 26.5t-27 27.5q-26 29 -94 52.5t-178 23.5h-365v-565zM618 1108h338q164 0 236 50t72 159q0 244 -308 244h-338v-453z" />
<glyph unicode="C" horiz-adv-x="2054" d="M389 718.5q0 122.5 25 252.5q18 96 52 186t99.5 188.5t153 175t221.5 135.5t297 79q57 7 105 9q12 0 24 1q34 1 65 -3q41 -4 71.5 -10.5t77.5 -16t85 -15.5l-33 -221q-228 40 -347 40q-18 0 -34 -1q-90 -6 -183 -50t-171.5 -115t-136.5 -171.5t-78 -210.5 q-11 -61 -11 -116q0 -72 19 -135q34 -110 118 -178q84 -67 202 -99q102 -28 225 -28q19 0 39 1q69 3 128 13t91 20t82.5 28.5t77.5 26.5l4 -479q-99 -29 -329 -47q-132 -10 -234 -11q-77 0 -138 6q-108 11 -199.5 52.5t-159 108.5t-115 157.5t-70.5 197.5t-23 229.5z" />
<glyph unicode="D" horiz-adv-x="2230" d="M389 0v1739h471q136 0 256 -26.5t212 -72.5t169 -112t132.5 -142t96.5 -165t65.5 -177.5t37.5 -183.5q11 -81 11 -154q0 -116 -28 -213q-46 -158 -138.5 -249.5t-234.5 -148.5t-279.5 -76t-299.5 -19h-471zM631 440h274q215 0 350 30.5t198 89.5t81 147q8 40 7 85 q0 54 -11 117q-12 86 -34 158t-68.5 148t-112 128t-171 85.5t-239.5 33.5h-274v-1022z" />
<glyph unicode="E" horiz-adv-x="1894" d="M389 0l55 1704l1026 31l-47 -217l-764 -43v-459l568 24v-237l-568 -37v-416h771l75 -350h-1116z" />
<glyph unicode="F" horiz-adv-x="1755" d="M389 0l90 1708l887 27v-172l-647 -39l-37 -396h580v-237l-570 -27l13 -864h-316z" />
<glyph unicode="G" horiz-adv-x="2351" d="M391 846q-2 45 -2 87q0 115 14 211q19 132 54 223t99.5 157t129 104.5t163 62.5t181.5 33t203 15q63 3 119 3q98 0 178 -9q124 -14 164 -50l26 -200q-106 69 -418 69h-51q-127 -4 -218 -26t-160.5 -69.5t-110.5 -126.5t-61.5 -192t-20.5 -270q0 -110 13 -191t44 -139.5 t73.5 -95.5t110 -59t145 -30.5t185.5 -8.5q278 0 355 80l4 209l-307 53l-33 180l653 -73l39 -222l-156 27l25 -479q-225 -148 -598 -148q-118 0 -216 11.5t-175.5 32.5t-138.5 56t-107 76t-79.5 99t-55.5 118t-36.5 141t-22 160t-11.5 181z" />
<glyph unicode="H" horiz-adv-x="2193" d="M389 0l47 1735h240l35 -918h751l29 918h242l71 -1735h-368l14 432h-725l16 -432h-352z" />
<glyph unicode="I" horiz-adv-x="937" d="M287 0q33 308 39 696q3 153 3 286q0 204 -6 359q-10 257 -24 394h293q-10 -227 -10 -462q0 -610 69 -1273h-364z" />
<glyph unicode="J" horiz-adv-x="1546" d="M389 -418l17 373l116 -27q31 -7 59 -7q25 0 47 5q46 13 80.5 41t57 68t34.5 80.5t13 79.5l53 1597h291l-80 -1612q-8 -157 -38 -267t-92 -189t-161.5 -117t-242.5 -39z" />
<glyph unicode="K" horiz-adv-x="2097" d="M389 0l150 1739l243 2l-49 -764l461 762h295l-563 -932l782 -807h-539l-450 610l-33 -610h-297z" />
<glyph unicode="L" horiz-adv-x="1861" d="M389 0l82 1735h246l-47 -1420l803 37v-352h-1084z" />
<glyph unicode="M" horiz-adv-x="2537" d="M389 0l94 1735h346l439 -1065l426 1065h317l137 -1735h-438l92 1278l-413 -1133h-252l-459 1133l82 -1278h-371z" />
<glyph unicode="N" horiz-adv-x="2205" d="M389 0l133 1671h285l639 -1349l115 1411h256l-93 -1733h-403l-576 1208l21 -1208h-377z" />
<glyph unicode="O" horiz-adv-x="2340" d="M389 868q0 222 55 390.5t158 274.5t246 159t323 53q145 0 265 -30.5t219 -98t165 -168.5q68 -102 102 -248q31 -131 30 -294v-38q-4 -186 -30 -325t-81.5 -250.5t-144.5 -180.5q-90 -70 -220 -106q-127 -35 -296 -35h-9q-402 3 -592 223.5t-190 673.5zM631 846 q0 -128 36.5 -215.5t110 -137t168 -70t225.5 -20.5t225.5 20.5t167.5 70t109.5 137t36.5 215.5q0 133 -38 260t-106 228t-171.5 163t-223.5 62t-223.5 -62t-171.5 -163t-106.5 -228t-38.5 -260z" />
<glyph unicode="P" horiz-adv-x="1884" d="M369 0l96 1743h450q123 0 225.5 -25t170.5 -66.5t115.5 -96.5t68.5 -114.5t21 -121.5q0 -263 -132.5 -384t-422.5 -136l-275 -15l47 -784h-364zM674 1044l311 15q59 3 94.5 7t75.5 14.5t61.5 28.5t41 48t27 75t7.5 107q0 90 -103 150.5t-265 60.5h-250v-506z" />
<glyph unicode="Q" horiz-adv-x="2070" d="M205 889q0 175 57 335.5t158.5 282t251.5 193.5t325 72q237 0 414 -108.5t272 -308t95 -466.5q0 -115 -16.5 -217.5t-41 -177t-63 -144.5t-74.5 -117t-82 -98l365 -399h-545l-240 272q-49 -4 -96 -4q-106 0 -189.5 9t-167 34t-145.5 66.5t-116.5 109t-88.5 159.5 t-53.5 219.5t-19.5 287.5zM459 889q0 -80 9 -147t25 -114.5t38 -85.5t48 -61t54 -41t57 -24t57.5 -11.5t54.5 -4t48 0.5l125 7l76 178q215 -117 346 -117q33 0 65.5 68t52 165.5t19.5 186.5q0 323 -143.5 509.5t-393.5 186.5q-122 0 -225 -58t-170.5 -155t-105 -222 t-37.5 -261z" />
<glyph unicode="R" horiz-adv-x="1992" d="M389 0l105 1735h411q259 0 399 -122t140 -364q0 -163 -66 -253t-188 -109q14 -10 48 -31.5t52.5 -34.5t49 -42.5t50.5 -62t43 -86t40 -120.5l131 -510h-416l20 481v18q0 49 -14 87q-16 46 -47 73t-69 44.5t-83 22.5q-38 4 -71 4h-13q-39 -1 -77 -7l-121 -23l39 -700h-363 zM641 1032h287q123 0 217 79t94 159t-23.5 136t-67.5 85.5t-97 42t-123 12.5h-287v-514z" />
<glyph unicode="S" horiz-adv-x="2304" d="M389 90l248 346q87 -67 534 -67h13q34 0 52 0.5t50.5 3.5t51 8.5t43 17.5t37.5 29t23 43.5t11 60.5v5q0 81 -60 133q-62 52 -214 82l-138 26q-255 51 -369 160t-114 301q0 92 20.5 169.5t65.5 143.5t113 111.5t168 71.5t225 26q93 0 238.5 -10.5t242.5 -32.5l-35 -241 q-40 3 -86 17q-45 14 -105 20q-29 3 -67 3q-41 0 -94 -4q-97 -7 -172.5 -24t-137 -47t-96.5 -78t-40 -113q-1 -9 -1 -17q0 -30 9 -54q11 -30 34 -50t60.5 -34.5t82 -25.5t102.5 -23q17 -3 26 -5l135 -26q134 -27 252 -75t213 -114.5t150 -155.5t55 -188q0 -106 -52 -198 t-151.5 -162.5t-257.5 -111t-356 -40.5q-30 -1 -106 -1h-64.5h-40.5q-28 0 -91.5 2.5t-93 7t-80.5 13t-84 21t-73 32t-76 44.5z" />
<glyph unicode="T" horiz-adv-x="2205" d="M389 1475v260h1428v-238l-600 23l47 -1520h-342l67 1520z" />
<glyph unicode="U" horiz-adv-x="2158" d="M389 1737h334l-33 -871q-1 -35 -1 -66q0 -42 2 -80q4 -65 11 -114t25.5 -85.5t33 -61t46.5 -41t52.5 -25t64.5 -13t70 -4.5t79 -1h2h1q80 0 117 2.5t92.5 15.5t80 43.5t51.5 83.5t34 139q4 55 4 124q0 39 -1 83l-33 871h348l-51 -1102q-4 -96 -12 -174t-25 -139.5 t-30 -108.5t-44.5 -81.5t-50.5 -58t-66 -39t-72.5 -24t-89 -12t-96.5 -4t-113 -0.5h-44q-221 0 -287 7q-152 17 -227 97q-100 109 -126 399q-6 63 -9 138z" />
<glyph unicode="V" horiz-adv-x="2371" d="M389 1735h262l459 -1239h109l503 1239h260l-571 -1735h-473z" />
<glyph unicode="W" horiz-adv-x="2914" d="M389 1735h266l297 -1235l400 757h198l367 -780l342 1262h266l-424 -1739h-334l-309 842l-336 -842h-356z" />
<glyph unicode="X" horiz-adv-x="2324" d="M389 -2l627 860l-541 879h230l469 -662l481 662h225l-553 -879l608 -860h-389l-377 612l-385 -612h-395z" />
<glyph unicode="Y" horiz-adv-x="2174" d="M389 1739h246l455 -795l450 795h246l-549 -1133v-608h-422l115 608z" />
<glyph unicode="Z" horiz-adv-x="2312" d="M389 0v322l1116 1132l-823 -10l-102 295h1302l-24 -336l-930 -1065h887l108 -324z" />
<glyph unicode="[" horiz-adv-x="964" d="M156 -649l141 2797h508l-4 -198h-287l-119 -2362h326l-14 -237h-551z" />
<glyph unicode="\" horiz-adv-x="966" d="M164 1298l45 269l594 -1608l-137 -324z" />
<glyph unicode="]" horiz-adv-x="964" d="M160 2148h508l141 -2797h-551l-14 237h325l-118 2362h-287z" />
<glyph unicode="^" horiz-adv-x="1138" d="M164 1475l272 268l90 131h99l80 -131l270 -268h-111l-297 202l-293 -202h-110z" />
<glyph unicode="_" horiz-adv-x="1630" d="M164 -391l20 186l1282 -4l-20 -186z" />
<glyph unicode="`" horiz-adv-x="839" d="M111 1554h194l424 -313l-332 37z" />
<glyph unicode="a" horiz-adv-x="1679" d="M320 352q-8 50 -7 106q0 84 17 181q82 456 430 504q39 6 74 6q183 0 274 -148l-4 119h145l117 -1120h-205v168q-57 -97 -159.5 -147t-229.5 -50q-121 0 -215.5 43.5t-155.5 128.5t-81 209zM478 462q9 -56 36.5 -96t86 -61.5t147.5 -21.5q68 0 122.5 13.5t90 34t61.5 51 t39 58.5t20.5 63.5t9 58t1.5 50.5q0 90 -17.5 156.5t-44.5 104.5t-67 61t-77 30t-83 7t-94 -21t-95 -64.5t-83 -121t-50 -178.5q-7 -39 -7 -74q0 -26 4 -50z" />
<glyph unicode="b" horiz-adv-x="1759" d="M313 1741h275v-660q0 -55 19 -57h2q19 0 58 29q37 24 62 38t75 30.5t99 17.5h15q138 0 258 -69q126 -73 198 -198.5t72 -271.5q0 -128 -47 -246t-122.5 -201t-174 -132.5t-199.5 -49.5q-212 0 -322.5 58t-152.5 174q-19 40 -33.5 250t-36 604.5t-45.5 683.5zM635 592 q0 -84 11 -135t44.5 -89t94.5 -53.5t161 -15.5q126 9 212.5 93.5t86.5 207.5q0 158 -78 258t-221 100q-144 0 -227.5 -100.5t-83.5 -265.5z" />
<glyph unicode="c" horiz-adv-x="1529" d="M313 559q0 306 117 449t375 149h18q63 0 129 -6q76 -7 109 -18v-177q-102 31 -215 31q-326 -3 -326 -428q6 -78 39 -143.5t85 -108t115 -65.5q54 -20 112 -19h21q70 4 132 35l193 -209q-110 -65 -285 -65q-32 0 -66 2q-158 11 -265 50.5t-170.5 112.5t-90.5 171.5 t-27 238.5z" />
<glyph unicode="d" horiz-adv-x="1726" d="M315 559q9 160 81.5 301t190 228t249.5 94q11 1 21 1q104 -1 186 -55q90 -60 151 -165l35 778h184l-49 -1260l25 -485l-195 4v147q-55 -97 -143 -138q-82 -38 -198 -38h-17q-244 5 -390 166q-132 146 -132 374q0 24 1 48zM510 580q0 -275 307 -275q65 0 112.5 11t91.5 40 t67.5 89t23.5 149q0 171 -73.5 271t-215.5 100q-145 0 -229 -107.5t-84 -277.5z" />
<glyph unicode="e" horiz-adv-x="1699" d="M313 549q11 280 167 459.5t405 179.5q89 -7 166.5 -41t144.5 -97.5t116.5 -166.5t73.5 -238l-886 -57q0 -299 422 -344q53 -6 100 -6q55 0 101 8q86 14 204 65v-254q-201 -86 -412 -86q-269 0 -435.5 157.5t-166.5 420.5zM526 745l656 64q-38 243 -266 243q-15 0 -31 -1 q-151 -10 -255 -105t-104 -201z" />
<glyph unicode="f" horiz-adv-x="1290" d="M313 938v182h166q0 130 13 221t36.5 147t64.5 87t87.5 42t114.5 11h163v-153h-165q-52 0 -85.5 -30t-46 -73t-15.5 -96v-39q0 -29 2 -53q4 -38 11 -68l318 4v-182h-293l31 -938h-266l30 938h-166z" />
<glyph unicode="g" horiz-adv-x="1648" d="M313 573q0 259 126.5 416.5t332.5 157.5q58 0 108.5 -17t76 -34t77.5 -59.5t74 -59.5l43 143h184l-43 -979q-15 -344 -141 -510t-385 -166q-99 0 -210 25.5t-204 71.5l76 270q163 -88 283 -88q20 0 39 2q113 14 200 96.5t125 190.5l25 94q-163 -147 -328 -147 q-204 0 -331.5 166t-127.5 427zM481 584q-3 -40 -3 -73q0 -40 4 -69q9 -55 39 -87t77 -44t125 -12q79 0 136 12t102 40.5t67.5 81.5t22.5 130q0 102 -36 187t-109 138.5t-169 53.5q-57 0 -101 -20.5t-70.5 -53t-45 -81.5t-26.5 -96t-13 -107z" />
<glyph unicode="h" horiz-adv-x="1683" d="M313 0l125 1741h185l-48 -746q30 24 49 38t42 30t39 24.5t37.5 17t39.5 12t43 6t51 2t60 -2.5q38 -3 66.5 -7t64.5 -12.5t63 -23.5t57 -37t51.5 -55.5t41 -76.5t31 -102.5t16.5 -131.5l43 -676h-283q29 175 44.5 300t18.5 232q1 20 1 39q0 81 -11 136q-13 68 -44 116.5 t-80 69t-121 20.5q-78 0 -134 -22.5t-101 -83.5q-44 -61 -64 -162q-17 -86 -17 -215q1 -23 1 -48q4 -162 36 -382h-303z" />
<glyph unicode="i" horiz-adv-x="925" d="M297 1452l72 336h217l49 -336h-338zM328 0q6 90 20 270.5t20.5 278.5t12.5 258.5t6 320.5h164q-7 -174 -7 -336q0 -443 54 -792h-270z" />
<glyph unicode="j" horiz-adv-x="1323" d="M313 -449l95 193q34 -6 70 -6q3 -1 5 -1q34 0 76 9q44 8 81.5 27.5t69.5 57.5t48 91q7 26 12.5 60t10 93.5t7.5 115t6 166t5.5 201.5t7 265.5t8.5 317.5h195l-62 -1170q-9 -161 -35.5 -239.5t-81.5 -120.5q-54 -42 -219 -63q-78 -10 -148 -10q-80 0 -151 13zM727 1411 l72 336h217l49 -336h-338z" />
<glyph unicode="k" horiz-adv-x="1671" d="M313 0l86 1624h205l-47 -905l277 346h241l-354 -453l637 -612h-420l-381 487l23 -487h-267z" />
<glyph unicode="l" horiz-adv-x="1105" d="M301 0q-10 88 -10 251q0 185 13 469q24 532 83 931h195q-44 -405 -62 -739q-10 -186 -10 -376q0 -153 6 -309h244l33 -227h-492z" />
<glyph unicode="m" horiz-adv-x="2396" d="M313 0l133 1120h185l-21 -174q62 101 157 155t204 54q125 0 219 -64.5t135 -185.5q135 250 371 250q182 0 268 -140.5t96 -400.5l23 -614h-277l70 639q4 40 4 74q0 239 -205 239q-137 0 -207 -99t-92 -282l-65 -571h-254l114 592q7 38 7 75q0 51 -14 101 q-24 86 -81.5 141.5t-134.5 55.5q-136 0 -220 -92.5t-97 -233.5l-62 -639h-256z" />
<glyph unicode="n" horiz-adv-x="1669" d="M313 0l82 1118h135l35 -90q22 10 68.5 35.5t75.5 39t80 26t106 12.5q188 0 294.5 -126.5t121.5 -352.5l45 -662h-285l23 674v26q0 131 -47 196q-52 71 -173 71q-82 0 -140.5 -27.5t-90.5 -76t-45 -108.5q-11 -49 -11 -105q0 -13 1 -27l28 -623h-303z" />
<glyph unicode="o" horiz-adv-x="1695" d="M313 559q0 271 143 429.5t392 158.5q248 0 391 -158.5t143 -429.5q0 -263 -144 -424.5t-390 -161.5q-247 0 -391 161.5t-144 424.5zM516 594q0 -101 16.5 -162.5t58.5 -95.5t100.5 -45.5t156.5 -11.5t156.5 11.5t100.5 45.5t58.5 95.5t16.5 162.5q0 204 -84 288.5 t-248 84.5t-248 -84.5t-84 -288.5z" />
<glyph unicode="p" horiz-adv-x="1677" d="M205 -516l166 809q20 81 20 215v36q-3 159 -39 546h185l36 -154q113 197 345 197h14q207 -6 333 -154.5t126 -398.5q0 -124 -27 -231.5t-80.5 -194t-144 -136t-207.5 -49.5q-127 0 -223 51t-136 148l-104 -668zM627 618q0 -159 96 -251.5t246 -92.5q140 0 193 86 q49 77 49 224q0 17 -1 34q-13 351 -252 351q-86 0 -161 -41.5t-122.5 -123t-47.5 -186.5z" />
<glyph unicode="q" horiz-adv-x="1939" d="M313 561q0 129 36 233.5t100.5 175t150 114t188.5 57.5q51 4 90 5h3q37 0 73 -13t64 -29.5t57.5 -46.5t54 -63t54.5 -79v205h219l-72 -739l-22 -557l143 41l176 61l-53 -245l-475 -140l53 627q-116 -198 -335 -198q-11 0 -23 1q-208 11 -345 171.5t-137 418.5zM500 586 q-4 -36 -4 -68q0 -119 53 -180q67 -78 217 -78q147 0 223.5 77t95.5 249q4 39 4 75q0 127 -53 214q-67 112 -209 112t-224.5 -110t-102.5 -291z" />
<glyph unicode="r" horiz-adv-x="1349" d="M313 0q60 285 77.5 512t17.5 604h190v-121q63 48 105.5 70.5t113.5 37.5t189 21l30 -258q-76 16 -136 18q-14 1 -28 1q-42 0 -74 -6q-42 -8 -71.5 -29t-46.5 -46t-27 -62.5t-13 -72.5t-3 -83q0 -5 -1 -70v-46v-50q2 -30 6 -98.5t14.5 -147t27.5 -174.5h-371z" />
<glyph unicode="s" horiz-adv-x="1583" d="M313 100l201 228q92 -35 146.5 -48t146.5 -20q27 -5 62.5 -3t68 8t54.5 31t22 66q0 81 -269 136q-36 5 -72 15t-87.5 35.5t-89.5 60.5t-65.5 96t-27.5 137q0 41 7.5 77t24 75t49 70.5t77.5 56.5t113.5 39t154.5 14q141 0 363 -50l-94 -123q-57 7 -98.5 10t-86 4.5 t-61.5 2.5q-95 0 -157 -12.5t-91 -37.5q-28 -25 -38 -52q-9 -24 -9 -59v-7q3 -85 315 -182q126 -39 204.5 -75.5t121 -79.5t57.5 -87.5t15 -108.5q0 -105 -28.5 -173.5t-90.5 -106t-143.5 -52t-204.5 -14.5q-78 0 -139.5 3t-107 11.5t-74.5 14.5t-57.5 21.5t-40 22.5t-37 28 t-34.5 28z" />
<glyph unicode="t" horiz-adv-x="1458" d="M313 983l60 137h211l20 266l213 123l-14 -389h305l37 -137h-346l-21 -530q-1 -29 -1 -53q1 -12 1 -22q0 -31 9 -51t27.5 -31.5t54 -17t88.5 -8t131 -4.5h16l39 -262q-76 -4 -533 -4q-24 0 -41.5 13.5t-24.5 33t-9.5 33t-2.5 22.5q0 28 4 138t14.5 321.5t24.5 421.5h-262z " />
<glyph unicode="u" horiz-adv-x="1638" d="M313 1147h197l41 -539q10 -143 15 -168q14 -66 60 -89q45 -21 155 -21h10q50 0 86.5 3t65.5 11.5t48 16.5t33 28.5t21.5 37.5t12.5 52t6.5 64.5t2.5 81.5l14 522h203l41 -1147h-223l8 172q-25 -65 -67.5 -109t-96 -63t-98 -26t-98.5 -7q-100 0 -165.5 20t-116 72.5 t-77 145.5t-35.5 237z" />
<glyph unicode="v" horiz-adv-x="1843" d="M313 1120h195l434 -821l393 821h195l-369 -825l-41 -295h-377l-57 295z" />
<glyph unicode="w" horiz-adv-x="2129" d="M313 1120h246l168 -694l274 379h127l275 -379l168 694h246l-293 -1120h-256l-203 346l-211 -346h-248z" />
<glyph unicode="x" horiz-adv-x="1824" d="M313 0l494 612l-346 535h237l254 -359l289 359h227l-393 -531l436 -616h-307l-272 422l-314 -422h-305z" />
<glyph unicode="y" horiz-adv-x="1716" d="M313 1147h195l459 -780l239 780h197l-285 -1217q-22 -93 -73.5 -172t-114.5 -130.5t-135.5 -87.5t-136 -52t-115.5 -16h-168v264h129q61 0 130.5 28.5t125.5 79t77 118.5q8 25 8 51q0 46 -24 96z" />
<glyph unicode="z" horiz-adv-x="1673" d="M313 0l49 268l719 682h-596v197h848l27 -184l-680 -715h543l116 -248h-1026z" />
<glyph unicode="{" horiz-adv-x="1148" d="M164 500l6 225l61 -2q44 3 66.5 5.5t45.5 11.5t32.5 21t19 38t13 58t6.5 85l10 240q6 114 27.5 180.5t74 107.5t129 55.5t207.5 16.5h123l-27 -143l-67 2q-54 -3 -88 -7t-62 -14.5t-42.5 -24t-25.5 -40t-15 -58t-7 -81.5l-12 -248q-9 -159 -64 -228.5t-196 -93.5 q69 -15 113 -38.5t68.5 -63t33.5 -86.5t10 -119l-12 -250q2 -56 9 -88t29.5 -58t64.5 -36t112 -10h67l13 -205l-123 2q-103 2 -170 14t-114 36t-71.5 69.5t-34.5 105t-9 152.5l12 237q0 37 -1 56.5t-3 47t-6 41t-11.5 31t-18.5 25.5t-26.5 16.5t-36.5 11.5t-49 3h-61z" />
<glyph unicode="|" horiz-adv-x="524" d="M164 -307l53 1741h143l-53 -1741h-143z" />
<glyph unicode="}" horiz-adv-x="1148" d="M164 1542h123q131 -2 207.5 -16.5t129 -55.5t74 -107.5t27.5 -180.5l10 -240q3 -53 6.5 -85t13 -58t19 -38t32.5 -21t45.5 -11.5t66.5 -5.5l61 2l6 -225h-61q-28 0 -49 -3t-36.5 -11.5t-26.5 -16.5t-18.5 -25.5t-11.5 -31t-6 -41t-3 -47t-1 -56.5l12 -237 q1 -93 -9 -152.5t-34.5 -105t-71.5 -69.5t-114 -36t-170 -14l-123 -2l12 205h68q70 0 112 10t64.5 36t29.5 58t9 88l-12 250q1 72 10 119t33.5 86.5t68.5 63t113 38.5q-141 24 -196 93.5t-64 228.5l-12 248q-3 50 -7 81.5t-15 58t-25.5 40t-42.5 24t-62 14.5t-88 7l-68 -2z " />
<glyph unicode="~" horiz-adv-x="958" d="M123 1186q7 107 18 169t35.5 105t62.5 58.5t101 15.5q43 0 79.5 -24t62 -58t49 -67.5t50 -57.5t54.5 -24q33 0 53.5 13t28 35t10.5 52t1.5 63t0.5 68h107q-1 -72 -6 -126t-12.5 -91.5t-22.5 -62t-28 -38.5t-37 -21t-42.5 -8.5t-50.5 -0.5q-47 1 -86.5 26t-66.5 60.5 t-50 71t-47 60.5t-47 26q-16 0 -29.5 -5.5t-22.5 -18t-16 -25.5t-11 -35t-6.5 -38t-3.5 -42t-1 -40v-40h-127z" />
<glyph unicode="&#xa1;" horiz-adv-x="690" d="M86 1530h422l-62 -418h-270zM215 932l272 55v-1487l-172 47z" />
<glyph unicode="&#xa2;" horiz-adv-x="1529" d="M313 559q0 287 102.5 430.5t327.5 163.5l13 373h143l-12 -371q116 -3 174 -22v-177q-84 25 -178 29l-23 -762q89 -3 164 35l193 -209q-130 -77 -351 -63q-8 0 -14 2l-6 -203h-144l7 221q-217 44 -306.5 177.5t-89.5 375.5zM520 559q7 -101 61 -179.5t136 -119.5l22 713 q-219 -66 -219 -414z" />
<glyph unicode="&#xa3;" horiz-adv-x="1415" d="M92 0v260q162 58 244 109t108 111t9 151h-267v190h213l-123 400q-34 109 -47 183t-5 120.5t25.5 72.5t51.5 52q75 53 159 90t182 53t192 2.5t191.5 -69t178.5 -152.5l-100 -80q-83 64 -169 96.5t-158 34t-138 -16.5t-113.5 -47.5t-81.5 -66.5q-29 -32 -35.5 -75.5 t3 -85.5t32.5 -103l154 -408h492v-190h-426q92 -348 -310 -422q184 13 287.5 12.5t205 -11.5t363.5 -48l113 -162h-1231z" />
<glyph unicode="&#xa4;" horiz-adv-x="1372" d="M164 393l155 158q-40 79 -40 180q0 120 63 217l-133 133l156 160l143 -143q80 41 178 41t178 -41l144 143l155 -160l-133 -133q64 -98 64 -217q0 -100 -41 -180l155 -158l-155 -160l-152 152q-95 -61 -215 -61t-215 61l-152 -152zM471 782q0 -89 62 -152t151 -63 q88 0 150.5 63t62.5 152q0 88 -62.5 150.5t-150.5 62.5t-150.5 -62.5t-62.5 -150.5z" />
<glyph unicode="&#xa5;" horiz-adv-x="1564" d="M164 1493h217l403 -436l400 436h217l-486 -653l-2 -80l234 14l59 -158l-297 -12l-10 -307l248 16l59 -157l-311 -13l-8 -284h-273l9 274l-330 -12l63 143l271 17l10 313l-344 -12l63 143l285 18l2 97z" />
<glyph unicode="&#xa6;" horiz-adv-x="524" d="M164 -307l22 743l146 39l-25 -782h-143zM199 815l18 619h143l-18 -613z" />
<glyph unicode="&#xa7;" horiz-adv-x="1718" d="M317 -55l168 235q61 -45 367 -45h36.5t35 2t37 5.5t30 12t28 20t16 30.5t7.5 43q2 57 -40.5 92.5t-145.5 56.5l-94 19q-173 34 -251.5 108t-78.5 205q0 261 223 332q-98 76 -98 223q0 152 108.5 240t297.5 88q216 0 378 -174l-63 -117q-65 95 -135 129.5t-162 34.5 q-134 0 -219.5 -45t-85.5 -133q0 -71 73 -119t189 -72l92 -18q371 -74 371 -342q0 -159 -35.5 -229.5t-126.5 -92.5q121 -96 121 -221q0 -150 -146 -250t-413 -100q-19 0 -72.5 -0.5t-72 0t-62.5 2t-63.5 4.5t-54.5 9t-57.5 14.5t-50 22t-51.5 30.5zM596 737q-3 -31 6 -51 l19 -6q41 -32 162.5 -58t195.5 -26q53 0 85 3t62.5 12.5t46.5 28.5t27 50t14 78q6 78 -73 127v-4q-27 3 -58.5 12.5t-72 14t-109.5 0.5q-295 -21 -305 -181z" />
<glyph unicode="&#xa8;" horiz-adv-x="1091" d="M102 1243l72 336h217l49 -336h-338zM659 1243l72 336h217l49 -336h-338z" />
<glyph unicode="&#xa9;" horiz-adv-x="1101" d="M164 1485q0 157 113 270t274 113q159 0 273 -113t114 -270q0 -162 -113.5 -275.5t-273.5 -113.5q-161 0 -274 113t-113 276zM231 1485q0 -131 93.5 -225.5t226.5 -94.5q132 0 225.5 94.5t93.5 225.5q0 133 -93.5 227t-225.5 94q-133 0 -226.5 -93.5t-93.5 -227.5z M352 1487q0 119 45 173.5t146 57.5q71 0 98 -10v-68q-44 13 -84 13q-125 -3 -125 -166q6 -75 68.5 -110.5t126.5 -4.5l73 -82q-45 -28 -135 -24q-119 9 -166 61t-47 160z" />
<glyph unicode="&#xaa;" horiz-adv-x="858" d="M250 1198q45 240 225 264q124 18 182 -73l-2 61h76l62 -586h-107v88q-60 -102 -205 -102q-130 0 -195.5 91.5t-35.5 256.5zM330 1171q-10 -78 19.5 -118.5t119.5 -40.5q49 0 84.5 13.5t53.5 31.5t28 45t12 44t2 38q0 59 -13 98.5t-36.5 57.5t-47 25t-54.5 7 q-53 0 -103.5 -50.5t-64.5 -150.5z" />
<glyph unicode="&#xab;" horiz-adv-x="1310" d="M164 465l454 -434l48 229l-291 279l311 258l4 190l-481 -401zM621 457l454 -434l47 229l-291 278l312 258l4 191l-481 -401z" />
<glyph unicode="&#xac;" horiz-adv-x="1251" d="M164 518v187l899 -74v-6h2l22 -508h-219l-6 377z" />
<glyph unicode="&#xad;" horiz-adv-x="1128" d="M164 500v211h903v-211h-903z" />
<glyph unicode="&#xae;" horiz-adv-x="1101" d="M164 1794q0 157 113 270t274 113q159 0 273 -113t114 -270q0 -162 -113.5 -275.5t-273.5 -113.5q-161 0 -274 113t-113 276zM231 1794q0 -131 93.5 -225t226.5 -94q100 0 182 57h-112l6 139q2 33 -17.5 51.5t-44.5 19t-47 -0.5l-35 -6l11 -203h-105l31 502h119 q75 0 115 -35.5t40 -104.5q0 -94 -73 -106q3 -2 12.5 -7.5t13.5 -8t11.5 -9t12.5 -13t11 -17t11 -24t9 -30.5l37 -141q60 44 95.5 112t35.5 144q0 133 -93.5 227.5t-225.5 94.5q-133 0 -226.5 -94t-93.5 -228zM463 1831h82q36 0 63 23t27 47q0 79 -90 79h-82v-149z" />
<glyph unicode="&#xaf;" horiz-adv-x="1052" d="M164 1296l49 107l629 37l47 -117z" />
<glyph unicode="&#xb0;" horiz-adv-x="1101" d="M113 1126q0 116 58 215.5t159 158t221 59.5q181 1 309.5 -127t128.5 -306q0 -184 -128 -312t-310 -128q-183 0 -310.5 128t-127.5 312zM313 1161q0 -101 72.5 -173.5t175.5 -72.5q101 0 173.5 72.5t72.5 173.5q0 103 -72.5 175.5t-173.5 72.5q-103 0 -175.5 -72.5 t-72.5 -175.5z" />
<glyph unicode="&#xb1;" horiz-adv-x="1269" d="M164 -45l63 125l791 43l59 -137zM164 606v121l414 -2v324h172v-324l356 -2v-121l-356 2v-309h-172v309z" />
<glyph unicode="&#xb2;" horiz-adv-x="598" d="M76 944l22 131q2 15 13 30t32.5 32.5t38.5 29t47 31.5q52 34 88.5 67.5t52 55t31.5 49.5q17 39 17 68q0 55 -37.5 89t-99.5 34q-90 0 -195 -60l4 92q110 45 189 45q106 0 168.5 -52.5t62.5 -141.5q0 -74 -10 -107q-27 -89 -180 -233q-14 -13 -29 -27h223l10 -133h-448z " />
<glyph unicode="&#xb3;" horiz-adv-x="653" d="M82 903l45 137q25 -9 79 -15.5t81 -6.5q102 0 139 24.5t37 77.5q0 55 -45 92t-125 37h-94l18 80h96q168 0 168 123q0 59 -52 89t-132 30q-94 0 -193 -35l23 72q109 28 178 28q115 0 181.5 -51.5t66.5 -140.5q0 -61 -31.5 -98.5t-103.5 -63.5q85 -13 119 -56t34 -118 q0 -120 -75 -181t-215 -61q-95 0 -199 37z" />
<glyph unicode="&#xb4;" horiz-adv-x="587" d="M127 1188l199 403h135l-135 -403h-199z" />
<glyph unicode="&#xb5;" horiz-adv-x="1638" d="M223 -205l53 1350h37v2h197l41 -539q10 -143 15 -168q14 -66 60 -89q47 -22 165 -21q50 0 86.5 3t65.5 11.5t48 16.5t33 28.5t21.5 37.5t12.5 52t6.5 64.5t2.5 81.5l14 522h203l41 -1147h-223l8 172q-25 -65 -67.5 -109t-96 -63t-98 -26t-98.5 -7q-157 0 -242.5 58 t-122.5 213l-18 -443h-144z" />
<glyph unicode="&#xb6;" horiz-adv-x="1259" d="M164 1057q0 147 99.5 253t238.5 109h157l-116 -1644h-365l187 950q-91 41 -146 131.5t-55 200.5zM907 1417h158l31 -1642h-158z" />
<glyph unicode="&#xb7;" horiz-adv-x="534" d="M102 518l72 336h217l49 -336h-338z" />
<glyph unicode="&#xb8;" horiz-adv-x="669" d="M141 -479l27 123q57 -13 121 -13q60 0 105.5 26.5t45.5 55.5t-10 50t-24 32t-36 17t-37.5 7t-37.5 1q-52 0 -141 -13l86 254h73l-67 -184h71q38 0 74.5 -8.5t71.5 -27t53 -55t10 -85.5q-13 -85 -77 -132.5t-164 -47.5h-144z" />
<glyph unicode="&#xb9;" horiz-adv-x="583" d="M80 932v137l139 4l25 502l-123 -66l8 93q106 63 147 63h62v-590l166 -6v-137h-424z" />
<glyph unicode="&#xba;" horiz-adv-x="860" d="M242 1139q0 140 73.5 221.5t202.5 81.5t203 -81.5t74 -221.5q0 -135 -75 -219t-202 -84t-201.5 84t-74.5 219zM346 1157q0 -101 36.5 -132.5t135.5 -31.5t135.5 31.5t36.5 132.5q0 105 -43.5 149t-128.5 44t-128.5 -44t-43.5 -149z" />
<glyph unicode="&#xbb;" horiz-adv-x="1310" d="M164 979l4 -191l311 -258l-291 -278l48 -229l454 434l-45 121zM621 987l4 -190l311 -258l-291 -279l47 -229l455 434l-45 121z" />
<glyph unicode="&#xbc;" horiz-adv-x="2258" d="M352 754v186l189 6l32 680l-167 -88l14 123q144 88 198 88h82v-801l226 -8v-186h-574zM563 -92l1002 1632h131l-926 -1632h-207zM1323 264l434 596l68 4l6 -76l2 -2l-2 -2l41 -503l141 4v-140h-129l23 -278h-211l16 276l-307 -2l-2 -2l-2 2h-62zM1489 268l231 8l25 377z " />
<glyph unicode="&#xbd;" horiz-adv-x="2258" d="M352 754v186l189 6l32 680l-167 -88l14 123q144 88 198 88h82v-801l226 -8v-186h-574zM563 -92l1002 1632h131l-926 -1632h-207zM1405 -57l35 192q5 27 36 59.5t63 56t91 62.5q110 70 163.5 128.5t86.5 123.5q25 52 25 99q0 79 -55.5 128.5t-145.5 49.5q-125 0 -283 -88 l9 137q165 65 272 65q155 0 246.5 -77t91.5 -207v-18q0 -37 -0.5 -55.5t-6.5 -53t-17.5 -59.5t-34.5 -64.5t-57 -79t-85 -92t-119 -113.5h324l16 -194h-655z" />
<glyph unicode="&#xbe;" horiz-adv-x="2258" d="M260 766l62 182q33 -12 106 -21t107 -9q137 0 186 33t49 106t-59.5 122.5t-165.5 49.5h-129l24 106h131q226 0 226 164q0 79 -70 119.5t-178 40.5q-122 0 -258 -45l31 94q144 41 239 41q153 0 242.5 -69.5t89.5 -188.5q0 -83 -42.5 -133.5t-139.5 -85.5q114 -16 159 -74 t45 -160q0 -160 -100 -240.5t-289 -80.5q-126 0 -266 49zM563 -92l1002 1632h131l-926 -1632h-207zM1323 264l434 596l68 4l6 -76l2 -2l-2 -2l41 -503l141 4v-140h-129l23 -278h-211l16 276l-307 -2l-2 -2l-2 2h-62zM1489 268l231 8l25 377z" />
<glyph unicode="&#xbf;" horiz-adv-x="1177" d="M72 -412q11 129 83.5 270.5t167.5 244.5t181 141v368q0 12 94 32t188 34v-268v-273q-436 -157 -483 -520q-11 -64 -5 -117t17.5 -90.5t37 -69t52.5 -52t64 -40.5q305 -162 532 115q34 -45 107 -115q-44 -81 -118.5 -136t-158 -78t-174 -26t-171 13.5t-144.5 46.5 q-102 48 -167.5 136.5t-88 185t-14.5 198.5zM477 1200h338l-72 -336h-217z" />
<glyph unicode="&#xc0;" d="M389 -2l666 1741h219l663 -1741h-325l-66 278h-760l-88 -278h-309zM764 2300h194l424 -313l-331 36zM854 545h621l-314 911z" />
<glyph unicode="&#xc1;" d="M389 -2l666 1741h219l663 -1741h-325l-66 278h-760l-88 -278h-309zM854 545h621l-314 911zM1042 2271l199 404h135l-135 -404h-199z" />
<glyph unicode="&#xc2;" d="M389 -2l666 1741h219l663 -1741h-325l-66 278h-760l-88 -278h-309zM739 1964l273 268l90 131h98l80 -131l270 -268h-110l-297 203l-293 -203h-111zM854 545h621l-314 911z" />
<glyph unicode="&#xc3;" d="M389 -2l666 1741h219l663 -1741h-325l-66 278h-760l-88 -278h-309zM805 1972q7 107 18 169t35.5 105t62.5 58.5t101 15.5q43 0 79.5 -24t62 -58t49 -67.5t50 -57.5t54.5 -24q33 0 53.5 13t28 35t10.5 52t1.5 63t0.5 68h107q-1 -72 -6 -126t-12.5 -91.5t-22.5 -62 t-28 -38.5t-37 -21t-42.5 -8.5t-50.5 -0.5q-47 1 -86.5 26t-66.5 60.5t-50 71t-47 60.5t-47 26q-16 0 -29.5 -5.5t-22.5 -18t-16 -25.5t-11 -35t-6.5 -38t-3.5 -42t-1 -40v-40h-127zM854 545h621l-314 911z" />
<glyph unicode="&#xc4;" d="M389 -2l666 1741h219l663 -1741h-325l-66 278h-760l-88 -278h-309zM723 2007l72 336h217l49 -336h-338zM854 545h621l-314 911zM1280 2007l72 336h217l49 -336h-338z" />
<glyph unicode="&#xc5;" d="M389 -2l666 1741h219l663 -1741h-325l-66 278h-760l-88 -278h-309zM854 545h621l-314 911zM956 2267q0 91 61.5 156t147.5 65t147.5 -65t61.5 -156t-61.5 -156t-147.5 -65t-147.5 65t-61.5 156zM1047 2298q0 -44 8 -71t27.5 -38t35.5 -13.5t47 -2.5q21 0 32.5 1t27.5 4 t24.5 11t17.5 21.5t13 35.5t4 52q0 51 -35 87t-84 36t-83.5 -36t-34.5 -87z" />
<glyph unicode="&#xc6;" horiz-adv-x="2971" d="M389 -2l916 1704h217v2l1026 31l-47 -217l-764 -43v-459l567 24v-237l-553 -37l100 -416h656l76 -350h-646v-2h-325v2h-146l9 270h-650l-127 -272h-309zM932 532h551l10 291l-123 602z" />
<glyph unicode="&#xc7;" horiz-adv-x="2054" d="M389 718.5q0 122.5 25 252.5q18 96 52 186t99.5 188.5t153 175t221.5 135.5t297 79q58 8 105.5 9.5t88.5 -3t71.5 -10.5t77.5 -15.5t85 -15.5l-33 -221q-263 46 -381 39q-90 -6 -183 -50t-171.5 -115t-136.5 -171.5t-78 -210.5q-26 -141 8 -251t117.5 -177.5t202 -99.5 t264.5 -27q69 3 128 13t91 20t82.5 28.5t77.5 26.5l4 -479q-132 -40 -430 -54l-45 -123h71q38 0 74.5 -8.5t71.5 -27t53 -55t10 -85.5q-13 -85 -77 -132.5t-164 -47.5h-144l27 123q53 -12 121 -12q60 0 105.5 26.5t45.5 55.5q0 36 -13.5 59t-39 32.5t-45 12t-47.5 2.5 q-59 0 -141 -12l63 190q-128 -3 -197 4q-108 11 -199.5 52.5t-159 108.5t-115 157.5t-70.5 197.5t-23 229.5z" />
<glyph unicode="&#xc8;" horiz-adv-x="1894" d="M389 0l55 1704l1026 31l-47 -217l-764 -43v-459l568 24v-237l-568 -37v-416h771l75 -350h-1116zM569 2265h195l424 -313l-332 37z" />
<glyph unicode="&#xc9;" horiz-adv-x="1894" d="M389 0l55 1704l1026 31l-47 -217l-764 -43v-459l568 24v-237l-568 -37v-416h771l75 -350h-1116zM848 2236l199 404h135l-135 -404h-199z" />
<glyph unicode="&#xca;" horiz-adv-x="1894" d="M389 0l55 1704l1026 31l-47 -217l-764 -43v-459l568 24v-237l-568 -37v-416h771l75 -350h-1116zM545 1929l272 269l90 131h99l79 -131l271 -269h-111l-297 203l-293 -203h-110z" />
<glyph unicode="&#xcb;" horiz-adv-x="1894" d="M389 0l55 1704l1026 31l-47 -217l-764 -43v-459l568 24v-237l-568 -37v-416h771l75 -350h-1116zM528 1972l72 336h217l49 -336h-338zM1085 1972l72 336h217l49 -336h-338z" />
<glyph unicode="&#xcc;" horiz-adv-x="937" d="M33 2398h194l424 -313l-332 37zM287 0q33 309 39.5 696.5t-3.5 644.5t-24 394h293q-37 -816 59 -1735h-364z" />
<glyph unicode="&#xcd;" horiz-adv-x="937" d="M287 0q33 309 39.5 696.5t-3.5 644.5t-24 394h293q-37 -816 59 -1735h-364zM311 2370l199 403h135l-135 -403h-199z" />
<glyph unicode="&#xce;" horiz-adv-x="937" d="M8 2062l273 269l90 131h98l80 -131l270 -269h-110l-297 203l-293 -203h-111zM287 0q33 309 39.5 696.5t-3.5 644.5t-24 394h293q-37 -816 59 -1735h-364z" />
<glyph unicode="&#xcf;" horiz-adv-x="937" d="M-8 2105l71 336h218l49 -336h-338zM287 0q33 309 39.5 696.5t-3.5 644.5t-24 394h293q-37 -816 59 -1735h-364zM549 2105l72 336h217l49 -336h-338z" />
<glyph unicode="&#xd0;" horiz-adv-x="2230" d="M102 754v211h287v774h471q136 0 256 -26.5t212 -72.5t169 -112t132.5 -142t96.5 -165t65.5 -177.5t37.5 -183.5q29 -209 -17 -367t-138.5 -249.5t-234.5 -148.5t-279.5 -76t-299.5 -19h-471v754h-287zM631 440h274q215 0 350 30.5t198 89.5t80.5 147t-3.5 202 q-12 86 -34 158t-68.5 148t-112 128t-171 85.5t-239.5 33.5h-274v-497h375v-211h-375v-314z" />
<glyph unicode="&#xd1;" horiz-adv-x="2205" d="M389 0l133 1671h285l639 -1349l115 1411h256l-93 -1733h-403l-576 1208l21 -1208h-377zM803 1858q7 107 18 169t35.5 105t62.5 58.5t101 15.5q43 0 79.5 -24t62 -58t49 -68t50 -58t54.5 -24q33 0 53.5 13t28 35.5t10.5 52t1.5 63t0.5 68.5h107q-1 -72 -6 -126 t-12.5 -91.5t-22.5 -62t-28 -38.5t-37 -21t-42.5 -8.5t-50.5 -0.5q-47 1 -86.5 26t-66.5 60.5t-50 70.5t-47 60t-47 26q-16 0 -29.5 -5.5t-22.5 -18t-16 -25.5t-11 -34.5t-6.5 -37.5t-3.5 -42t-1 -40v-40h-127z" />
<glyph unicode="&#xd2;" horiz-adv-x="2340" d="M389 868q0 222 55 390.5t158 274.5t246 159t323 53q145 0 265 -30.5t219 -98t165.5 -169t101 -248t30.5 -331.5q-4 -186 -30 -325t-81.5 -250.5t-144.5 -181t-219.5 -105.5t-305.5 -35q-402 3 -592 223.5t-190 673.5zM631 846q0 -128 36.5 -215.5t110 -137t168 -70 t225.5 -20.5t225.5 20.5t167.5 70t109.5 137t36.5 215.5q0 133 -38 260t-106 228t-171.5 163t-223.5 62t-223.5 -62t-171.5 -163t-106.5 -228t-38.5 -260zM786 2206h195l424 -314l-332 37z" />
<glyph unicode="&#xd3;" horiz-adv-x="2340" d="M389 868q0 222 55 390.5t158 274.5t246 159t323 53q145 0 265 -30.5t219 -98t165.5 -169t101 -248t30.5 -331.5q-4 -186 -30 -325t-81.5 -250.5t-144.5 -181t-219.5 -105.5t-305.5 -35q-402 3 -592 223.5t-190 673.5zM631 846q0 -128 36.5 -215.5t110 -137t168 -70 t225.5 -20.5t225.5 20.5t167.5 70t109.5 137t36.5 215.5q0 133 -38 260t-106 228t-171.5 163t-223.5 62t-223.5 -62t-171.5 -163t-106.5 -228t-38.5 -260zM1065 2177l199 403h135l-135 -403h-199z" />
<glyph unicode="&#xd4;" horiz-adv-x="2340" d="M389 868q0 222 55 390.5t158 274.5t246 159t323 53q145 0 265 -30.5t219 -98t165.5 -169t101 -248t30.5 -331.5q-4 -186 -30 -325t-81.5 -250.5t-144.5 -181t-219.5 -105.5t-305.5 -35q-402 3 -592 223.5t-190 673.5zM631 846q0 -128 36.5 -215.5t110 -137t168 -70 t225.5 -20.5t225.5 20.5t167.5 70t109.5 137t36.5 215.5q0 133 -38 260t-106 228t-171.5 163t-223.5 62t-223.5 -62t-171.5 -163t-106.5 -228t-38.5 -260zM762 1870l272 268l90 131h99l80 -131l270 -268h-111l-297 203l-293 -203h-110z" />
<glyph unicode="&#xd5;" horiz-adv-x="2340" d="M389 868q0 222 55 390.5t158 274.5t246 159t323 53q145 0 265 -30.5t219 -98t165.5 -169t101 -248t30.5 -331.5q-4 -186 -30 -325t-81.5 -250.5t-144.5 -181t-219.5 -105.5t-305.5 -35q-402 3 -592 223.5t-190 673.5zM631 846q0 -128 36.5 -215.5t110 -137t168 -70 t225.5 -20.5t225.5 20.5t167.5 70t109.5 137t36.5 215.5q0 133 -38 260t-106 228t-171.5 163t-223.5 62t-223.5 -62t-171.5 -163t-106.5 -228t-38.5 -260zM827 1878q7 107 18 169t35.5 105t62.5 58.5t101 15.5q43 0 79.5 -24t62 -58t49 -67.5t50 -57.5t54.5 -24 q33 0 53.5 13t28.5 35t11 52t1.5 63t0.5 68h106q-1 -72 -6 -126t-12.5 -91.5t-22.5 -62t-28 -38.5t-37 -21t-42.5 -8.5t-50.5 -0.5q-47 1 -86.5 26t-66.5 60.5t-50 71t-47 60.5t-47 26q-16 0 -29.5 -5.5t-22.5 -18t-16 -25.5t-11 -35t-6.5 -38t-3.5 -42t-1 -40v-40h-127z " />
<glyph unicode="&#xd6;" horiz-adv-x="2340" d="M389 868q0 222 55 390.5t158 274.5t246 159t323 53q145 0 265 -30.5t219 -98t165.5 -169t101 -248t30.5 -331.5q-4 -186 -30 -325t-81.5 -250.5t-144.5 -181t-219.5 -105.5t-305.5 -35q-402 3 -592 223.5t-190 673.5zM631 846q0 -128 36.5 -215.5t110 -137t168 -70 t225.5 -20.5t225.5 20.5t167.5 70t109.5 137t36.5 215.5q0 133 -38 260t-106 228t-171.5 163t-223.5 62t-223.5 -62t-171.5 -163t-106.5 -228t-38.5 -260zM745 1913l72 336h217l49 -336h-338zM1303 1913l71 336h217l49 -336h-337z" />
<glyph unicode="&#xd7;" horiz-adv-x="1208" d="M164 215l313 289l-264 272h197l186 -164l172 158h186l-239 -264l329 -291h-286l-160 164l-149 -164h-285z" />
<glyph unicode="&#xd8;" horiz-adv-x="2430" d="M-25 -958l709 1138q-205 221 -205 688q0 222 55 390.5t158.5 274.5t246.5 159t323 53q202 0 356 -62l571 918l267 57l-648 -1089q245 -222 234 -701q-4 -186 -30 -325t-81.5 -250.5t-144 -181t-219 -105.5t-305.5 -35q-216 3 -365 64l-489 -823zM721 846q0 -255 153 -359 l623 1002q-111 70 -235 70q-120 0 -223.5 -62t-172 -163t-107 -228t-38.5 -260zM1120 410q75 -7 142 -7q131 0 225.5 20.5t167 70t109 137t36.5 215.5q0 130 -35.5 254.5t-101.5 222.5z" />
<glyph unicode="&#xd9;" horiz-adv-x="2158" d="M389 1737h334l-33 -871q-3 -81 1 -146t11 -114t25.5 -85.5t33 -61t46.5 -41t52.5 -25t64.5 -13t70 -5t79 -0.5h2h1q80 0 117 2.5t92.5 15.5t80 43.5t51.5 83.5t34 139t3 207l-33 871h348l-51 -1102q-4 -96 -12 -174t-25 -139.5t-30 -108.5t-44.5 -81.5t-50.5 -58t-66 -39 t-72.5 -24t-89 -12t-96.5 -4t-113 -0.5h-44q-221 0 -287 7q-152 17 -227 97q-100 109 -126 399q-6 63 -9 138zM682 2312h195l423 -313l-331 37z" />
<glyph unicode="&#xda;" horiz-adv-x="2158" d="M389 1737h334l-33 -871q-3 -81 1 -146t11 -114t25.5 -85.5t33 -61t46.5 -41t52.5 -25t64.5 -13t70 -5t79 -0.5h2h1q80 0 117 2.5t92.5 15.5t80 43.5t51.5 83.5t34 139t3 207l-33 871h348l-51 -1102q-4 -96 -12 -174t-25 -139.5t-30 -108.5t-44.5 -81.5t-50.5 -58t-66 -39 t-72.5 -24t-89 -12t-96.5 -4t-113 -0.5h-44q-221 0 -287 7q-152 17 -227 97q-100 109 -126 399q-6 63 -9 138zM961 2284l198 403h135l-135 -403h-198z" />
<glyph unicode="&#xdb;" horiz-adv-x="2158" d="M389 1737h334l-33 -871q-3 -81 1 -146t11 -114t25.5 -85.5t33 -61t46.5 -41t52.5 -25t64.5 -13t70 -5t79 -0.5h2h1q80 0 117 2.5t92.5 15.5t80 43.5t51.5 83.5t34 139t3 207l-33 871h348l-51 -1102q-4 -96 -12 -174t-25 -139.5t-30 -108.5t-44.5 -81.5t-50.5 -58t-66 -39 t-72.5 -24t-89 -12t-96.5 -4t-113 -0.5h-44q-221 0 -287 7q-152 17 -227 97q-100 109 -126 399q-6 63 -9 138zM657 1976l273 269l90 131h98l80 -131l270 -269h-110l-297 203l-293 -203h-111z" />
<glyph unicode="&#xdc;" horiz-adv-x="2158" d="M389 1737h334l-33 -871q-3 -81 1 -146t11 -114t25.5 -85.5t33 -61t46.5 -41t52.5 -25t64.5 -13t70 -5t79 -0.5h2h1q80 0 117 2.5t92.5 15.5t80 43.5t51.5 83.5t34 139t3 207l-33 871h348l-51 -1102q-4 -96 -12 -174t-25 -139.5t-30 -108.5t-44.5 -81.5t-50.5 -58t-66 -39 t-72.5 -24t-89 -12t-96.5 -4t-113 -0.5h-44q-221 0 -287 7q-152 17 -227 97q-100 109 -126 399q-6 63 -9 138zM641 2019l72 336h217l49 -336h-338zM1198 2019l72 336h217l49 -336h-338z" />
<glyph unicode="&#xdd;" horiz-adv-x="2174" d="M389 1739h246l455 -795l450 795h246l-549 -1133v-608h-422l115 608zM965 2316l198 404h135l-135 -404h-198z" />
<glyph unicode="&#xde;" horiz-adv-x="1146" d="M111 0v1620h202v-238q123 -4 252 -48t233.5 -112.5t171 -165.5t66.5 -198q0 -102 -66.5 -199t-170.5 -165.5t-233 -112t-253 -47.5v-334h-202zM313 578q46 -43 95 -43q58 0 170 60.5t203 141.5t91 131t-93.5 132t-209 143t-174.5 61q-41 0 -82 -33v-593z" />
<glyph unicode="&#xdf;" horiz-adv-x="1396" d="M164 0l59 1137q0 201 119.5 310t337.5 109q210 0 320 -116t110 -340q-151 -8 -234 -65t-83 -154q0 -48 28.5 -88t93.5 -82l58 -37q159 -102 209.5 -173t50.5 -175q0 -172 -111.5 -263.5t-322.5 -91.5q-129 0 -275 49v244q157 -59 285 -59q117 0 177.5 32.5t60.5 94.5 q0 37 -29 84q-27 40 -131 104l-82 55q-40 51 -63.5 86t-46.5 91t-23 108q0 68 14 117.5t48.5 94t100.5 73.5t164 43q-31 73 -60 120.5t-54 75t-60.5 40.5t-65.5 16.5t-83 3.5q-131 0 -198 -71t-87 -240l49 -1133h-276z" />
<glyph unicode="&#xe0;" horiz-adv-x="1679" d="M320.5 351.5q-19.5 124.5 9.5 287.5q82 456 430 504q239 34 348 -142l-4 119h145l117 -1120h-205v168q-57 -97 -159.5 -147t-229.5 -50q-121 0 -215.5 43.5t-155.5 128t-80.5 209zM412 1579h194l424 -313l-332 37zM478 462q9 -56 36.5 -96t86 -61.5t147.5 -21.5 q68 0 122.5 13.5t90 34t61.5 51t39 58.5t20.5 63.5t9 58t1.5 50.5q0 90 -17.5 156.5t-44.5 104.5t-67 61t-77 30t-83 7t-94 -21t-95 -64.5t-83 -121t-50 -178.5q-12 -68 -3 -124z" />
<glyph unicode="&#xe1;" horiz-adv-x="1679" d="M320.5 351.5q-19.5 124.5 9.5 287.5q82 456 430 504q239 34 348 -142l-4 119h145l117 -1120h-205v168q-57 -97 -159.5 -147t-229.5 -50q-121 0 -215.5 43.5t-155.5 128t-80.5 209zM478 462q9 -56 36.5 -96t86 -61.5t147.5 -21.5q68 0 122.5 13.5t90 34t61.5 51t39 58.5 t20.5 63.5t9 58t1.5 50.5q0 90 -17.5 156.5t-44.5 104.5t-67 61t-77 30t-83 7t-94 -21t-95 -64.5t-83 -121t-50 -178.5q-12 -68 -3 -124zM690 1550l199 404h135l-135 -404h-199z" />
<glyph unicode="&#xe2;" horiz-adv-x="1679" d="M320.5 351.5q-19.5 124.5 9.5 287.5q82 456 430 504q239 34 348 -142l-4 119h145l117 -1120h-205v168q-57 -97 -159.5 -147t-229.5 -50q-121 0 -215.5 43.5t-155.5 128t-80.5 209zM393 1243l273 268l90 131h98l80 -131l270 -268h-110l-297 203l-293 -203h-111zM478 462 q9 -56 36.5 -96t86 -61.5t147.5 -21.5q68 0 122.5 13.5t90 34t61.5 51t39 58.5t20.5 63.5t9 58t1.5 50.5q0 90 -17.5 156.5t-44.5 104.5t-67 61t-77 30t-83 7t-94 -21t-95 -64.5t-83 -121t-50 -178.5q-12 -68 -3 -124z" />
<glyph unicode="&#xe3;" horiz-adv-x="1679" d="M320.5 351.5q-19.5 124.5 9.5 287.5q82 456 430 504q239 34 348 -142l-4 119h145l117 -1120h-205v168q-57 -97 -159.5 -147t-229.5 -50q-121 0 -215.5 43.5t-155.5 128t-80.5 209zM453 1251q7 107 18 169t35.5 105t62.5 58.5t101 15.5q43 0 79.5 -24t62 -57.5t49 -67.5 t50 -58t54.5 -24q33 0 53.5 13t28 35t10.5 52t1.5 63t0.5 68h106q-1 -72 -6 -126t-12.5 -91.5t-22 -62t-28 -38.5t-37 -21t-42 -8.5t-50.5 -0.5q-47 1 -86.5 26t-66.5 60.5t-50 71t-47 60.5t-47 26q-16 0 -29.5 -5.5t-22.5 -18t-16 -25.5t-11 -35t-6.5 -38t-3.5 -42t-1 -40 v-40h-127zM478 462q9 -56 36.5 -96t86 -61.5t147.5 -21.5q68 0 122.5 13.5t90 34t61.5 51t39 58.5t20.5 63.5t9 58t1.5 50.5q0 90 -17.5 156.5t-44.5 104.5t-67 61t-77 30t-83 7t-94 -21t-95 -64.5t-83 -121t-50 -178.5q-12 -68 -3 -124z" />
<glyph unicode="&#xe4;" horiz-adv-x="1679" d="M320.5 351.5q-19.5 124.5 9.5 287.5q82 456 430 504q239 34 348 -142l-4 119h145l117 -1120h-205v168q-57 -97 -159.5 -147t-229.5 -50q-121 0 -215.5 43.5t-155.5 128t-80.5 209zM371 1286l71 336h217l50 -336h-338zM478 462q9 -56 36.5 -96t86 -61.5t147.5 -21.5 q68 0 122.5 13.5t90 34t61.5 51t39 58.5t20.5 63.5t9 58t1.5 50.5q0 90 -17.5 156.5t-44.5 104.5t-67 61t-77 30t-83 7t-94 -21t-95 -64.5t-83 -121t-50 -178.5q-12 -68 -3 -124zM928 1286l71 336h218l49 -336h-338z" />
<glyph unicode="&#xe5;" horiz-adv-x="1679" d="M320.5 351.5q-19.5 124.5 9.5 287.5q82 456 430 504q239 34 348 -142l-4 119h145l117 -1120h-205v168q-57 -97 -159.5 -147t-229.5 -50q-121 0 -215.5 43.5t-155.5 128t-80.5 209zM478 462q9 -56 36.5 -96t86 -61.5t147.5 -21.5q68 0 122.5 13.5t90 34t61.5 51t39 58.5 t20.5 63.5t9 58t1.5 50.5q0 90 -17.5 156.5t-44.5 104.5t-67 61t-77 30t-83 7t-94 -21t-95 -64.5t-83 -121t-50 -178.5q-12 -68 -3 -124zM604 1546q0 91 61.5 156t147.5 65t147.5 -65t61.5 -156t-61.5 -156t-147.5 -65t-147.5 65t-61.5 156zM694 1577q0 -30 4 -52t13 -35.5 t17.5 -21.5t24.5 -11t27.5 -4t32.5 -1t32.5 1t27.5 4t24.5 11t17.5 21.5t13 35.5t4 52q0 51 -35 87t-84 36t-84 -36t-35 -87z" />
<glyph unicode="&#xe6;" horiz-adv-x="2506" d="M320.5 351.5q-19.5 124.5 9.5 287.5q82 456 430 504q239 34 348 -142l-4 119h145l15 -139q75 97 185.5 152t242.5 55q89 -7 166.5 -41t144.5 -97.5t116.5 -166.5t73.5 -238l-886 -57v-25l4 -31q19 -124 121 -195t297 -93q115 -12 201 2t204 65v-254q-201 -86 -412 -86 t-364 101l8 -72h-205v168q-57 -97 -159.5 -147t-229.5 -50q-121 0 -215.5 43.5t-155.5 128t-80.5 209zM478 462q9 -56 36.5 -96t86 -61.5t147.5 -21.5q68 0 122.5 13.5t90 34t61.5 51t39 58.5t20.5 63.5t9 58t1.5 50.5q0 90 -17.5 156.5t-44.5 104.5t-67 61t-77 30t-83 7 t-94 -21t-95 -64.5t-83 -121t-50 -178.5q-12 -68 -3 -124zM1333 745l656 64q-41 259 -297 242q-151 -10 -255 -105t-104 -201z" />
<glyph unicode="&#xe7;" horiz-adv-x="1529" d="M313 559q0 306 117 449t375 149q72 1 147.5 -6t108.5 -18v-177q-102 31 -215 31q-326 -3 -326 -428q6 -78 39 -143.5t85 -108t115 -65.5t132.5 -19t132.5 35l193 -209q-130 -77 -351 -63l-55 4l-35 -92h72q38 0 74.5 -8.5t71.5 -27.5t53 -55.5t10 -85.5 q-13 -85 -77.5 -132.5t-164.5 -47.5h-143l26 123q53 -12 121 -12q61 0 106.5 26.5t45.5 55.5t-10.5 50t-24 31.5t-36 16.5t-38 7t-37.5 1q-59 0 -141 -12l57 172q-121 20 -204 64t-132.5 115t-70.5 163t-21 217z" />
<glyph unicode="&#xe8;" horiz-adv-x="1699" d="M313 549q11 280 167 459.5t405 179.5q89 -7 166.5 -41t144.5 -97.5t116.5 -166.5t73.5 -238l-886 -57q0 -299 422 -344q115 -12 201 2t204 65v-254q-201 -86 -412 -86q-269 0 -435.5 157.5t-166.5 420.5zM457 1835h194l424 -313l-332 37zM526 745l656 64 q-41 259 -297 242q-151 -10 -255 -105t-104 -201z" />
<glyph unicode="&#xe9;" horiz-adv-x="1699" d="M313 549q11 280 167 459.5t405 179.5q89 -7 166.5 -41t144.5 -97.5t116.5 -166.5t73.5 -238l-886 -57q0 -299 422 -344q115 -12 201 2t204 65v-254q-201 -86 -412 -86q-269 0 -435.5 157.5t-166.5 420.5zM526 745l656 64q-41 259 -297 242q-151 -10 -255 -105t-104 -201z M735 1806l199 404h135l-135 -404h-199z" />
<glyph unicode="&#xea;" horiz-adv-x="1699" d="M313 549q11 280 167 459.5t405 179.5q89 -7 166.5 -41t144.5 -97.5t116.5 -166.5t73.5 -238l-886 -57q0 -299 422 -344q115 -12 201 2t204 65v-254q-201 -86 -412 -86q-269 0 -435.5 157.5t-166.5 420.5zM432 1499l273 268l90 131h98l80 -131l270 -268h-110l-297 203 l-293 -203h-111zM526 745l656 64q-41 259 -297 242q-151 -10 -255 -105t-104 -201z" />
<glyph unicode="&#xeb;" horiz-adv-x="1699" d="M313 549q11 280 167 459.5t405 179.5q89 -7 166.5 -41t144.5 -97.5t116.5 -166.5t73.5 -238l-886 -57q0 -299 422 -344q115 -12 201 2t204 65v-254q-201 -86 -412 -86q-269 0 -435.5 157.5t-166.5 420.5zM416 1542l71 336h218l49 -336h-338zM526 745l656 64 q-41 259 -297 242q-151 -10 -255 -105t-104 -201zM973 1542l71 336h218l49 -336h-338z" />
<glyph unicode="&#xec;" horiz-adv-x="925" d="M70 1663h194l424 -313l-332 36zM328 0q6 90 20 270.5t20.5 278.5t12.5 258.5t6 320.5h164q-27 -651 47 -1128h-270z" />
<glyph unicode="&#xed;" horiz-adv-x="925" d="M328 0q6 90 20 270.5t20.5 278.5t12.5 258.5t6 320.5h164q-27 -651 47 -1128h-270zM348 1634l199 404h135l-135 -404h-199z" />
<glyph unicode="&#xee;" horiz-adv-x="925" d="M45 1327l272 268l91 131h98l80 -131l270 -268h-111l-296 203l-293 -203h-111zM328 0q6 90 20 270.5t20.5 278.5t12.5 258.5t6 320.5h164q-27 -651 47 -1128h-270z" />
<glyph unicode="&#xef;" horiz-adv-x="925" d="M-6 1393l72 336h217l49 -336h-338zM328 0q6 90 20 270.5t20.5 278.5t12.5 258.5t6 320.5h164q-27 -651 47 -1128h-270zM551 1393l72 336h217l49 -336h-338z" />
<glyph unicode="&#xf0;" horiz-adv-x="1712" d="M164 479q0 235 130.5 371.5t356.5 136.5q58 0 106.5 -12.5t98.5 -44t94 -92.5t78 -150q9 50 25 136t24.5 141.5t12.5 109.5h-375v211h372v8q-10 103 -76.5 142t-189.5 39l64 137q41 0 83.5 -5.5t94 -23.5t91 -46t66 -78.5t27.5 -115.5v-57h371v-211h-375q-5 -62 -47 -330 q-24 -157 -51.5 -270.5t-69.5 -213.5t-97 -160.5t-133.5 -95t-180.5 -34.5q-226 0 -363 139t-137 369zM367 479q0 -104 81.5 -172.5t215.5 -68.5q135 0 222 71.5t72 169.5q-11 74 -33 134.5t-57 109.5t-87 76.5t-117 27.5q-137 0 -217 -93.5t-80 -254.5z" />
<glyph unicode="&#xf1;" horiz-adv-x="1669" d="M313 0l82 1118h135l35 -90q22 10 68.5 35.5t75.5 39t80 26t106 12.5q188 0 294.5 -126.5t121.5 -352.5l45 -662h-285l23 674q5 151 -47 222t-173 71q-82 0 -140.5 -27.5t-90.5 -76t-45 -108.5t-10 -132l28 -623h-303zM547 1382q7 107 18 169.5t35.5 105.5t62.5 58.5 t101 15.5q43 0 79.5 -24t62 -58t49 -68t50 -58t54.5 -24q33 0 53.5 13t28 35.5t10.5 52t1.5 63t0.5 68.5h107q-1 -100 -11 -166.5t-24 -103t-42 -54.5t-52.5 -22t-69.5 -3q-47 1 -86.5 26t-66.5 60.5t-50 71t-47 60.5t-47 26q-16 0 -29.5 -5.5t-22.5 -18t-16 -25.5t-11 -35 t-6.5 -38t-3.5 -42t-1 -40v-40h-127z" />
<glyph unicode="&#xf2;" horiz-adv-x="1695" d="M313 559q0 271 143 429.5t392 158.5q248 0 391 -158.5t143 -429.5q0 -263 -144 -424.5t-390 -161.5q-247 0 -391 161.5t-144 424.5zM446 1812h195l424 -313l-332 37zM516 594q0 -101 16.5 -162.5t58.5 -95.5t100.5 -45.5t156.5 -11.5t156.5 11.5t100.5 45.5t58.5 95.5 t16.5 162.5q0 204 -84 288.5t-248 84.5t-248 -84.5t-84 -288.5z" />
<glyph unicode="&#xf3;" horiz-adv-x="1695" d="M313 559q0 271 143 429.5t392 158.5q248 0 391 -158.5t143 -429.5q0 -263 -144 -424.5t-390 -161.5q-247 0 -391 161.5t-144 424.5zM516 594q0 -101 16.5 -162.5t58.5 -95.5t100.5 -45.5t156.5 -11.5t156.5 11.5t100.5 45.5t58.5 95.5t16.5 162.5q0 204 -84 288.5 t-248 84.5t-248 -84.5t-84 -288.5zM725 1784l199 403h135l-135 -403h-199z" />
<glyph unicode="&#xf4;" horiz-adv-x="1695" d="M313 559q0 271 143 429.5t392 158.5q248 0 391 -158.5t143 -429.5q0 -263 -144 -424.5t-390 -161.5q-247 0 -391 161.5t-144 424.5zM422 1477l272 268l90 131h99l80 -131l270 -268h-111l-297 202l-293 -202h-110zM516 594q0 -101 16.5 -162.5t58.5 -95.5t100.5 -45.5 t156.5 -11.5t156.5 11.5t100.5 45.5t58.5 95.5t16.5 162.5q0 204 -84 288.5t-248 84.5t-248 -84.5t-84 -288.5z" />
<glyph unicode="&#xf5;" horiz-adv-x="1695" d="M313 559q0 271 143 429.5t392 158.5q248 0 391 -158.5t143 -429.5q0 -263 -144 -424.5t-390 -161.5q-247 0 -391 161.5t-144 424.5zM487 1485q6 85 14 140t23 98.5t39 65.5t58 33t84 11q43 0 79.5 -24t62 -57.5t48.5 -67.5t49.5 -58t54.5 -24q33 0 53.5 13t28.5 35t11 52 t1.5 63t0.5 68h106q-1 -72 -6 -126t-12.5 -91.5t-22.5 -62t-28 -38.5t-37 -21t-42.5 -8.5t-50.5 -0.5q-47 1 -86.5 26t-66 60.5t-49.5 71t-47 60.5t-47 26q-22 0 -38 -10t-25.5 -31t-15.5 -41.5t-8.5 -54t-3 -53.5t-0.5 -54h-127zM516 594q0 -101 16.5 -162.5t58.5 -95.5 t100.5 -45.5t156.5 -11.5t156.5 11.5t100.5 45.5t58.5 95.5t16.5 162.5q0 204 -84 288.5t-248 84.5t-248 -84.5t-84 -288.5z" />
<glyph unicode="&#xf6;" horiz-adv-x="1695" d="M313 559q0 271 143 429.5t392 158.5q248 0 391 -158.5t143 -429.5q0 -263 -144 -424.5t-390 -161.5q-247 0 -391 161.5t-144 424.5zM406 1520l71 335h217l49 -335h-337zM516 594q0 -101 16.5 -162.5t58.5 -95.5t100.5 -45.5t156.5 -11.5t156.5 11.5t100.5 45.5t58.5 95.5 t16.5 162.5q0 204 -84 288.5t-248 84.5t-248 -84.5t-84 -288.5zM963 1520l71 335h217l49 -335h-337z" />
<glyph unicode="&#xf7;" horiz-adv-x="1562" d="M164 467l86 143l1069 49l80 -157zM569 -20l72 335h217l49 -335h-338zM569 885l72 336h217l49 -336h-338z" />
<glyph unicode="&#xf8;" horiz-adv-x="1695" d="M266 -1036l322 1069q-132 69 -203.5 206t-71.5 320q0 271 143 429.5t392 158.5q28 0 74 -4l264 878l188 97l-282 -1020q140 -65 215 -204t75 -335q0 -263 -144 -424.5t-390 -161.5q-28 0 -68 4l-223 -800zM516 594q0 -139 35 -206.5t117 -90.5l200 670h-20 q-164 0 -248 -84.5t-84 -288.5zM862 279q95 1 151 13t96 47t55.5 95.5t15.5 159.5q0 250 -138 330z" />
<glyph unicode="&#xf9;" horiz-adv-x="1638" d="M313 1147h197l41 -539q10 -143 15 -168q14 -66 60 -89q47 -22 165 -21q50 0 86.5 3t65.5 11.5t48 16.5t33 28.5t21.5 37.5t12.5 52t6.5 64.5t2.5 81.5l14 522h203l41 -1147h-223l8 172q-25 -65 -67.5 -109t-96 -63t-98 -26t-98.5 -7q-100 0 -165.5 20t-116 72.5 t-77 145.5t-35.5 237zM391 1663h195l424 -313l-332 36z" />
<glyph unicode="&#xfa;" horiz-adv-x="1638" d="M313 1147h197l41 -539q10 -143 15 -168q14 -66 60 -89q47 -22 165 -21q50 0 86.5 3t65.5 11.5t48 16.5t33 28.5t21.5 37.5t12.5 52t6.5 64.5t2.5 81.5l14 522h203l41 -1147h-223l8 172q-25 -65 -67.5 -109t-96 -63t-98 -26t-98.5 -7q-100 0 -165.5 20t-116 72.5 t-77 145.5t-35.5 237zM670 1634l198 404h136l-136 -404h-198z" />
<glyph unicode="&#xfb;" horiz-adv-x="1638" d="M313 1147h197l41 -539q10 -143 15 -168q14 -66 60 -89q47 -22 165 -21q50 0 86.5 3t65.5 11.5t48 16.5t33 28.5t21.5 37.5t12.5 52t6.5 64.5t2.5 81.5l14 522h203l41 -1147h-223l8 172q-25 -65 -67.5 -109t-96 -63t-98 -26t-98.5 -7q-100 0 -165.5 20t-116 72.5 t-77 145.5t-35.5 237zM367 1327l272 268l90 131h98l80 -131l271 -268h-111l-297 203l-293 -203h-110z" />
<glyph unicode="&#xfc;" horiz-adv-x="1638" d="M313 1147h197l41 -539q10 -143 15 -168q14 -66 60 -89q47 -22 165 -21q50 0 86.5 3t65.5 11.5t48 16.5t33 28.5t21.5 37.5t12.5 52t6.5 64.5t2.5 81.5l14 522h203l41 -1147h-223l8 172q-25 -65 -67.5 -109t-96 -63t-98 -26t-98.5 -7q-100 0 -165.5 20t-116 72.5 t-77 145.5t-35.5 237zM350 1370l72 336h217l49 -336h-338zM907 1370l72 336h217l49 -336h-338z" />
<glyph unicode="&#xfd;" horiz-adv-x="1716" d="M313 1147h195l459 -780l239 780h197l-285 -1217q-22 -93 -73.5 -172t-114.5 -130.5t-135.5 -87.5t-136 -52t-115.5 -16h-168v264h129q61 0 130.5 28.5t125.5 79t77 118.5t-16 147zM758 1806l198 404h136l-136 -404h-198z" />
<glyph unicode="&#xfe;" horiz-adv-x="1146" d="M164 1638h180l6 -335q88 -4 178 -30t172.5 -74t146 -111t101 -148.5t35.5 -179.5q-2 -122 -39.5 -227t-97.5 -179t-139.5 -128.5t-164 -84t-173.5 -37.5l8 -473h-180zM352 1120l15 -825q24 -14 49 -14q33 0 84 22.5t109 67t108.5 101.5t84.5 135.5t36 160.5 q1 61 -49.5 131.5t-120.5 123t-141 87.5t-111 35q-32 0 -64 -25z" />
<glyph unicode="&#xff;" horiz-adv-x="1716" d="M313 1147h195l459 -780l239 780h197l-285 -1217q-22 -93 -73.5 -172t-114.5 -130.5t-135.5 -87.5t-136 -52t-115.5 -16h-168v264h129q61 0 130.5 28.5t125.5 79t77 118.5t-16 147zM438 1542l72 336h217l49 -336h-338zM995 1542l72 336h217l49 -336h-338z" />
<glyph unicode="&#x152;" horiz-adv-x="2463" d="M389 868q0 222 55 390.5t158 274.5t246 159t323 53q246 0 418 -88l2 37l1026 30l-47 -217l-762 -43q122 -175 142 -452l424 18v-237l-426 -29q-15 -255 -86 -424h714l76 -350h-1116l2 35q-146 -54 -367 -54q-402 3 -592 223.5t-190 673.5zM631 846q0 -128 36.5 -215.5 t110 -137t168 -70t225.5 -20.5q255 0 381 82l27 828q-73 115 -177.5 180.5t-230.5 65.5q-120 0 -223.5 -62t-171.5 -163t-106.5 -228t-38.5 -260z" />
<glyph unicode="&#x153;" horiz-adv-x="2191" d="M313 559q0 271 143 429.5t392 158.5q141 0 251.5 -54t180.5 -155q75 118 192 184t265 66q89 -7 166.5 -41t144.5 -97.5t116.5 -166.5t73.5 -238l-856 -55v-31q0 -51 -6 -100q77 -181 398 -215q115 -12 201 2t204 65v-254q-201 -86 -412 -86q-157 0 -283.5 56.5 t-205.5 158.5q-70 -103 -179.5 -158t-250.5 -55q-247 0 -391 161.5t-144 424.5zM516 594q0 -101 16.5 -162.5t58.5 -95.5t100.5 -45.5t156.5 -11.5q160 0 230 36.5t91 149.5q-4 54 -4 84q2 50 13 115q-14 165 -97.5 234t-232.5 69q-164 0 -248 -84.5t-84 -288.5zM1378 745 l656 64q-41 259 -297 242q-151 -10 -255 -105t-104 -201z" />
<glyph unicode="&#x178;" horiz-adv-x="2174" d="M389 1739h246l455 -795l450 795h246l-549 -1133v-608h-422l115 608zM645 2052l72 336h217l49 -336h-338zM1202 2052l72 336h217l49 -336h-338z" />
<glyph unicode="&#x2c6;" horiz-adv-x="1138" d="M164 1475l272 268l90 131h99l80 -131l270 -268h-111l-297 202l-293 -202h-110z" />
<glyph unicode="&#x2dc;" horiz-adv-x="958" d="M123 1186q7 107 18 169t35.5 105t62.5 58.5t101 15.5q43 0 79.5 -24t62 -58t49 -67.5t50 -57.5t54.5 -24q33 0 53.5 13t28 35t10.5 52t1.5 63t0.5 68h107q-1 -72 -6 -126t-12.5 -91.5t-22.5 -62t-28 -38.5t-37 -21t-42.5 -8.5t-50.5 -0.5q-47 1 -86.5 26t-66.5 60.5 t-50 71t-47 60.5t-47 26q-16 0 -29.5 -5.5t-22.5 -18t-16 -25.5t-11 -35t-6.5 -38t-3.5 -42t-1 -40v-40h-127z" />
<glyph unicode="&#x2000;" horiz-adv-x="1386" />
<glyph unicode="&#x2001;" horiz-adv-x="2773" />
<glyph unicode="&#x2002;" horiz-adv-x="1386" />
<glyph unicode="&#x2003;" horiz-adv-x="2773" />
<glyph unicode="&#x2004;" horiz-adv-x="924" />
<glyph unicode="&#x2005;" horiz-adv-x="693" />
<glyph unicode="&#x2006;" horiz-adv-x="462" />
<glyph unicode="&#x2007;" horiz-adv-x="462" />
<glyph unicode="&#x2008;" horiz-adv-x="346" />
<glyph unicode="&#x2009;" horiz-adv-x="554" />
<glyph unicode="&#x200a;" horiz-adv-x="154" />
<glyph unicode="&#x2010;" horiz-adv-x="1230" d="M164 500v211h903v-211h-903z" />
<glyph unicode="&#x2011;" horiz-adv-x="1230" d="M164 500v211h903v-211h-903z" />
<glyph unicode="&#x2012;" horiz-adv-x="1230" d="M164 500v211h903v-211h-903z" />
<glyph unicode="&#x2013;" horiz-adv-x="1630" d="M164 500l20 186l1282 -4l-20 -186z" />
<glyph unicode="&#x2014;" horiz-adv-x="2308" d="M164 500l18 186l1962 -4l-20 -186z" />
<glyph unicode="&#x2018;" horiz-adv-x="675" d="M102 1739h351l32 -285h-16l104 -291h-311z" />
<glyph unicode="&#x2019;" horiz-adv-x="675" d="M102 1163l105 291h-17l33 285h350l-159 -576h-312z" />
<glyph unicode="&#x201a;" horiz-adv-x="657" d="M100 -305l105 291h-17l33 284h350l-159 -575h-312z" />
<glyph unicode="&#x201c;" horiz-adv-x="1157" d="M102 1739h351l32 -285h-16l104 -291h-311zM584 1739h350l33 -285h-17l105 -291h-312z" />
<glyph unicode="&#x201d;" horiz-adv-x="1161" d="M102 1163l105 291h-17l33 285h350l-159 -576h-312zM588 1163l104 291h-16l33 285h350l-160 -576h-311z" />
<glyph unicode="&#x201e;" horiz-adv-x="657" d="M100 -305l105 291h-17l33 284h350l-159 -575h-312z" />
<glyph unicode="&#x2022;" horiz-adv-x="1042" d="M-47 252l246 1161h749l170 -1161h-1165z" />
<glyph unicode="&#x2026;" horiz-adv-x="1933" d="M102 -4l72 336h217l49 -336h-338zM823 -4l72 336h217l49 -336h-338zM1501 -4l72 336h217l49 -336h-338z" />
<glyph unicode="&#x202f;" horiz-adv-x="554" />
<glyph unicode="&#x2039;" horiz-adv-x="854" d="M164 504l454 -434l48 229l-291 279l311 258l4 190l-481 -401z" />
<glyph unicode="&#x203a;" horiz-adv-x="854" d="M164 1026l4 -190l311 -258l-291 -279l48 -229l454 434l-45 121z" />
<glyph unicode="&#x205f;" horiz-adv-x="693" />
<glyph unicode="&#x20ac;" horiz-adv-x="1525" d="M166 494l63 143l267 16q-2 20 -2 58l-2 127l-291 -11l63 144l234 14q8 112 29 194.5t62.5 151t106 110t157.5 65t219 22.5t290 -23v-227q-199 46 -335.5 36t-215.5 -87t-106 -230l350 23l59 -158l-426 -16v-55l2 -125l330 20l59 -158l-374 -14q15 -113 45.5 -187t76 -112 t106 -56t135 -18.5t163.5 0.5q85 2 131 2v-288q-189 -5 -317 2.5t-225.5 38t-153.5 73.5t-93 124.5t-51.5 174t-21.5 238.5z" />
<glyph unicode="&#x2122;" horiz-adv-x="1329" d="M102 1784v82h449v-76l-189 8l15 -485h-107l21 485zM657 1325l31 541h113l141 -332l137 332h103l45 -541h-142l29 397l-133 -352h-82l-147 352l26 -397h-121z" />
<glyph unicode="&#x25fc;" horiz-adv-x="1146" d="M0 0v1147h1147v-1147h-1147z" />
<glyph unicode="&#xfb01;" horiz-adv-x="1785" d="M307 938v182h166q0 130 13 221t36.5 147t64 87t87 42t114.5 11h164v-153h-166q-52 0 -85.5 -30t-46 -72.5t-14.5 -96t2 -92t11 -68.5l318 4v-182h-293l31 -938h-267l31 938h-166zM1141 1452l71 336h218l49 -336h-338zM1171 0q6 94 20 271t21 277t13 260t6 320h164 q-27 -651 47 -1128h-271z" />
<glyph unicode="&#xfb02;" horiz-adv-x="2039" d="M307 938v182h166q0 130 13 221t36.5 147t64 87t87 42t114.5 11h164v-153h-166q-52 0 -85.5 -30t-46 -72.5t-14.5 -96t2 -92t11 -68.5l318 4v-182h-293l31 -938h-267l31 938h-166zM1241 -2q-21 189 3 720.5t83 930.5h195q-45 -404 -62.5 -738.5t-3.5 -685.5h244l33 -227 h-492z" />
<glyph unicode="&#xfb03;" horiz-adv-x="2625" d="M307 938v182h113v8h53q1 128 14.5 217.5t36.5 145t64 86t86.5 41t113.5 10.5h164v-153h-166q-49 0 -82 -28t-46.5 -67.5t-16.5 -90t0 -89.5t10 -72l572 -4q0 129 13 219t36.5 146.5t64 87.5t87 42t114.5 11h164v-153h-166q-52 0 -85.5 -30t-46 -72.5t-14.5 -96t2 -92 t11 -68.5l317 4v-182h-293l31 -938h-266l31 936l-252 2v-2h-293l31 -938h-267l31 938h-166zM1890 1454l72 336h217l49 -336h-338zM1921 2q6 90 20 270.5t20.5 278.5t12.5 258.5t6 320.5h164q-27 -651 47 -1128h-270z" />
<glyph unicode="&#xfb04;" horiz-adv-x="2789" d="M307 938v182h113v8h53q1 128 14.5 217.5t36.5 145t64 86t86.5 41t113.5 10.5h164v-153h-166q-49 0 -82 -28t-46.5 -67.5t-16.5 -90t0 -89.5t10 -72l572 -4q0 129 13 219t36.5 146.5t64 87.5t87 42t114.5 11h164v-153h-166q-52 0 -85.5 -30t-46 -72.5t-14.5 -96t2 -92 t11 -68.5l317 4v-182h-293l31 -938h-266l31 936l-252 2v-2h-293l31 -938h-267l31 938h-166zM1991 0q-21 189 3 720.5t83 930.5h194q-45 -401 -62 -736.5t-3 -687.5h243l33 -227h-491z" />
</font>
</defs>
</svg>
